<svg width="200" height="200" viewBox="0 0 200 200" fill="none" xmlns="http://www.w3.org/2000/svg">
<rect x="3" y="3" width="194" height="194" rx="97" fill="#010100"/>
<rect x="3" y="3" width="194" height="194" rx="97" stroke="#FEFAE0" stroke-width="6"/>
<path fill-rule="evenodd" clip-rule="evenodd" d="M61.0384 123.343H69.568V103.315L61.0384 100.06V123.343ZM61.0384 87.1551V84.1148C62.0019 79.1618 65.5473 76.415 71.5589 76.415C73.7425 76.415 75.605 76.8013 77.0821 77.445V84.5261C76.1188 84.1399 74.8343 83.9468 73.6783 83.9468C71.2378 83.9468 69.6323 84.9124 69.6323 87.2942V88.1391H69.568V90.4099L61.0384 87.1551Z" fill="white"/>
<path d="M74.2857 102.758L50 93.4907L54.597 86.6348L79.0512 95.9663L74.2857 102.758Z" fill="#FF002B"/>
<path d="M91.8957 102.052C91.8957 104.707 90.0654 106.59 87.4162 106.59C84.767 106.59 82.8885 104.707 82.8885 102.052C82.8885 99.3482 84.767 97.4652 87.4162 97.4652C90.0654 97.4652 91.8957 99.3482 91.8957 102.052ZM91.8957 119.047C91.8957 121.702 90.0654 123.585 87.4162 123.585C84.767 123.585 82.8885 121.702 82.8885 119.047C82.8885 116.343 84.767 114.46 87.4162 114.46C90.0654 114.46 91.8957 116.343 91.8957 119.047Z" fill="#FF002B"/>
<path d="M121.157 117.357V123.343H98.4224V119.529L108.297 109.39C112.054 105.528 113.643 103.5 113.643 100.652C113.643 97.9963 111.861 96.2099 109.019 96.2099C105.888 96.2099 103.962 98.1894 103.962 101.376H97.459C97.459 94.8581 102.372 90.2232 109.356 90.2232C115.859 90.2232 120.627 94.327 120.627 99.831C120.627 103.79 119.182 106.301 113.499 112.046L108.586 117.357H121.157Z" fill="white"/>
<path d="M150 116.922H145.424V123.343H138.777V116.922H123.315V111.949L140.126 90.706H145.424V111.08H150V116.922ZM130.637 111.08H138.777V100.314L130.637 111.08Z" fill="white"/>
</svg>
