<svg width="117" height="30" viewBox="0 0 117 30" fill="none" xmlns="http://www.w3.org/2000/svg">
<rect width="43" height="30" rx="4" fill="#FFE146"/>
<g clip-path="url(#clip0_280_371)">
<path d="M36.2656 8.05566H26.7719C26.6367 8.05566 26.5653 8.21724 26.6556 8.31886L28.6174 10.5285C28.6469 10.5619 28.6892 10.5809 28.7336 10.5809H30.0156C30.1019 10.5809 30.1719 10.6516 30.1719 10.7387V21.7867C30.1719 21.8739 30.2419 21.9446 30.3281 21.9446H32.8811C32.9674 21.9446 33.0374 21.8739 33.0374 21.7867V10.7387C33.0374 10.6516 33.1072 10.5809 33.1936 10.5809H36.2656C36.3519 10.5809 36.4219 10.5103 36.4219 10.4231V8.21349C36.4219 8.12633 36.3519 8.05566 36.2656 8.05566Z" fill="#021198"/>
<path fill-rule="evenodd" clip-rule="evenodd" d="M19.7457 20.1878C19.6598 20.2747 19.6314 20.4039 19.6731 20.5193L20.1116 21.7326C20.1488 21.8356 20.0734 21.9446 19.9648 21.9446H17.7813C17.7156 21.9446 17.6569 21.903 17.6344 21.8407L12.7481 8.26743C12.711 8.1645 12.7865 8.05566 12.8949 8.05566H15.0594C15.125 8.05566 15.1837 8.09709 15.2062 8.15937L17.0862 13.3614C17.0993 13.3977 17.1335 13.4218 17.1717 13.4218C17.2128 13.4218 17.2488 13.394 17.26 13.354C17.3498 13.0345 17.4666 12.7264 17.6077 12.4325C17.6679 12.3072 17.6466 12.1562 17.5491 12.0577L16.9266 11.4289C16.8045 11.3056 16.8045 11.1057 16.9266 10.9825L18.6944 9.19683C18.8164 9.07356 19.0143 9.07356 19.1363 9.19683L19.7287 9.79517C19.8281 9.89563 19.9813 9.91577 20.1064 9.85088C20.3557 9.72162 20.6158 9.61062 20.8849 9.51961C21.0169 9.47496 21.1093 9.35216 21.1093 9.21154V8.37132C21.1093 8.19699 21.2493 8.05566 21.4218 8.05566H23.9218C24.0945 8.05566 24.2343 8.19699 24.2343 8.37132V9.21154C24.2343 9.35216 24.3267 9.47496 24.4587 9.51961C24.7279 9.61062 24.9879 9.72162 25.2373 9.85088C25.3623 9.91577 25.5156 9.89563 25.615 9.79517L26.2073 9.19683C26.3293 9.07356 26.5273 9.07356 26.6493 9.19683L28.4171 10.9824C28.5392 11.1057 28.5392 11.3056 28.4171 11.4289L27.7945 12.0577C27.697 12.1562 27.6757 12.3072 27.7359 12.4325C27.8528 12.6758 27.9529 12.9288 28.035 13.19C28.0776 13.3259 28.2003 13.4218 28.3415 13.4218H29.2343C29.407 13.4218 29.5468 13.5631 29.5468 13.7375V16.2627C29.5468 16.4371 29.407 16.5784 29.2343 16.5784H28.2811C28.1437 16.5784 28.0234 16.6692 27.9778 16.7999C27.8934 17.0412 27.7935 17.275 27.6792 17.5C27.6148 17.6264 27.6348 17.7812 27.7343 17.8816L28.4171 18.5714C28.5392 18.6946 28.5392 18.8945 28.4171 19.0178L26.6493 20.8034C26.5273 20.9267 26.3295 20.9267 26.2073 20.8034L25.4943 20.0832C25.3968 19.9847 25.2473 19.9632 25.1232 20.024C24.909 20.129 24.6871 20.2206 24.4587 20.2979C24.3267 20.3425 24.2343 20.4653 24.2343 20.6059V21.6289C24.2343 21.8032 24.0945 21.9446 23.9218 21.9446H21.4218C21.2493 21.9446 21.1093 21.8032 21.1093 21.6289V20.6059C21.1093 20.4653 21.0169 20.3425 20.8849 20.2979C20.6565 20.2206 20.4346 20.129 20.2204 20.024C20.0963 19.9632 19.9468 19.9847 19.8493 20.0832L19.7457 20.1878ZM25.7968 14.9087C25.7968 16.6521 24.3978 18.0653 22.6718 18.0653C20.9459 18.0653 19.5468 16.6521 19.5468 14.9087C19.5468 13.1654 20.9459 11.7522 22.6718 11.7522C24.3978 11.7522 25.7968 13.1654 25.7968 14.9087Z" fill="#021198"/>
<path d="M13.5888 12.2151C13.602 12.179 13.6018 12.1394 13.5881 12.1035L12.1902 8.43223C12.1392 8.29815 11.9518 8.29707 11.8992 8.43055L6.66319 21.7284C6.62239 21.832 6.69797 21.9445 6.80838 21.9445H9.90689C9.97222 21.9445 10.0307 21.9035 10.0534 21.8416L13.5888 12.2151Z" fill="#021198"/>
</g>
<line x1="51.5" y1="5" x2="51.5" y2="25" stroke="#FF002B"/>
<path d="M64.72 12L64.07 10.22H60.97L60.31 12H59.2L61.95 4.82H63.16L65.89 12H64.72ZM62.53 6.02L61.3 9.33H63.74L62.53 6.02ZM68.5869 12.11C67.1369 12.11 66.1169 10.97 66.1169 9.35C66.1169 7.75 67.1569 6.6 68.5869 6.6C69.8969 6.6 70.8469 7.47 71.0369 8.85H69.9769C69.8669 8 69.3369 7.49 68.5969 7.49C67.7269 7.49 67.1569 8.23 67.1569 9.35C67.1569 10.48 67.7269 11.21 68.5969 11.21C69.3469 11.21 69.8669 10.71 69.9869 9.85H71.0369C70.8569 11.25 69.9169 12.11 68.5869 12.11ZM75.2635 12V11.18C74.9335 11.77 74.3435 12.1 73.5635 12.1C72.4635 12.1 71.7435 11.47 71.7435 10.5C71.7435 9.46 72.5735 8.92 74.1535 8.92C74.4635 8.92 74.7135 8.93 75.1435 8.98V8.59C75.1435 7.83 74.7335 7.4 74.0335 7.4C73.2935 7.4 72.8435 7.84 72.8135 8.58H71.8935C71.9435 7.39 72.7935 6.6 74.0335 6.6C75.3435 6.6 76.1035 7.34 76.1035 8.6V12H75.2635ZM72.7035 10.47C72.7035 11.02 73.1135 11.38 73.7635 11.38C74.6135 11.38 75.1435 10.85 75.1435 10.04V9.61C74.7535 9.56 74.4735 9.55 74.2135 9.55C73.2035 9.55 72.7035 9.85 72.7035 10.47ZM77.0739 9.35C77.0739 7.74 77.9939 6.6 79.4239 6.6C80.1339 6.6 80.7539 6.96 81.1239 7.61V4.82H82.1339V12H81.1939V11.05C80.8139 11.72 80.1739 12.1 79.4239 12.1C77.9939 12.1 77.0739 10.94 77.0739 9.35ZM78.1239 9.35C78.1239 10.53 78.7439 11.2 79.6239 11.2C80.4839 11.2 81.1239 10.5 81.1239 9.33C81.1239 8.14 80.4639 7.49 79.6239 7.49C78.7439 7.49 78.1239 8.15 78.1239 9.35ZM85.7179 12.1C84.1879 12.1 83.1579 10.99 83.1579 9.32C83.1579 7.75 84.2279 6.6 85.6879 6.6C87.2679 6.6 88.3179 7.88 88.1379 9.6H84.1879C84.2679 10.68 84.8079 11.31 85.6979 11.31C86.4479 11.31 86.9679 10.9 87.1379 10.21H88.1379C87.8779 11.39 86.9679 12.1 85.7179 12.1ZM85.6679 7.36C84.8579 7.36 84.3079 7.94 84.1979 8.93H87.0679C87.0179 7.95 86.4879 7.36 85.6679 7.36ZM90.2217 12H89.2117V6.7H90.1517V7.58C90.5117 6.97 91.0817 6.6 91.8117 6.6C92.5917 6.6 93.1817 7 93.4217 7.7C93.7917 7.02 94.4017 6.6 95.2117 6.6C96.3017 6.6 97.0017 7.31 97.0017 8.57V12H95.9917V8.89C95.9917 8.01 95.6017 7.49 94.8617 7.49C94.1717 7.49 93.6117 8.07 93.6117 8.96V12H92.6017V8.89C92.6017 8.01 92.2117 7.49 91.4717 7.49C90.7717 7.49 90.2217 8.07 90.2217 8.96V12ZM102.557 6.7L99.907 13.93H98.807L99.567 11.93L97.477 6.7H98.567L100.107 10.74L101.537 6.7H102.557ZM107.584 12.1C106.084 12.1 104.984 10.92 104.984 9.35C104.984 7.78 106.084 6.6 107.584 6.6C109.084 6.6 110.184 7.78 110.184 9.35C110.184 10.92 109.084 12.1 107.584 12.1ZM107.584 11.21C108.454 11.21 109.144 10.51 109.144 9.35C109.144 8.19 108.454 7.5 107.584 7.5C106.714 7.5 106.034 8.19 106.034 9.35C106.034 10.51 106.714 11.21 107.584 11.21ZM112.557 12H111.547V7.56H110.377V6.7H111.547V6.31C111.547 5.29 112.097 4.73 113.097 4.73C113.397 4.73 113.637 4.78 113.837 4.86V5.68C113.677 5.61 113.497 5.59 113.317 5.59C112.837 5.59 112.557 5.81 112.557 6.32V6.7H114.037V7.56H112.557V12ZM62.63 25H61.53V18.81H59.19V17.82H64.97V18.81H62.63V25ZM67.339 25.1C65.809 25.1 64.779 23.99 64.779 22.32C64.779 20.75 65.849 19.6 67.309 19.6C68.889 19.6 69.939 20.88 69.759 22.6H65.809C65.889 23.68 66.429 24.31 67.319 24.31C68.069 24.31 68.589 23.9 68.759 23.21H69.759C69.499 24.39 68.589 25.1 67.339 25.1ZM67.289 20.36C66.479 20.36 65.929 20.94 65.819 21.93H68.689C68.639 20.95 68.109 20.36 67.289 20.36ZM72.8252 25.11C71.3752 25.11 70.3552 23.97 70.3552 22.35C70.3552 20.75 71.3952 19.6 72.8252 19.6C74.1352 19.6 75.0852 20.47 75.2752 21.85H74.2152C74.1052 21 73.5752 20.49 72.8352 20.49C71.9652 20.49 71.3952 21.23 71.3952 22.35C71.3952 23.48 71.9652 24.21 72.8352 24.21C73.5852 24.21 74.1052 23.71 74.2252 22.85H75.2752C75.0952 24.25 74.1552 25.11 72.8252 25.11ZM77.3018 22.01V25H76.2918V17.82H77.3018V20.55C77.6518 19.98 78.1918 19.6 78.9218 19.6C80.0118 19.6 80.7318 20.3 80.7318 21.57V25H79.7218V21.91C79.7218 21 79.3218 20.49 78.5718 20.49C77.8818 20.49 77.3018 21.07 77.3018 22.01ZM83.083 22.01V25H82.073V19.7H83.013V20.58C83.373 19.99 83.973 19.6 84.703 19.6C85.793 19.6 86.513 20.3 86.513 21.57V25H85.503V21.91C85.503 21 85.103 20.49 84.353 20.49C83.663 20.49 83.083 21.07 83.083 22.01ZM90.0743 25.1C88.5743 25.1 87.4743 23.92 87.4743 22.35C87.4743 20.78 88.5743 19.6 90.0743 19.6C91.5743 19.6 92.6743 20.78 92.6743 22.35C92.6743 23.92 91.5743 25.1 90.0743 25.1ZM90.0743 24.21C90.9443 24.21 91.6343 23.51 91.6343 22.35C91.6343 21.19 90.9443 20.5 90.0743 20.5C89.2043 20.5 88.5243 21.19 88.5243 22.35C88.5243 23.51 89.2043 24.21 90.0743 24.21ZM94.7239 25H93.7039V17.82H94.7239V25ZM98.3458 25.1C96.8458 25.1 95.7458 23.92 95.7458 22.35C95.7458 20.78 96.8458 19.6 98.3458 19.6C99.8458 19.6 100.946 20.78 100.946 22.35C100.946 23.92 99.8458 25.1 98.3458 25.1ZM98.3458 24.21C99.2158 24.21 99.9058 23.51 99.9058 22.35C99.9058 21.19 99.2158 20.5 98.3458 20.5C97.4758 20.5 96.7958 21.19 96.7958 22.35C96.7958 23.51 97.4758 24.21 98.3458 24.21ZM103.998 27.04C102.608 27.04 101.708 26.3 101.648 25.1H102.628C102.688 25.84 103.168 26.24 103.988 26.24C104.898 26.24 105.378 25.75 105.378 24.84V23.88C105.078 24.52 104.478 24.89 103.758 24.89C102.438 24.89 101.498 23.8 101.498 22.24C101.498 20.66 102.398 19.6 103.728 19.6C104.488 19.6 105.088 19.97 105.448 20.64V19.7H106.388V24.82C106.388 26.21 105.498 27.04 103.998 27.04ZM102.518 22.24C102.518 23.34 103.058 24.01 103.938 24.01C104.798 24.01 105.378 23.32 105.378 22.27C105.378 21.17 104.808 20.47 103.938 20.47C103.068 20.47 102.518 21.15 102.518 22.24ZM112.186 19.7L109.536 26.93H108.436L109.196 24.93L107.106 19.7H108.196L109.736 23.74L111.166 19.7H112.186Z" fill="white"/>
<defs>
<clipPath id="clip0_280_371">
<rect width="30" height="13.8889" fill="white" transform="translate(6.5 8.05566)"/>
</clipPath>
</defs>
</svg>
