<svg width="80" height="37" viewBox="0 0 80 37" fill="none" xmlns="http://www.w3.org/2000/svg">
<g clip-path="url(#clip0_514_6794)">
<path d="M79.3747 0H54.0581C53.6976 0 53.5072 0.428799 53.7481 0.698514L58.9793 6.56259C59.0581 6.65122 59.171 6.70182 59.2893 6.70182H62.7081C62.9381 6.70182 63.1247 6.88934 63.1247 7.12068V36.4411C63.1247 36.6725 63.3114 36.86 63.5414 36.86H70.3493C70.5793 36.86 70.766 36.6725 70.766 36.4411V7.12068C70.766 6.88934 70.9522 6.70182 71.1826 6.70182H79.3747C79.6047 6.70182 79.7914 6.51429 79.7914 6.28295V0.418864C79.7914 0.187532 79.6047 0 79.3747 0Z" fill="#FEFAE0"/>
<path fill-rule="evenodd" clip-rule="evenodd" d="M35.3216 32.1978C35.0923 32.4282 35.0168 32.7713 35.128 33.0774L36.2973 36.2975C36.3966 36.5708 36.1953 36.86 35.9059 36.86H30.0831C29.9078 36.86 29.7514 36.7498 29.6915 36.5843L16.6612 0.562006C16.5624 0.288832 16.7636 0 17.0528 0H22.8248C22.9998 0 23.1562 0.109952 23.2162 0.275227L28.2296 14.081C28.2646 14.1773 28.3557 14.2414 28.4576 14.2414C28.5673 14.2414 28.6631 14.1674 28.6931 14.0614C28.9325 13.2134 29.2439 12.3958 29.6202 11.6158C29.7807 11.2832 29.724 10.8824 29.464 10.621L27.8039 8.95221C27.4785 8.62503 27.4785 8.09462 27.8039 7.76749L32.518 3.02857C32.8434 2.70142 33.3711 2.70142 33.6965 3.02857L35.2761 4.61651C35.5413 4.88311 35.9499 4.93656 36.2835 4.76436C36.9482 4.42132 37.6417 4.12672 38.3594 3.88518C38.7115 3.7667 38.9579 3.44081 38.9579 3.06759V0.837727C38.9579 0.375063 39.331 0 39.7912 0H46.4579C46.9183 0 47.2912 0.375063 47.2912 0.837727V3.06759C47.2912 3.44081 47.5375 3.7667 47.8896 3.88518C48.6075 4.12672 49.3008 4.42132 49.9658 4.76436C50.2991 4.93656 50.7079 4.88311 50.9729 4.61651L52.5525 3.02857C52.8779 2.70142 53.4058 2.70142 53.7312 3.02857L58.4454 7.76745C58.7708 8.09462 58.7708 8.62503 58.4454 8.95221L56.785 10.621C56.525 10.8824 56.4683 11.2832 56.6287 11.6158C56.9404 12.2615 57.2075 12.933 57.4262 13.6261C57.54 13.9869 57.8671 14.2414 58.2437 14.2414H60.6246C61.085 14.2414 61.4579 14.6164 61.4579 15.0791V21.7809C61.4579 22.2436 61.085 22.6186 60.6246 22.6186H58.0825C57.7162 22.6186 57.3954 22.8596 57.2737 23.2066C57.0487 23.8469 56.7825 24.4673 56.4775 25.0646C56.3058 25.4 56.3591 25.8108 56.6246 26.0774L58.4454 27.9078C58.7708 28.235 58.7708 28.7654 58.4454 29.0925L53.7312 33.8315C53.4058 34.1586 52.8783 34.1586 52.5525 33.8315L50.6512 31.9201C50.3912 31.6587 49.9925 31.6018 49.6616 31.7631C49.0904 32.0416 48.4987 32.2848 47.8896 32.4898C47.5375 32.6083 47.2912 32.9342 47.2912 33.3074V36.0223C47.2912 36.485 46.9183 36.86 46.4579 36.86H39.7912C39.331 36.86 38.9579 36.485 38.9579 36.0223V33.3074C38.9579 32.9342 38.7115 32.6083 38.3594 32.4898C37.7504 32.2848 37.1587 32.0416 36.5873 31.7631C36.2565 31.6018 35.8578 31.6587 35.5978 31.9201L35.3216 32.1978ZM51.4579 18.1875C51.4579 22.8141 47.7271 26.5648 43.1246 26.5648C38.5222 26.5648 34.7912 22.8141 34.7912 18.1875C34.7912 13.5608 38.5222 9.81021 43.1246 9.81021C47.7271 9.81021 51.4579 13.5608 51.4579 18.1875Z" fill="#FEFAE0"/>
<path d="M18.9035 11.0388C18.9388 10.9432 18.9381 10.838 18.9017 10.7428L15.1739 0.999458C15.0378 0.643634 14.538 0.640777 14.3979 0.995022L0.43518 36.2864C0.326369 36.5614 0.527921 36.86 0.82235 36.86H9.08505C9.25925 36.86 9.41509 36.751 9.47567 36.5868L18.9035 11.0388Z" fill="#FEFAE0"/>
</g>
<defs>
<clipPath id="clip0_514_6794">
<rect width="80" height="36.86" fill="white"/>
</clipPath>
</defs>
</svg>
