<svg width="150" height="40" viewBox="0 0 150 40" fill="none" xmlns="http://www.w3.org/2000/svg">
<rect x="0.5" y="0.5" width="149" height="39" rx="19.5" fill="#FF002B" stroke="#010100"/>
<path d="M58.8171 23.464V25H51.5371V13.512H58.7051V15.048H53.2971V18.312H58.2251V19.848H53.2971V23.464H58.8171ZM67.7928 16.52L64.6088 25H62.8488L59.6648 16.52H61.4088L63.7608 23.144L66.1448 16.52H67.7928ZM72.1627 25.16C69.7147 25.16 68.0667 23.384 68.0667 20.712C68.0667 18.2 69.7787 16.36 72.1147 16.36C74.6427 16.36 76.3227 18.408 76.0347 21.16H69.7147C69.8427 22.888 70.7067 23.896 72.1307 23.896C73.3307 23.896 74.1627 23.24 74.4347 22.136H76.0347C75.6187 24.024 74.1627 25.16 72.1627 25.16ZM72.0827 17.576C70.7867 17.576 69.9067 18.504 69.7307 20.088H74.3227C74.2427 18.52 73.3947 17.576 72.0827 17.576ZM79.3688 20.216V25H77.7528V16.52H79.2568V17.928C79.8328 16.984 80.7928 16.36 81.9608 16.36C83.7048 16.36 84.8568 17.48 84.8568 19.512V25H83.2408V20.056C83.2408 18.6 82.6008 17.784 81.4008 17.784C80.2968 17.784 79.3688 18.712 79.3688 20.216ZM91.7556 23.432V24.856C91.2596 25.08 90.8276 25.16 90.3156 25.16C88.7476 25.16 87.6596 24.312 87.6596 22.44V17.896H85.7876V16.52H87.6596V14.008H89.2756V16.52H91.8356V17.896H89.2756V22.072C89.2756 23.24 89.8356 23.656 90.6996 23.656C91.0836 23.656 91.4196 23.592 91.7556 23.432ZM100.067 22.472C100.067 24.136 98.7706 25.16 96.5146 25.16C94.2746 25.16 92.9466 24.056 92.7866 22.232H94.3386C94.4026 23.288 95.2506 23.944 96.5466 23.944C97.6826 23.944 98.4346 23.544 98.4346 22.744C98.4346 22.04 98.0026 21.736 96.9466 21.528L95.5706 21.272C94.0026 20.968 93.1226 20.168 93.1226 18.888C93.1226 17.4 94.4186 16.36 96.3866 16.36C98.4186 16.36 99.7946 17.448 99.9386 19.192H98.3866C98.2906 18.168 97.5386 17.576 96.4026 17.576C95.3786 17.576 94.6906 18.008 94.6906 18.744C94.6906 19.432 95.1226 19.752 96.1466 19.944L97.5866 20.216C99.2666 20.52 100.067 21.256 100.067 22.472Z" fill="#FEFAE0"/>
</svg>
