<svg width="75" height="156" viewBox="0 0 75 156" fill="none" xmlns="http://www.w3.org/2000/svg">
<rect x="38.4556" y="0.605771" width="149" height="39" rx="19.5" transform="rotate(76.0532 38.4556 0.605771)" fill="#FF002B" stroke="#010100"/>
<path d="M20.774 24.2043L20.196 22.0568L16.3335 23.0964L15.876 21.3969L26.9692 18.411L28.0047 22.2581C28.6742 24.7456 27.8398 26.6934 25.5223 27.3172C23.1893 27.9451 21.4436 26.6918 20.774 24.2043ZM26.5637 22.6294L25.9898 20.4973L21.6329 21.67L22.2067 23.8021C22.6101 25.3008 23.6743 25.992 25.0494 25.6218C26.4245 25.2517 26.9671 24.1281 26.5637 22.6294ZM19.1493 34.1734C18.513 31.8095 19.7996 29.7565 22.3798 29.0621C24.8055 28.4092 27.0272 29.5841 27.6344 31.8398C28.2914 34.2809 26.7505 36.4355 24.0182 36.8727L22.3755 30.7699C20.7402 31.3426 19.9914 32.4389 20.3615 33.8139C20.6734 34.9727 21.5231 35.6056 22.6599 35.5813L23.0757 37.1263C21.1445 37.2153 19.6691 36.1046 19.1493 34.1734ZM26.4518 32.125C26.115 30.8735 24.9902 30.2649 23.4149 30.5067L24.6084 34.9409C26.1017 34.4561 26.7928 33.3919 26.4518 32.125ZM21.4682 42.7886C20.8319 40.4248 22.1185 38.3718 24.6987 37.6773C27.1244 37.0244 29.3461 38.1993 29.9533 40.455C30.6103 42.8962 29.0694 45.0507 26.3371 45.4879L24.6944 39.3851C23.0591 39.9578 22.3103 41.0541 22.6804 42.4292C22.9923 43.588 23.842 44.2209 24.9788 44.1966L25.3946 45.7416C23.4634 45.8306 21.988 44.7199 21.4682 42.7886ZM28.7707 40.7402C28.4339 39.4887 27.3091 38.8802 25.7338 39.1219L26.9273 43.5561C28.4206 43.0713 29.1117 42.0071 28.7707 40.7402ZM27.6826 48.5785L23.4956 49.7055L23.0756 48.145L31.2642 45.941L31.6551 47.3933L29.9247 47.8591C31.2064 48.1271 32.2498 49.1719 32.6116 50.516L30.9893 50.9527C30.608 49.1664 29.4903 48.092 27.6826 48.5785ZM27.5458 64.7526L34.6413 56.5795L25.9738 58.9124L25.5496 57.3365L36.6428 54.3507L37.1418 56.2047L30.2406 64.1764L38.6764 61.9058L39.1005 63.4817L28.0074 66.4676L27.5458 64.7526ZM29.3711 72.1499C28.7349 69.786 30.0215 67.733 32.6017 67.0386C35.0273 66.3857 37.2491 67.5606 37.8562 69.8163C38.5133 72.2574 36.9723 74.412 34.24 74.8492L32.5974 68.7464C30.9621 69.3191 30.2133 70.4154 30.5834 71.7905C30.8953 72.9492 31.745 73.5821 32.8817 73.5578L33.2976 75.1028C31.3663 75.1918 29.891 74.0811 29.3711 72.1499ZM36.6737 70.1015C36.3369 68.85 35.212 68.2414 33.6367 68.4832L34.8302 72.9174C36.3236 72.4326 37.0147 71.3684 36.6737 70.1015ZM33.728 81.6882L32.3529 82.0583C32.0077 81.6376 31.8182 81.2412 31.6851 80.7468C31.2776 79.2327 31.8136 77.9617 33.6213 77.4751L38.0091 76.2941L37.5226 74.4864L38.8513 74.1288L39.3378 75.9364L41.7635 75.2835L42.1835 76.844L39.7579 77.4969L40.4232 79.9689L39.0945 80.3265L38.4291 77.8545L34.3967 78.9399C33.2688 79.2435 33.0127 79.8924 33.2372 80.7267C33.337 81.0975 33.4862 81.4053 33.728 81.6882ZM34.457 90.4294L40.0453 86.9369L33.4548 86.7059L33.0306 85.13L40.5829 80.562L40.9946 82.0916L35.4758 85.35L41.9386 85.5988L42.3544 87.1438L36.866 90.5763L43.2901 90.6201L43.706 92.1651L34.877 91.9898L34.457 90.4294ZM36.58 98.9325C35.9562 96.615 37.3219 94.4248 39.7476 93.7719C42.1732 93.119 44.4538 94.3278 45.0776 96.6453C45.7014 98.9628 44.3357 101.153 41.91 101.806C39.4844 102.459 37.2038 101.25 36.58 98.9325ZM37.9551 98.5624C38.3169 99.9066 39.6853 100.682 41.4775 100.199C43.2698 99.7167 44.0489 98.3637 43.6871 97.0196C43.3253 95.6754 41.9764 94.9118 40.1842 95.3942C38.392 95.8766 37.5933 97.2183 37.9551 98.5624ZM42.8509 104.932L38.664 106.059L38.2439 104.499L46.4325 102.295L46.8234 103.747L45.093 104.213C46.3747 104.481 47.4181 105.526 47.7799 106.87L46.1576 107.306C45.7763 105.52 44.6586 104.446 42.8509 104.932ZM40.2356 111.898L39.8156 110.338L50.9088 107.352L51.3288 108.912L44.7625 110.68L49.3682 113.201L49.863 115.04L44.8735 112.323L41.7701 117.599L41.2295 115.591L44.1136 110.854L40.2356 111.898ZM52.6659 117.881C52.0788 118.039 51.506 117.696 51.3272 117.032C51.1483 116.368 51.4675 115.768 52.0546 115.61C52.6571 115.448 53.2187 115.811 53.3975 116.475C53.5763 117.139 53.2684 117.719 52.6659 117.881ZM42.4855 120.257L42.0655 118.697L50.254 116.493L50.674 118.053L42.4855 120.257ZM48.1082 122.74L43.4886 123.984L43.0686 122.423L51.2571 120.219L51.648 121.672L50.2884 122.038C51.3497 122.348 52.2018 123.113 52.5053 124.241C52.9586 125.925 52.1765 127.329 50.2144 127.857L44.915 129.283L44.495 127.723L49.269 126.438C50.675 126.059 51.2966 125.229 50.9847 124.07C50.6978 123.004 49.5605 122.349 48.1082 122.74ZM43.2025 135.479C42.6245 133.332 43.3935 131.633 45.2226 131.042L45.6301 132.556C44.5118 132.956 44.0934 133.864 44.4344 135.131C44.8128 136.537 45.7695 137.075 47.1755 136.696L48.6587 136.297C47.5451 136.1 46.7239 135.327 46.4245 134.214C45.8756 132.175 47.1687 130.269 49.5789 129.621C52.0201 128.963 54.0321 129.913 54.5851 131.968C54.9012 133.142 54.5791 134.223 53.6936 135.058L55.1459 134.667L55.5368 136.119L47.6264 138.249C45.4788 138.827 43.8263 137.797 43.2025 135.479ZM50.0031 131.196C48.3036 131.654 47.493 132.767 47.859 134.126C48.2166 135.455 49.5239 136.064 51.1461 135.628C52.8456 135.17 53.6901 133.998 53.3283 132.654C52.9665 131.31 51.6872 130.743 50.0031 131.196Z" fill="#FEFAE0"/>
</svg>
