<svg width="62" height="155" viewBox="0 0 62 155" fill="none" xmlns="http://www.w3.org/2000/svg">
<rect x="39.1461" y="0.567914" width="149" height="39" rx="19.5" transform="rotate(81.5679 39.1461 0.567914)" fill="#FF002B" stroke="#010100"/>
<path d="M24.5106 47.6797L24.1711 45.4818L20.218 46.0924L19.9493 44.3531L31.3026 42.5992L31.9109 46.5365C32.3041 49.0823 31.2615 50.9271 28.8897 51.2935C26.502 51.6624 24.9039 50.2255 24.5106 47.6797ZM30.4379 46.7479L30.1008 44.5658L25.6417 45.2546L25.9787 47.4367C26.2157 48.9705 27.1979 49.774 28.6052 49.5566C30.0125 49.3392 30.6748 48.2817 30.4379 46.7479ZM25.9859 55.029L21.7007 55.6909L21.454 54.0939L29.8346 52.7993L30.0642 54.2857L28.2932 54.5592C29.5379 54.966 30.4607 56.1186 30.6732 57.4943L29.0129 57.7508C28.8293 55.9335 27.836 54.7432 25.9859 55.029ZM33.0031 60.4198C32.4023 60.5126 31.8704 60.1091 31.7654 59.4291C31.6604 58.7492 32.0432 58.1882 32.6441 58.0953C33.2608 58.0001 33.7792 58.4219 33.8843 59.1018C33.9893 59.7817 33.6198 60.3245 33.0031 60.4198ZM22.6239 61.6669L22.3772 60.0699L30.7578 58.7753L31.0045 60.3723L22.6239 61.6669ZM23.9459 70.2248L22.8784 63.3148L24.1276 63.1218L30.6186 66.9922L29.8956 62.3117L31.2712 62.0992L32.302 68.7721L31.0212 68.9699L24.5777 65.0922L25.3374 70.0099L23.9459 70.2248ZM24.5406 75.1228C24.1669 72.7035 25.6704 70.8037 28.3111 70.3958C30.7937 70.0123 32.8735 71.4233 33.2301 73.7319C33.616 76.2303 31.8485 78.2032 29.0848 78.3388L28.12 72.0928C26.4318 72.4831 25.5675 73.4909 25.7849 74.8982C25.9681 76.0841 26.7434 76.8062 27.876 76.9065L28.1203 78.4878C26.1909 78.3649 24.8459 77.0994 24.5406 75.1228ZM32.0235 73.8859C31.8256 72.6051 30.7741 71.8771 29.1818 71.945L29.8829 76.4832C31.4203 76.1647 32.2238 75.1826 32.0235 73.8859ZM30.9784 87.9768C28.4484 88.3676 26.4052 87.1938 26.0584 84.9484C25.8825 83.8099 26.3028 82.7574 27.2219 82.0002L22.747 82.6915L22.5003 81.0944L33.9327 79.3284L34.1623 80.8147L32.6285 81.0517C33.7966 81.4865 34.572 82.419 34.7552 83.6049C35.0997 85.8345 33.5084 87.586 30.9784 87.9768ZM30.7219 86.3165C32.6036 86.0258 33.5091 84.866 33.2966 83.4903C33.0915 82.162 31.8708 81.2821 29.9891 81.5727C28.1391 81.8585 27.2226 83.0524 27.4302 84.3965C27.6427 85.7722 28.8402 86.6071 30.7219 86.3165ZM27.4224 93.778C27.056 91.4062 28.6531 89.3786 31.1357 88.9951C33.6183 88.6116 35.7528 90.0627 36.1192 92.4346C36.4856 94.8065 34.8884 96.8341 32.4059 97.2175C29.9233 97.601 27.7888 96.1499 27.4224 93.778ZM28.8297 93.5606C29.0422 94.9363 30.3176 95.8564 32.1518 95.5731C33.9861 95.2897 34.9086 94.0301 34.6961 92.6544C34.4836 91.2787 33.2264 90.372 31.3922 90.6554C29.5579 90.9387 28.6172 92.185 28.8297 93.5606ZM28.8512 103.028C28.4848 100.656 30.082 98.6282 32.5645 98.2447C35.0471 97.8612 37.1817 99.3124 37.5481 101.684C37.9144 104.056 36.3173 106.084 33.8347 106.467C31.3522 106.851 29.2176 105.4 28.8512 103.028ZM30.2585 102.81C30.471 104.186 31.7464 105.106 33.5807 104.823C35.4149 104.539 36.3374 103.28 36.1249 101.904C35.9124 100.528 34.6553 99.6217 32.821 99.905C30.9868 100.188 30.046 101.435 30.2585 102.81ZM30.1451 110.355L29.8959 108.743L41.2493 106.989L41.4984 108.602L30.1451 110.355Z" fill="#FEFAE0"/>
</svg>
