<svg width="63" height="155" viewBox="0 0 63 155" fill="none" xmlns="http://www.w3.org/2000/svg">
<rect x="39.0922" y="0.572046" width="149" height="39" rx="19.5" transform="rotate(81.0021 39.0922 0.572046)" fill="#FF002B" stroke="#010100"/>
<path d="M26.5734 62.1904C24.5986 62.5074 22.8443 61.1685 22.403 58.4197C21.9643 55.6867 23.1989 53.787 25.4351 53.2822L25.7191 55.0516C24.2942 55.3613 23.5092 56.4272 23.7882 58.165C24.0189 59.6026 24.8707 60.5678 26.0397 60.3801C26.9876 60.228 27.3626 59.5358 27.4365 58.1789L27.4887 56.4853C27.5486 54.839 28.121 53.2562 30.0483 52.9469C31.9598 52.64 33.6662 54.0838 34.044 56.4377C34.4219 58.7916 33.2708 60.8075 31.0346 61.3123L30.7506 59.5429C32.094 59.2301 32.8846 58.0985 32.6564 56.6767C32.4205 55.2075 31.4223 54.5412 30.4429 54.6985C29.3686 54.8709 29.1391 55.8638 29.0878 56.9578L29.0249 58.6856C28.9418 60.6921 28.2637 61.9191 26.5734 62.1904ZM24.6568 71.4506L30.5768 68.5558L24.0457 67.6434L23.787 66.032L31.7718 62.2709L32.0229 63.8349L26.1963 66.5041L32.5985 67.421L32.8521 69.0008L27.0376 71.8463L33.4227 72.5553L33.6762 74.1351L24.9129 73.0462L24.6568 71.4506ZM26.2843 81.5895L27.5797 81.3815C26.5639 81.0098 25.893 80.1614 25.6952 78.9292C25.4162 77.1914 26.2289 75.8942 27.7613 75.6483C29.4043 75.3845 30.4678 76.5588 30.8685 79.0549C30.9471 79.5446 30.9947 79.9421 31.0248 80.6341L31.6409 80.5352C32.8415 80.3424 33.4168 79.5857 33.2393 78.4798C33.0517 77.3108 32.2425 76.7115 31.0658 76.8517L30.8325 75.3983C32.7251 75.1756 34.1887 76.3181 34.5031 78.277C34.8353 80.3465 33.859 81.7348 31.8685 82.0543L26.4973 82.9165L26.2843 81.5895ZM28.0521 77.1572C27.1833 77.2967 26.7185 78.0357 26.8833 79.0626C27.0989 80.4054 28.0706 81.1083 29.3502 80.9029L30.0295 80.7938C30.0096 80.165 29.9544 79.7201 29.8884 79.3094C29.6323 77.7138 29.0316 77 28.0521 77.1572ZM24.1545 88.9162C23.8021 86.7203 24.7429 85.1109 26.6234 84.7118L26.8719 86.26C25.7181 86.5424 25.2079 87.4021 25.4158 88.6976C25.6466 90.1352 26.5424 90.7692 27.98 90.5384L29.4966 90.295C28.4095 89.9833 27.6728 89.1293 27.4902 87.9919C27.1555 85.9066 28.6391 84.1452 31.1035 83.7496C33.5996 83.3489 35.5024 84.5019 35.8396 86.603C36.0323 87.8037 35.6 88.8453 34.6328 89.584L36.1178 89.3456L36.3562 90.8306L28.2677 92.1289C26.0718 92.4814 24.5349 91.2859 24.1545 88.9162ZM31.3622 85.3609C29.6244 85.6399 28.7029 86.6629 28.9261 88.0531C29.1441 89.4117 30.3813 90.153 32.04 89.8867C33.7778 89.6078 34.7391 88.5298 34.5185 87.1554C34.2979 85.781 33.0841 85.0845 31.3622 85.3609ZM31.899 100.618C30.256 100.882 29.0396 99.7642 28.682 97.5367C28.327 95.3251 29.2066 93.8389 30.9822 93.3918L31.2282 94.9242C30.1956 95.1547 29.6823 96.096 29.8877 97.3756C30.0678 98.4973 30.5819 99.1764 31.3718 99.0496C32.0669 98.938 32.2986 98.4633 32.3366 97.3876L32.3713 95.9885C32.4229 94.3921 33.0733 93.3964 34.3372 93.1936C35.8064 92.9577 37.0386 94.0725 37.3505 96.0157C37.6726 98.022 36.8164 99.553 35.1173 99.9716L34.8713 98.4392C35.8671 98.1821 36.3325 97.3458 36.1524 96.2242C35.9901 95.2131 35.4546 94.6023 34.7279 94.7189C34.0486 94.828 33.8011 95.3052 33.7738 96.3467L33.7334 97.8116C33.6996 99.5186 33.0996 100.425 31.899 100.618Z" fill="#FEFAE0"/>
</svg>
