<svg width="150" height="40" viewBox="0 0 150 40" fill="none" xmlns="http://www.w3.org/2000/svg">
<rect x="0.5" y="0.5" width="149" height="39" rx="19.5" fill="#FF002B" stroke="#010100"/>
<path d="M48 25L45.568 15.992L43.12 25H41.312L38.32 13.512H40.048L42.256 22.36L44.672 13.512H46.496L48.88 22.376L51.088 13.512H52.816L49.824 25H48ZM57.0939 25.16C54.6939 25.16 52.9339 23.272 52.9339 20.76C52.9339 18.248 54.6939 16.36 57.0939 16.36C59.4939 16.36 61.2539 18.248 61.2539 20.76C61.2539 23.272 59.4939 25.16 57.0939 25.16ZM57.0939 23.736C58.4859 23.736 59.5899 22.616 59.5899 20.76C59.5899 18.904 58.4859 17.8 57.0939 17.8C55.7019 17.8 54.6139 18.904 54.6139 20.76C54.6139 22.616 55.7019 23.736 57.0939 23.736ZM64.5173 20.664V25H62.9013V16.52H64.4053V18.312C64.9973 17.144 66.2773 16.408 67.6693 16.408V18.088C65.8453 17.992 64.5173 18.792 64.5173 20.664ZM70.5641 25H68.9481V13.512H70.5641V20.312L74.1961 16.52H76.1001L72.1801 20.632L76.4681 25H74.3881L70.5641 20.984V25ZM84.0119 22.472C84.0119 24.136 82.7159 25.16 80.4599 25.16C78.2199 25.16 76.8919 24.056 76.7319 22.232H78.2839C78.3479 23.288 79.1959 23.944 80.4919 23.944C81.6279 23.944 82.3799 23.544 82.3799 22.744C82.3799 22.04 81.9479 21.736 80.8919 21.528L79.5159 21.272C77.9479 20.968 77.0679 20.168 77.0679 18.888C77.0679 17.4 78.3639 16.36 80.3319 16.36C82.3639 16.36 83.7399 17.448 83.8839 19.192H82.3319C82.2359 18.168 81.4839 17.576 80.3479 17.576C79.3239 17.576 78.6359 18.008 78.6359 18.744C78.6359 19.432 79.0679 19.752 80.0919 19.944L81.5319 20.216C83.2119 20.52 84.0119 21.256 84.0119 22.472ZM87.3923 20.216V25H85.7763V13.512H87.3923V17.88C87.9523 16.968 88.8163 16.36 89.9843 16.36C91.7283 16.36 92.8802 17.48 92.8802 19.512V25H91.2643V20.056C91.2643 18.6 90.6243 17.784 89.4243 17.784C88.3203 17.784 87.3923 18.712 87.3923 20.216ZM98.5783 25.16C96.1783 25.16 94.4183 23.272 94.4183 20.76C94.4183 18.248 96.1783 16.36 98.5783 16.36C100.978 16.36 102.738 18.248 102.738 20.76C102.738 23.272 100.978 25.16 98.5783 25.16ZM98.5783 23.736C99.9703 23.736 101.074 22.616 101.074 20.76C101.074 18.904 99.9703 17.8 98.5783 17.8C97.1863 17.8 96.0983 18.904 96.0983 20.76C96.0983 22.616 97.1863 23.736 98.5783 23.736ZM112.482 20.76C112.482 23.32 111.01 25.16 108.738 25.16C107.586 25.16 106.61 24.584 106.002 23.56V28.088H104.386V16.52H105.89V18.072C106.498 16.984 107.538 16.36 108.738 16.36C110.994 16.36 112.482 18.2 112.482 20.76ZM110.802 20.76C110.802 18.856 109.794 17.784 108.402 17.784C107.058 17.784 106.002 18.856 106.002 20.76C106.002 22.632 107.042 23.72 108.402 23.72C109.794 23.72 110.802 22.664 110.802 20.76Z" fill="#FEFAE0"/>
</svg>
