<svg width="150" height="40" viewBox="0 0 150 40" fill="none" xmlns="http://www.w3.org/2000/svg">
<rect x="0.5" y="0.5" width="149" height="39" rx="19.5" fill="#FF002B" stroke="#010100"/>
<path d="M34.4846 25H32.7246V13.512H39.7006V15.048H34.4846V18.792H38.9326V20.328H34.4846V25ZM46.5176 21.512V16.52H48.1336V25H46.6296V23.656C46.1816 24.536 45.1896 25.16 44.0376 25.16C42.3256 25.16 41.1416 24.152 41.1416 21.976V16.52H42.7576V21.656C42.7576 23.128 43.4936 23.736 44.5496 23.736C45.6376 23.736 46.5176 22.84 46.5176 21.512ZM51.9938 20.216V25H50.3778V16.52H51.8818V17.928C52.4578 16.984 53.4178 16.36 54.5858 16.36C56.3298 16.36 57.4818 17.48 57.4818 19.512V25H55.8658V20.056C55.8658 18.6 55.2258 17.784 54.0258 17.784C52.9218 17.784 51.9938 18.712 51.9938 20.216ZM71.0036 25L69.9636 22.152H65.0036L63.9476 25H62.1716L66.5716 13.512H68.5076L72.8756 25H71.0036ZM67.4996 15.432L65.5316 20.728H69.4356L67.4996 15.432ZM77.1906 25.176C74.8706 25.176 73.2386 23.352 73.2386 20.76C73.2386 18.2 74.9026 16.36 77.1906 16.36C79.2866 16.36 80.8066 17.752 81.1106 19.96H79.4146C79.2386 18.6 78.3906 17.784 77.2066 17.784C75.8146 17.784 74.9026 18.968 74.9026 20.76C74.9026 22.568 75.8146 23.736 77.2066 23.736C78.4066 23.736 79.2386 22.936 79.4306 21.56H81.1106C80.8226 23.8 79.3186 25.176 77.1906 25.176ZM87.5212 23.432V24.856C87.0252 25.08 86.5932 25.16 86.0812 25.16C84.5132 25.16 83.4252 24.312 83.4252 22.44V17.896H81.5532V16.52H83.4252V14.008H85.0412V16.52H87.6012V17.896H85.0412V22.072C85.0412 23.24 85.6012 23.656 86.4652 23.656C86.8492 23.656 87.1852 23.592 87.5212 23.432ZM91.1114 14.552C91.1114 15.16 90.6314 15.624 89.9434 15.624C89.2554 15.624 88.7594 15.16 88.7594 14.552C88.7594 13.928 89.2554 13.48 89.9434 13.48C90.6314 13.48 91.1114 13.928 91.1114 14.552ZM90.7594 25H89.1434V16.52H90.7594V25ZM100.043 16.52L96.8588 25H95.0988L91.9148 16.52H93.6588L96.0108 23.144L98.3948 16.52H100.043ZM103.158 14.552C103.158 15.16 102.678 15.624 101.99 15.624C101.302 15.624 100.806 15.16 100.806 14.552C100.806 13.928 101.302 13.48 101.99 13.48C102.678 13.48 103.158 13.928 103.158 14.552ZM102.806 25H101.19V16.52H102.806V25ZM109.834 23.432V24.856C109.338 25.08 108.906 25.16 108.394 25.16C106.826 25.16 105.738 24.312 105.738 22.44V17.896H103.866V16.52H105.738V14.008H107.354V16.52H109.914V17.896H107.354V22.072C107.354 23.24 107.914 23.656 108.778 23.656C109.162 23.656 109.498 23.592 109.834 23.432ZM118.496 16.52L114.256 28.088H112.496L113.712 24.888L110.368 16.52H112.112L114.576 22.984L116.864 16.52H118.496Z" fill="#FEFAE0"/>
</svg>
