<svg width="32" height="32" viewBox="0 0 32 32" fill="none" xmlns="http://www.w3.org/2000/svg">
<mask id="mask0_1649_7625" style="mask-type:alpha" maskUnits="userSpaceOnUse" x="0" y="0" width="32" height="32">
<rect width="32" height="32" fill="#D9D9D9"/>
</mask>
<g mask="url(#mask0_1649_7625)">
<path d="M2.66699 29.3333L9.33366 10.6667L21.3337 22.6667L2.66699 29.3333ZM7.06699 24.9333L16.467 21.6L10.4003 15.5333L7.06699 24.9333ZM19.4003 16.7333L18.0003 15.3333L25.467 7.86667C26.1781 7.15556 27.0337 6.8 28.0337 6.8C29.0337 6.8 29.8892 7.15556 30.6003 7.86667L31.4003 8.66667L30.0003 10.0667L29.2003 9.26667C28.8892 8.95556 28.5003 8.8 28.0337 8.8C27.567 8.8 27.1781 8.95556 26.867 9.26667L19.4003 16.7333ZM14.067 11.4L12.667 10L13.467 9.2C13.7781 8.88889 13.9337 8.51111 13.9337 8.06667C13.9337 7.62222 13.7781 7.24444 13.467 6.93333L12.6003 6.06667L14.0003 4.66667L14.867 5.53333C15.5781 6.24444 15.9337 7.08889 15.9337 8.06667C15.9337 9.04445 15.5781 9.88889 14.867 10.6L14.067 11.4ZM16.7337 14.0667L15.3337 12.6667L20.1337 7.86667C20.4448 7.55556 20.6003 7.16667 20.6003 6.7C20.6003 6.23333 20.4448 5.84444 20.1337 5.53333L18.0003 3.4L19.4003 2L21.5337 4.13333C22.2448 4.84444 22.6003 5.7 22.6003 6.7C22.6003 7.7 22.2448 8.55556 21.5337 9.26667L16.7337 14.0667ZM22.067 19.4L20.667 18L22.8003 15.8667C23.5114 15.1556 24.367 14.8 25.367 14.8C26.367 14.8 27.2225 15.1556 27.9337 15.8667L30.067 18L28.667 19.4L26.5337 17.2667C26.2226 16.9556 25.8337 16.8 25.367 16.8C24.9003 16.8 24.5114 16.9556 24.2003 17.2667L22.067 19.4Z" fill="#FEFAE0"/>
</g>
</svg>
