<svg width="100" height="85" viewBox="0 0 100 85" fill="none" xmlns="http://www.w3.org/2000/svg">
<path d="M44.9012 25.1221C45.2442 25.2096 45.3739 25.323 45.5835 25.6069C45.672 25.8519 45.672 25.8519 45.6668 26.1074C45.4517 26.4738 45.1978 26.764 44.896 27.0614C44.7845 27.1722 44.7845 27.1722 44.6707 27.2852C44.486 27.4634 44.2949 27.632 44.1004 27.7994C43.7147 28.1345 43.3581 28.4956 43.0002 28.8599C42.5955 29.2719 42.1876 29.67 41.7498 30.0466C41.4445 30.3181 41.1612 30.6119 40.8752 30.9035C40.4841 31.302 40.0889 31.6861 39.6661 32.0507C39.375 32.3062 39.0988 32.5761 38.8231 32.848C38.7667 32.9021 38.7103 32.9561 38.6522 33.0118C38.2366 33.4225 37.9457 33.8531 37.6668 34.3651C37.6263 34.4386 37.5858 34.5122 37.544 34.588C37.4153 34.8241 37.2883 35.061 37.1616 35.2982C36.7913 35.9877 36.4135 36.6722 36.0262 37.3522C35.6661 37.9851 35.3194 38.6227 34.9843 39.2691C34.6647 39.8823 34.3234 40.4825 33.9814 41.0833C33.5838 41.7834 33.2044 42.492 32.8335 43.2067C33.1758 43.6115 33.5275 44.004 33.8908 44.3901C33.9942 44.5005 34.0976 44.6109 34.201 44.7214C34.2771 44.8027 34.2771 44.8027 34.3547 44.8857C34.6353 45.1867 34.9125 45.4908 35.1899 45.7947C35.3934 46.0173 35.598 46.2389 35.8028 46.4602C36.2353 46.9279 36.6633 47.3989 37.0835 47.8777C37.2267 47.843 37.2267 47.843 37.3729 47.8076C37.5004 47.7771 37.6279 47.7466 37.7554 47.7161C37.8181 47.7009 37.8807 47.6856 37.9453 47.67C39.0741 47.401 40.131 47.4394 41.2762 47.5857C44.0155 47.9057 47.2497 47.363 49.5773 45.7647C49.8913 45.512 50.2157 45.2093 50.2729 44.7924C50.2882 44.444 50.2905 44.2643 50.0835 43.973C49.882 43.8259 49.7125 43.7278 49.4897 43.6237C49.1872 43.4809 49.04 43.3636 48.9168 43.0398C48.8752 42.7896 48.8752 42.7896 48.9168 42.5394C49.1118 42.2811 49.2608 42.1504 49.5627 42.0337C50.1817 42.0456 50.7946 42.4332 51.2349 42.8492C51.7079 43.3484 51.9181 43.8386 51.9533 44.5256C51.9219 45.3697 51.595 46.1157 51.0002 46.7099C48.8375 48.6104 45.1847 49.4413 42.386 49.3103C41.973 49.2827 41.5656 49.2237 41.1558 49.166C40.2272 49.0614 39.2662 49.1165 38.3335 49.1289C38.4374 49.2611 38.5416 49.3931 38.646 49.5251C38.704 49.5986 38.762 49.6721 38.8218 49.7479C38.9937 49.9634 38.9937 49.9634 39.1841 50.1392C39.4062 50.3731 39.4113 50.5638 39.4168 50.8805C39.0824 51.5532 38.4313 52.0572 37.8677 52.538C37.6949 52.6908 37.5267 52.8466 37.3592 53.0052C37.3037 53.0577 37.2482 53.1102 37.191 53.1643C37.0793 53.2702 36.9678 53.3765 36.8567 53.4831C36.8048 53.5323 36.7529 53.5814 36.6994 53.6321C36.6298 53.6986 36.6298 53.6986 36.5588 53.7664C36.2943 53.9842 36.1388 54.0521 35.7918 54.0397C35.4714 53.9595 35.3583 53.8984 35.1668 53.6331C35.0804 53.3922 35.0689 53.265 35.1421 53.0195C35.271 52.7565 35.4256 52.596 35.6356 52.3923C35.7477 52.2834 35.7477 52.2834 35.8621 52.1724C36.1519 51.9007 36.4481 51.6387 36.7502 51.381C36.8753 51.2716 37.0003 51.1622 37.1252 51.0525C37.2224 50.9674 37.3196 50.8822 37.4168 50.7971C37.2979 50.4152 37.1048 50.2106 36.8179 49.9369C36.4939 49.6262 36.194 49.3072 35.9006 48.9673C35.6562 48.6877 35.4009 48.4187 35.146 48.1488C34.6958 47.6701 34.2491 47.1888 33.8062 46.7034C33.4418 46.3046 33.0751 45.908 32.7087 45.5111C32.5864 45.3785 32.4641 45.2456 32.342 45.1127C31.6769 44.3898 31.0059 43.6725 30.3335 42.9564C29.9295 43.2475 29.5635 43.5434 29.2189 43.9052C28.0716 45.0745 28.0716 45.0745 27.5522 45.1043C27.2502 45.0417 27.2502 45.0417 27.047 44.9114C26.8736 44.6406 26.8391 44.4451 26.8335 44.1242C27.0285 43.6868 27.3936 43.3942 27.7397 43.0763C27.8341 42.9886 27.8341 42.9886 27.9304 42.8992C28.0586 42.7801 28.1871 42.6613 28.3157 42.5427C28.4843 42.3872 28.6522 42.231 28.8198 42.0744C28.9146 41.9861 29.0095 41.8978 29.1043 41.8095C29.147 41.7698 29.1896 41.73 29.2335 41.6891C30.028 40.9547 30.028 40.9547 30.5431 40.9712C30.9212 41.0931 31.1517 41.3923 31.4113 41.6815C31.5661 41.876 31.5661 41.876 31.7502 41.9555C31.7721 41.8974 31.794 41.8393 31.8166 41.7795C31.926 41.5163 32.0529 41.2694 32.1867 41.0178C32.2131 40.9681 32.2395 40.9184 32.2667 40.8671C32.3529 40.705 32.4395 40.543 32.5262 40.3811C32.5561 40.3252 32.5859 40.2692 32.6167 40.2116C33.0405 39.4175 33.4753 38.6307 33.922 37.8492C34.2657 37.2449 34.5941 36.6333 34.9192 36.0189C35.3414 35.2212 35.7639 34.4236 36.2033 33.6352C36.2395 33.5683 36.2758 33.5014 36.3132 33.4325C36.8146 32.5447 37.5808 31.8519 38.297 31.1381C38.3715 31.0632 38.446 30.9883 38.5228 30.9112C38.8416 30.5925 39.1604 30.2781 39.5024 29.9844C39.9127 29.6319 40.2876 29.2452 40.6668 28.8599C41.0989 28.421 41.5315 27.9929 41.9989 27.5918C42.4013 27.2327 42.7708 26.837 43.1466 26.4506C44.3372 25.2424 44.3372 25.2424 44.9012 25.1221Z" fill="#92E9FF"/>
<path d="M61.75 7.25636C61.975 7.40649 62.1285 7.51358 62.25 7.75682C62.2876 8.03133 62.308 8.24371 62.1618 8.4883C61.8986 8.80452 61.5927 9.07291 61.2796 9.33838C61.1257 9.47179 60.9759 9.60723 60.8271 9.74631C60.7826 9.78789 60.738 9.82948 60.6921 9.87232C60.6035 9.95528 60.5151 10.0385 60.427 10.1221C60.229 10.3067 60.0936 10.4226 59.8333 10.5094C60.2091 10.9458 60.5945 11.3729 60.9842 11.7968C61.2272 12.0613 61.4686 12.3272 61.7083 12.5947C61.9842 12.9023 62.2623 13.2078 62.5417 13.5122C62.8211 13.8166 63.0992 14.1221 63.375 14.4297C63.8019 14.9057 64.2343 15.3767 64.6667 15.8477C65.1606 16.3858 65.653 16.9251 66.1406 17.469C66.3563 17.7083 66.5738 17.9459 66.7917 18.1832C67.1317 18.5536 67.4687 18.9265 67.8044 19.3008C68.1725 19.7092 68.5448 20.1138 68.9167 20.5187C69.4906 20.1113 69.9882 19.6452 70.4924 19.1556C71.2143 18.463 71.2143 18.463 71.6667 18.397C71.977 18.4423 72.1107 18.5506 72.3333 18.7671C72.4645 19.0298 72.4457 19.2275 72.4167 19.5178C72.1746 19.8812 71.8663 20.1441 71.5358 20.4262C71.2863 20.643 71.0443 20.8672 70.8021 21.0922C70.7086 21.1786 70.615 21.2651 70.5215 21.3515C70.3503 21.5099 70.1798 21.6689 70.0098 21.8286C69.9378 21.8952 69.8658 21.9619 69.7917 22.0306C69.6976 22.1186 69.6976 22.1186 69.6016 22.2085C69.3177 22.4316 69.1144 22.5236 68.7507 22.5141C68.4366 22.4177 68.2974 22.2791 68.0729 22.041C68.004 21.9692 67.935 21.8973 67.8639 21.8233C67.6787 21.6165 67.504 21.4049 67.3333 21.186C66.6325 21.5054 66.1737 22.1845 65.8333 22.8542C65.7221 23.183 65.6534 23.5156 65.5833 23.8552C65.2461 25.2531 64.773 26.4186 63.8333 27.5253C63.5884 27.6672 63.4449 27.6927 63.1615 27.6869C62.8436 27.5853 62.7469 27.4813 62.5833 27.1916C62.5137 26.875 62.5404 26.6858 62.6969 26.4015C62.7982 26.2454 62.9009 26.0902 63.0049 25.9359C63.6122 25.0136 63.8935 24.0296 64.1198 22.9585C64.401 21.7235 65.1903 20.8749 66.0833 20.0183C65.9671 19.6565 65.7999 19.4596 65.526 19.1998C65.2233 18.9059 64.9382 18.6082 64.6641 18.2878C64.4509 18.0435 64.2308 17.8059 64.0104 17.5681C63.713 17.2469 63.417 16.9246 63.125 16.5984C62.8363 16.2759 62.5439 15.957 62.25 15.6392C61.602 14.9383 60.9662 14.2268 60.3333 13.5122C60.0125 13.5594 59.8647 13.7012 59.6354 13.924C59.298 14.2354 58.9527 14.5227 58.5833 14.7946C58.5153 14.8467 58.5153 14.8467 58.4458 14.8999C57.7819 15.3793 57.0546 15.4668 56.2549 15.4616C56.0825 15.4631 55.9102 15.4645 55.7378 15.466C55.4699 15.4668 55.2021 15.4671 54.9342 15.467C54.673 15.4673 54.4119 15.4696 54.1507 15.472C54.0715 15.4713 53.9923 15.4707 53.9108 15.47C53.1456 15.4784 52.5655 15.7315 52.0039 16.2475C51.7247 16.5489 51.491 16.8813 51.2565 17.2178C51.0898 17.4245 50.9988 17.5181 50.75 17.5993C50.4265 17.5878 50.2313 17.5636 49.9688 17.37C49.8098 17.1496 49.7563 17.0377 49.75 16.7652C49.964 16.0692 50.4732 15.5013 51 15.0136C51.0425 14.9735 51.0851 14.9334 51.1289 14.8921C51.8585 14.2304 52.6287 13.9322 53.6094 13.8771C53.6967 13.8722 53.6967 13.8722 53.7858 13.8672C54.4832 13.8335 55.1819 13.8438 55.8798 13.8562C56.6738 13.8647 57.2425 13.8133 57.875 13.288C57.9212 13.2511 57.9673 13.2142 58.0149 13.1761C58.3801 12.8818 58.7369 12.5774 59.0833 12.261C58.9378 11.9783 58.7666 11.7676 58.5417 11.5468C58.4909 11.4966 58.44 11.4464 58.3877 11.3947C58.2882 11.2974 58.1885 11.2005 58.0885 11.1037C57.928 10.7823 57.8914 10.5223 58 10.1757C58.2714 9.82859 58.5851 9.54718 58.9167 9.25822C58.9732 9.2078 59.0297 9.15737 59.0879 9.10541C59.1903 9.01501 59.2935 8.92554 59.3975 8.83693C59.5494 8.70405 59.6975 8.5689 59.8447 8.43095C59.8917 8.38697 59.9387 8.34299 59.9872 8.29767C60.0798 8.2108 60.1721 8.12367 60.2641 8.03624C61.2097 7.15055 61.2097 7.15055 61.75 7.25636Z" fill="#0086FF"/>
<path d="M63.6666 29.5279C64.8566 30.1957 65.8127 31.1363 66.196 32.4707C66.2848 32.8442 66.3164 33.2171 66.3437 33.5994C66.3504 33.6816 66.357 33.7639 66.3639 33.8486C66.3965 34.2688 66.4211 34.6885 66.4365 35.1096C66.4394 35.1879 66.4423 35.2663 66.4454 35.347C66.4504 35.4949 66.4542 35.6429 66.4568 35.7908C66.4768 36.436 66.6535 36.8894 67.1041 37.3633C67.4007 37.6791 67.6834 38.0008 67.9576 38.3362C68.0853 38.4812 68.0853 38.4812 68.3333 38.4529C68.5064 38.2935 68.6675 38.134 68.8281 37.9628C69.3741 37.3848 69.3741 37.3848 69.6666 37.2851C70.3547 37.2719 70.7144 37.7572 71.1786 38.2033C71.4274 38.444 71.6736 38.6871 71.919 38.9312C72.0221 39.0334 72.1255 39.1352 72.2293 39.2366C72.3809 39.3848 72.5313 39.534 72.6816 39.6835C72.7278 39.7284 72.7741 39.7732 72.8218 39.8194C73.0955 40.0949 73.2575 40.3212 73.3333 40.705C73.2176 41.0707 73.1549 41.241 72.8333 41.4557C72.5486 41.506 72.3471 41.5236 72.1024 41.3525C71.6379 40.9293 71.1918 40.4896 70.7499 40.0429C70.6774 39.9699 70.6049 39.897 70.5302 39.8218C70.3533 39.6437 70.1765 39.4655 69.9999 39.287C69.6982 39.4147 69.5057 39.5943 69.2754 39.8254C69.2183 39.8823 69.2183 39.8823 69.16 39.9404C69.0328 40.0674 68.9062 40.195 68.7796 40.3227C68.6885 40.4139 68.5973 40.5052 68.5061 40.5964C68.2587 40.844 68.0118 41.0921 67.765 41.3403C67.5069 41.5997 67.2484 41.8585 66.9899 42.1175C66.5005 42.6078 66.0116 43.0985 65.5228 43.5895C64.9663 44.1483 64.4093 44.7068 63.8523 45.2651C62.7066 46.4137 61.5614 47.5629 60.4166 48.7125C60.4955 48.8055 60.5745 48.8984 60.6536 48.9913C60.7196 49.069 60.7196 49.069 60.7869 49.1482C60.9567 49.3421 61.1393 49.5185 61.3271 49.6948C61.4369 49.8004 61.4369 49.8004 61.5489 49.9081C61.701 50.0535 61.854 50.1979 62.0079 50.3414C62.6237 50.9386 62.6237 50.9386 62.6813 51.3357C62.6652 51.6611 62.6314 51.8052 62.4166 52.0489C62.185 52.1867 62.04 52.2167 61.7711 52.2101C61.3927 52.1015 61.2042 51.8872 60.9371 51.6068C60.8852 51.554 60.8332 51.5012 60.7797 51.4468C60.6143 51.2783 60.4503 51.1085 60.2864 50.9385C60.1219 50.7697 59.9572 50.6012 59.7922 50.4328C59.6898 50.3282 59.5878 50.2232 59.4861 50.1178C59.2258 49.8498 58.9586 49.6136 58.6666 49.3797C58.4931 49.1192 58.4496 48.9556 58.4576 48.644C58.5425 48.2794 58.8226 48.0482 59.0833 47.7949C59.1389 47.7383 59.1946 47.6816 59.2519 47.6232C59.3887 47.4843 59.5269 47.3471 59.6666 47.2111C59.3832 46.553 58.6944 46.1159 58.0683 45.8178C57.5865 45.6341 57.0665 45.5823 56.5597 45.5036C55.3285 45.3058 53.9323 44.8435 53.0833 43.8746C52.9809 43.5602 52.9849 43.4153 53.0989 43.103C53.3171 42.7716 53.3171 42.7716 53.5833 42.7068C54.1526 42.6968 54.4754 42.9139 54.9407 43.2259C55.7462 43.7545 56.653 43.8977 57.5937 44.031C58.7081 44.2169 59.749 44.827 60.5136 45.6578C60.5916 45.73 60.6696 45.8021 60.7499 45.8765C61.0232 45.8546 61.162 45.7453 61.3511 45.555C61.4021 45.5044 61.453 45.4537 61.5055 45.4016C61.5604 45.3457 61.6153 45.2898 61.6719 45.2323C61.7305 45.1737 61.789 45.1151 61.8494 45.0548C62.043 44.8608 62.2356 44.666 62.4283 44.4712C62.5623 44.3366 62.6964 44.2021 62.8305 44.0676C63.1834 43.7134 63.5355 43.3585 63.8875 43.0034C64.2468 42.6412 64.6068 42.2797 64.9667 41.9182C65.6729 41.2086 66.3784 40.4983 67.0833 39.7875C67.0048 39.6952 66.9262 39.6029 66.8476 39.5107C66.8038 39.4594 66.7601 39.408 66.715 39.3551C66.5977 39.2201 66.4778 39.0893 66.3544 38.9599C65.5682 38.1329 64.925 37.3442 64.8697 36.1594C64.8667 36.1001 64.8636 36.0408 64.8604 35.9798C64.8507 35.7911 64.8419 35.6023 64.8333 35.4136C64.8144 33.2959 64.8144 33.2959 63.7708 31.5558C63.4427 31.2742 63.103 31.0285 62.7343 30.8032C62.5833 30.6956 62.5833 30.6956 62.4166 30.4454C62.4227 30.0608 62.4298 29.8681 62.6666 29.5644C63.0365 29.387 63.2798 29.3929 63.6666 29.5279Z" fill="#0085FF"/>
<path d="M39.8156 7.2774C40.1874 7.40474 40.4167 7.71722 40.6668 8.0079C40.7118 8.05887 40.7568 8.10983 40.8032 8.16234C40.896 8.268 40.9881 8.37426 41.0796 8.481C41.2554 8.68117 41.436 8.87592 41.618 9.07048C42.7879 10.3246 42.7879 10.3246 42.9064 10.8074C42.7288 11.5058 42.0274 11.9788 41.5002 12.4287C41.7317 12.7357 41.9742 12.9823 42.271 13.2263C42.3453 13.2884 42.4197 13.3504 42.4963 13.4143C43.094 13.8431 43.6937 14.0182 44.4064 14.1803C45.6653 14.4688 47.2422 14.9608 48.0002 16.0988C48.0469 16.4594 48.04 16.624 47.8335 16.9277C47.5237 17.1409 47.2789 17.1574 46.9168 17.0997C46.7023 17.0074 46.522 16.8821 46.3335 16.7452C46.231 16.6756 46.1283 16.6062 46.0256 16.537C45.9774 16.504 45.9292 16.471 45.8796 16.437C45.1581 15.9466 44.3095 15.8057 43.4709 15.6198C42.3895 15.3709 41.6987 14.8635 40.8874 14.135C40.679 13.9505 40.4648 13.7736 40.2502 13.5965C39.8393 13.9493 39.4387 14.3123 39.0418 14.6808C38.7533 14.9487 38.4646 15.2155 38.1668 15.4732C37.824 15.77 37.4926 16.0786 37.1602 16.387C36.8187 16.7034 36.474 17.0159 36.1274 17.3268C35.8893 17.5416 35.6529 17.7584 35.4168 17.9755C35.3326 18.0528 35.2484 18.13 35.1642 18.2072C35.0024 18.3556 34.841 18.5045 34.6798 18.6536C34.6068 18.7206 34.5338 18.7876 34.4585 18.8566C34.394 18.916 34.3296 18.9755 34.2632 19.0368C34.0972 19.1737 33.9463 19.2657 33.7502 19.3518C33.8475 19.4761 33.9449 19.6004 34.0423 19.7247C34.1259 19.8313 34.2094 19.938 34.2928 20.0447C34.5367 20.356 34.7848 20.663 35.0366 20.9679C35.427 21.4539 35.7565 21.9839 35.7646 22.6233C35.7658 22.6941 35.7669 22.7648 35.768 22.8377C35.7693 22.9523 35.7693 22.9523 35.7707 23.0692C35.7734 23.2318 35.7762 23.3944 35.779 23.5571C35.7829 23.8128 35.7866 24.0684 35.7899 24.3241C35.7932 24.5714 35.7975 24.8186 35.8019 25.0658C35.8026 25.141 35.8033 25.2162 35.804 25.2937C35.8211 26.1887 35.9455 27.0354 36.5874 27.7037C36.9409 28.0252 37.3167 28.3148 37.7059 28.5916C37.8335 28.6939 37.8335 28.6939 37.9168 28.8607C37.9482 29.1931 37.9474 29.3883 37.7866 29.6844C37.5068 29.9286 37.3731 29.9631 37.0002 29.945C35.9157 29.4908 34.9728 28.4947 34.5106 27.4271C34.2638 26.816 34.2384 26.2455 34.2355 25.5953C34.2336 25.4289 34.2316 25.2625 34.2295 25.0961C34.2266 24.8357 34.2241 24.5753 34.223 24.3148C34.2217 24.0621 34.2184 23.8096 34.2147 23.5569C34.2148 23.4798 34.215 23.4027 34.2152 23.3233C34.2031 22.6809 34.0186 22.192 33.5881 21.7092C33.5448 21.6598 33.5015 21.6104 33.4569 21.5595C33.4127 21.5105 33.3686 21.4615 33.3231 21.411C33.2342 21.3107 33.1454 21.2102 33.0568 21.1096C33.0179 21.0663 32.979 21.0229 32.9389 20.9782C32.8335 20.8532 32.8335 20.8532 32.6668 20.603C32.3414 20.7381 32.12 20.9528 31.8647 21.1921C31.2901 21.7295 31.2901 21.7295 30.7625 21.7209C30.2568 21.6261 29.9059 21.0917 29.5897 20.719C29.4164 20.5191 29.2379 20.3256 29.0573 20.1324C28.8839 19.9466 28.7123 19.7593 28.5411 19.5714C28.4605 19.4831 28.3797 19.3952 28.2984 19.3075C27.6235 18.5739 27.6235 18.5739 27.5991 18.1476C27.6747 17.8159 27.715 17.6998 28.0002 17.5168C28.3059 17.4333 28.4948 17.3978 28.7918 17.5168C29.2466 17.8809 29.6282 18.311 30.0076 18.7513C30.3058 19.0949 30.612 19.4313 30.9168 19.7689C31.1833 19.618 31.3998 19.4705 31.6095 19.2476C31.806 19.045 32.0052 18.8531 32.2189 18.6689C32.5236 18.4059 32.8197 18.1346 33.1147 17.8608C33.4357 17.5631 33.7576 17.2668 34.0835 16.9746C34.4057 16.6856 34.7243 16.393 35.0418 16.0988C35.4271 15.7418 35.8152 15.3883 36.2062 15.0376C36.4444 14.8228 36.6808 14.606 36.9168 14.3889C37.2209 14.1092 37.5261 13.8308 37.8335 13.5547C38.1371 13.2819 38.4391 13.0072 38.7397 12.7311C38.7814 12.6928 38.8231 12.6546 38.866 12.6151C39.0816 12.417 39.2971 12.2186 39.5125 12.0201C39.9753 11.594 40.4405 11.1714 40.9168 10.7605C40.6474 10.4398 40.3724 10.1268 40.0874 9.81981C39.9283 9.64794 39.7707 9.47477 39.6136 9.30106C39.5071 9.18337 39.4 9.06627 39.2928 8.94921C38.7937 8.37328 38.7937 8.37328 38.771 7.97662C38.839 7.6476 38.8999 7.53709 39.1668 7.34061C39.3886 7.22964 39.5738 7.24326 39.8156 7.2774Z" fill="#0086FF"/>
<path d="M56.0833 31.9464C56.3065 32.1111 56.3961 32.2229 56.4896 32.4834C56.5068 32.8376 56.3846 33.0533 56.1583 33.3216C56.0854 33.3949 56.0126 33.4682 55.9375 33.5438C55.897 33.5849 55.8564 33.6261 55.8146 33.6685C55.6789 33.8059 55.5423 33.9425 55.4057 34.079C55.308 34.1775 55.2104 34.276 55.1129 34.3746C54.848 34.642 54.5823 34.9085 54.3163 35.1749C54.1502 35.3413 53.9843 35.508 53.8184 35.6747C53.2397 36.2562 52.6603 36.8372 52.0803 37.4175C51.5397 37.9584 51.0005 38.5008 50.462 39.0438C49.9995 39.51 49.536 39.9753 49.0717 40.4398C48.7945 40.7172 48.5177 40.995 48.2418 41.2737C47.9824 41.5358 47.7218 41.7967 47.4603 42.0567C47.3645 42.1523 47.2692 42.2483 47.1744 42.3447C47.0447 42.4764 46.9136 42.6065 46.782 42.7363C46.709 42.8095 46.636 42.8827 46.5608 42.9581C46.2827 43.1603 46.0914 43.1971 45.75 43.2069C45.2943 42.962 45.2943 42.962 45.1666 42.7065C45.1222 42.4283 45.1007 42.2188 45.2655 41.9783C45.7246 41.4745 46.2025 40.99 46.6843 40.508C46.7776 40.4143 46.8709 40.3207 46.9641 40.227C47.2156 39.9746 47.4674 39.7224 47.7192 39.4703C47.8766 39.3126 48.034 39.155 48.1913 38.9973C48.7404 38.4469 49.2896 37.8968 49.8391 37.3469C50.3512 36.8343 50.8629 36.3213 51.3744 35.808C51.8141 35.3668 52.2541 34.926 52.6944 34.4853C52.9571 34.2224 53.2197 33.9593 53.482 33.6958C53.7282 33.4487 53.9747 33.2019 54.2216 32.9554C54.3122 32.8648 54.4026 32.774 54.493 32.6831C54.616 32.5593 54.7395 32.4361 54.8632 32.3129C54.9322 32.2438 55.0013 32.1746 55.0725 32.1033C55.4046 31.8097 55.6688 31.8518 56.0833 31.9464Z" fill="#92EAFF"/>
<path d="M46.7656 78.1886C47.3552 78.7151 47.681 79.2798 47.7818 80.077C47.8121 80.8621 47.5764 81.5468 47.0833 82.1604C46.4144 82.8642 45.7295 83.2026 44.7565 83.2525C43.8997 83.2264 43.1308 82.9167 42.497 82.3396C41.9281 81.7327 41.6334 81.0125 41.649 80.1781C41.7251 79.3715 42.1026 78.6733 42.6979 78.1306C43.9328 77.1563 45.5497 77.2022 46.7656 78.1886ZM43.6354 79.4391C43.3801 79.8518 43.293 80.1868 43.372 80.6629C43.4755 81.041 43.6853 81.2718 43.9791 81.5192C44.418 81.7473 44.7405 81.7919 45.2187 81.6599C45.625 81.4189 45.9194 81.1726 46.0611 80.7092C46.1288 80.2689 46.0858 79.9386 45.8574 79.5544C45.5912 79.1911 45.329 78.9801 44.8854 78.9021C44.3654 78.8714 43.9961 79.078 43.6354 79.4391Z" fill="#0085FF"/>
<path d="M40.156 78.1351C40.6831 78.6355 41.0462 79.2422 41.1111 79.9718C41.1257 80.6202 41.114 81.1845 40.7498 81.7426C40.7093 81.8067 40.6688 81.8708 40.6271 81.9368C40.1203 82.6611 39.4449 83.0258 38.5896 83.2101C37.7575 83.3201 36.955 83.1659 36.2775 82.6615C35.6315 82.1075 35.1439 81.5055 35.0551 80.6335C35.0436 79.6093 35.2586 78.9996 35.9689 78.256C37.1404 77.1683 38.9006 77.1414 40.156 78.1351ZM36.9301 79.5974C36.7094 79.9236 36.7115 80.2788 36.7498 80.6583C36.9022 81.1071 37.1797 81.4179 37.5831 81.6592C37.982 81.7947 38.3093 81.781 38.6925 81.6071C39.0605 81.395 39.2812 81.148 39.4165 80.7417C39.4812 80.2202 39.4441 79.8156 39.1352 79.3817C38.852 79.0859 38.5193 78.9385 38.1196 78.8702C37.5694 78.969 37.2775 79.1735 36.9301 79.5974Z" fill="#0085FF"/>
<path d="M54.5835 77.5723C55.1335 77.5723 55.6835 77.5723 56.2502 77.5723C56.2502 78.2329 56.2502 78.8935 56.2502 79.5741C56.8827 79.5741 57.5152 79.5741 58.1668 79.5741C58.1668 78.9135 58.1668 78.2529 58.1668 77.5723C58.7168 77.5723 59.2668 77.5723 59.8335 77.5723C59.8335 79.389 59.8335 81.2057 59.8335 83.0774C59.2835 83.0774 58.7335 83.0774 58.1668 83.0774C58.1668 82.3893 58.1668 81.7011 58.1668 80.9921C57.5343 80.9921 56.9018 80.9921 56.2502 80.9921C56.2502 81.6803 56.2502 82.3684 56.2502 83.0774C55.7002 83.0774 55.1502 83.0774 54.5835 83.0774C54.5835 81.2607 54.5835 79.444 54.5835 77.5723Z" fill="#0085FF"/>
<path d="M53.5502 78.2006C53.6668 78.3228 53.6668 78.3228 53.6668 78.573C53.478 78.7558 53.478 78.7558 53.2293 78.9536C53.1481 79.0191 53.0668 79.0846 52.9832 79.152C52.7963 79.2897 52.6279 79.3975 52.4168 79.4906C52.3721 79.439 52.3274 79.3873 52.2813 79.3342C52.015 79.0956 51.782 78.9937 51.4207 78.9872C50.9327 79.0254 50.5929 79.2066 50.2657 79.5792C50.0559 79.9218 50.0434 80.2676 50.0834 80.6583C50.2256 81.0615 50.4495 81.3765 50.8334 81.5758C51.2508 81.6729 51.6688 81.7003 52.0834 81.5758C52.0834 81.4107 52.0834 81.2455 52.0834 81.0754C51.7534 81.0754 51.4234 81.0754 51.0834 81.0754C51.0834 80.6625 51.0834 80.2496 51.0834 79.8242C51.9359 79.8242 52.7884 79.8242 53.6668 79.8242C53.6925 80.4255 53.6925 80.4255 53.7188 81.0389C53.7264 81.1642 53.734 81.2895 53.7418 81.4187C53.7585 82.2207 53.7585 82.2207 53.4889 82.5318C53.2758 82.683 53.0704 82.8012 52.8334 82.9104C52.7451 82.9544 52.7451 82.9544 52.655 82.9992C51.9458 83.3313 51.066 83.3123 50.3334 83.0772C49.4471 82.7418 48.889 82.1989 48.4926 81.3422C48.2317 80.7112 48.2275 79.949 48.4532 79.3029C48.7737 78.6147 49.3731 77.9473 50.0834 77.6555C51.3816 77.2544 52.4584 77.3864 53.5502 78.2006Z" fill="#0085FF"/>
<path d="M54.4165 27.9425C54.6718 28.1563 54.6718 28.1563 54.8332 28.443C54.8556 28.7452 54.8244 28.9268 54.6411 29.1729C54.2223 29.6412 53.7847 30.0887 53.3406 30.533C53.259 30.6149 53.1773 30.697 53.0957 30.779C52.8759 30.9997 52.6558 31.2202 52.4356 31.4406C52.2979 31.5785 52.1603 31.7165 52.0227 31.8545C51.5421 32.3362 51.0614 32.8177 50.5805 33.2991C50.1326 33.7473 49.6852 34.196 49.238 34.6449C48.8533 35.0311 48.4681 35.417 48.0828 35.8027C47.853 36.0327 47.6233 36.2628 47.3939 36.4933C47.1786 36.7096 46.9629 36.9255 46.7469 37.1411C46.63 37.258 46.5135 37.3753 46.397 37.4926C46.3273 37.562 46.2576 37.6315 46.1857 37.7031C46.1253 37.7635 46.065 37.824 46.0027 37.8864C45.7279 38.1278 45.5776 38.2049 45.2082 38.1917C44.8878 38.1115 44.7747 38.0504 44.5832 37.785C44.4964 37.5429 44.485 37.4168 44.5602 37.1704C44.6831 36.9168 44.8248 36.7615 45.024 36.5625C45.099 36.487 45.174 36.4114 45.2513 36.3336C45.3346 36.2509 45.418 36.1683 45.5013 36.0856C45.589 35.9978 45.6766 35.91 45.7641 35.8221C46.0017 35.5839 46.24 35.3464 46.4785 35.1092C46.7279 34.8608 46.9765 34.6118 47.2253 34.3629C47.643 33.9451 48.0611 33.5279 48.4796 33.1109C49.0171 32.5753 49.5539 32.0389 50.0904 31.5022C50.5513 31.0412 51.0126 30.5805 51.474 30.1198C51.6225 29.9716 51.7709 29.8232 51.9194 29.6749C52.1523 29.4422 52.3854 29.2097 52.6187 28.9774C52.7044 28.8919 52.7901 28.8064 52.8757 28.7208C52.9922 28.6044 53.109 28.4882 53.2258 28.372C53.2912 28.3068 53.3565 28.2416 53.4239 28.1744C53.7164 27.9018 54.0302 27.8658 54.4165 27.9425Z" fill="#93E9FF"/>
<path d="M29.0835 77.5723C29.606 77.5723 30.1285 77.5723 30.6668 77.5723C30.6668 78.2329 30.6668 78.8935 30.6668 79.5741C31.2993 79.5741 31.9318 79.5741 32.5835 79.5741C32.5835 78.9135 32.5835 78.2529 32.5835 77.5723C33.1335 77.5723 33.6835 77.5723 34.2502 77.5723C34.2502 79.389 34.2502 81.2057 34.2502 83.0774C33.7002 83.0774 33.1502 83.0774 32.5835 83.0774C32.5835 82.3893 32.5835 81.7011 32.5835 80.9921C31.951 80.9921 31.3185 80.9921 30.6668 80.9921C30.6668 81.6803 30.6668 82.3684 30.6668 83.0774C30.1443 83.0774 29.6218 83.0774 29.0835 83.0774C29.0835 81.2607 29.0835 79.444 29.0835 77.5723Z" fill="#0085FF"/>
<path d="M50.7502 25.1905C50.9898 25.3208 50.9898 25.3208 51.1668 25.5241C51.258 25.838 51.297 26.0153 51.1476 26.3112C50.9944 26.5334 50.8317 26.7156 50.6418 26.9071C50.5687 26.9813 50.4956 27.0554 50.4203 27.1318C50.3395 27.2129 50.2586 27.294 50.1778 27.3751C50.0925 27.4612 50.0072 27.5475 49.9219 27.6337C49.6908 27.8673 49.459 28.1003 49.2272 28.3331C49.0822 28.4787 48.9374 28.6244 48.7926 28.77C48.3392 29.2261 47.8856 29.6818 47.4314 30.137C46.9076 30.6621 46.3848 31.1883 45.863 31.7154C45.4592 32.1232 45.0544 32.53 44.6489 32.9361C44.4069 33.1785 44.1653 33.4214 43.9247 33.6652C43.6984 33.8944 43.471 34.1224 43.2426 34.3496C43.1591 34.433 43.076 34.5169 42.9934 34.6012C42.8804 34.7165 42.7656 34.83 42.6508 34.9435C42.5872 35.0075 42.5235 35.0715 42.4579 35.1374C42.1924 35.3238 41.9881 35.3507 41.6668 35.3666C41.369 35.2342 41.2659 35.1401 41.0835 34.8662C41.0333 34.5814 41.0155 34.3796 41.1866 34.1348C41.6106 33.669 42.0497 33.22 42.4954 32.7749C42.5773 32.6928 42.6592 32.6106 42.7411 32.5285C42.9616 32.3074 43.1824 32.0866 43.4032 31.8658C43.6348 31.6342 43.8662 31.4024 44.0977 31.1706C44.4857 30.7821 44.8738 30.3938 45.2621 30.0055C45.7111 29.5565 46.1599 29.1072 46.6085 28.6577C46.9943 28.2712 47.3802 27.8849 47.7663 27.4986C47.9966 27.2682 48.2269 27.0377 48.4571 26.8071C48.673 26.5907 48.8891 26.3746 49.1053 26.1586C49.2227 26.0413 49.3399 25.9237 49.4571 25.8062C49.5266 25.7369 49.5961 25.6675 49.6677 25.5961C49.7282 25.5355 49.7888 25.475 49.8511 25.4126C50.1368 25.1468 50.3676 25.158 50.7502 25.1905Z" fill="#92EAFF"/>
<path d="M25.1665 68.5645C25.579 68.5645 25.9915 68.5645 26.4165 68.5645C26.4585 68.6444 26.5006 68.7244 26.5439 68.8068C26.6998 69.1033 26.8562 69.3995 27.0126 69.6957C27.0803 69.8239 27.1479 69.9523 27.2153 70.0806C27.3123 70.2651 27.4096 70.4493 27.507 70.6334C27.5371 70.691 27.5673 70.7485 27.5983 70.8078C27.717 71.0314 27.8198 71.2203 27.9998 71.4004C28.03 71.3442 28.0602 71.2879 28.0913 71.2299C28.2308 70.9704 28.3705 70.711 28.5103 70.4516C28.5577 70.3631 28.6052 70.2746 28.6541 70.1835C28.7496 70.0065 28.8466 69.8303 28.9452 69.6551C29.0862 69.4035 29.0862 69.4035 29.1866 69.1466C29.2909 68.9157 29.2909 68.9157 29.5832 68.5645C29.9957 68.5645 30.4082 68.5645 30.8332 68.5645C30.8332 70.3536 30.8332 72.1428 30.8332 73.9862C30.4207 73.9862 30.0082 73.9862 29.5832 73.9862C29.5557 72.9953 29.5282 72.0043 29.4998 70.9834C29.1028 71.7366 29.1028 71.7366 28.7071 72.4906C28.6572 72.5846 28.6073 72.6786 28.5558 72.7754C28.5052 72.8715 28.4546 72.9676 28.4024 73.0666C28.2604 73.3014 28.1194 73.4699 27.9165 73.6525C27.7443 73.3504 27.5725 73.0479 27.4009 72.7454C27.3527 72.6609 27.3045 72.5764 27.2549 72.4893C27.2073 72.4055 27.1598 72.3216 27.1108 72.2352C27.0676 72.1592 27.0244 72.0832 26.9799 72.0049C26.7829 71.6414 26.6013 71.2698 26.4165 70.9C26.389 71.9184 26.3615 72.9369 26.3332 73.9862C25.9482 73.9862 25.5632 73.9862 25.1665 73.9862C25.1665 72.197 25.1665 70.4078 25.1665 68.5645Z" fill="#8A8E93"/>
<path d="M18.0835 68.5645C18.4685 68.5645 18.8535 68.5645 19.2502 68.5645C19.4951 68.8642 19.6047 69.0541 19.7502 69.3986C19.8439 69.5725 19.9393 69.7456 20.036 69.9179C20.1319 70.0957 20.2276 70.2736 20.3231 70.4516C20.3725 70.5433 20.4219 70.6351 20.4728 70.7296C20.5932 70.9531 20.7134 71.1767 20.8335 71.4004C21.0306 71.1508 21.184 70.8946 21.3332 70.6139C21.403 70.4834 21.403 70.4834 21.4743 70.3503C21.5224 70.2599 21.5704 70.1694 21.62 70.0763C21.7602 69.8125 21.9008 69.5494 22.0463 69.2885C22.1664 69.0769 22.1664 69.0769 22.2343 68.8902C22.2948 68.7515 22.2948 68.7515 22.5002 68.5645C22.8852 68.5645 23.2702 68.5645 23.6668 68.5645C23.6668 70.3536 23.6668 72.1428 23.6668 73.9862C23.2818 73.9862 22.8968 73.9862 22.5002 73.9862C22.4727 72.9953 22.4452 72.0043 22.4168 70.9834C22.0788 71.612 22.0788 71.612 21.7413 72.2409C21.4815 72.7225 21.213 73.1925 20.9168 73.6525C20.6731 73.4391 20.5437 73.1971 20.3931 72.9123C20.342 72.8164 20.2909 72.7204 20.2383 72.6216C20.1849 72.5204 20.1316 72.4192 20.0783 72.318C19.9733 72.1198 19.8681 71.9217 19.7629 71.7237C19.7164 71.6357 19.67 71.5477 19.6222 71.4571C19.4997 71.225 19.4997 71.225 19.3335 70.9834C19.306 71.9743 19.2785 72.9652 19.2502 73.9862C18.8652 73.9862 18.4802 73.9862 18.0835 73.9862C18.0835 72.197 18.0835 70.4078 18.0835 68.5645Z" fill="#8A8E93"/>
<path d="M38.3335 68.5645C39.5835 68.5645 39.5835 68.5645 39.9591 68.8948C40.0638 69.0425 40.1642 69.1932 40.2606 69.3464C40.3148 69.4248 40.369 69.5032 40.4248 69.584C40.5365 69.7459 40.6465 69.9089 40.7548 70.0731C40.956 70.3749 41.1687 70.6673 41.3834 70.9596C41.5913 71.2439 41.7954 71.531 42.0002 71.8175C42.0277 70.744 42.0552 69.6705 42.0835 68.5645C42.4685 68.5645 42.8535 68.5645 43.2502 68.5645C43.2502 70.3536 43.2502 72.1428 43.2502 73.9862C42.0835 73.9862 42.0835 73.9862 41.7085 73.6265C41.618 73.4956 41.5278 73.3644 41.4414 73.2308C41.2677 72.9698 41.0779 72.721 40.8905 72.4699C40.698 72.2115 40.5083 71.9511 40.3188 71.6905C40.1035 71.3977 39.8848 71.1074 39.6668 70.8166C39.6393 71.8625 39.6118 72.9085 39.5835 73.9862C39.171 73.9862 38.7585 73.9862 38.3335 73.9862C38.3335 72.197 38.3335 70.4078 38.3335 68.5645Z" fill="#8A8D93"/>
<path d="M50.5835 59.1387C51.8335 59.1387 51.8335 59.1387 52.2091 59.4691C52.3138 59.6167 52.4142 59.7675 52.5106 59.9207C52.5648 59.9991 52.619 60.0775 52.6748 60.1582C52.7865 60.3201 52.8965 60.4832 53.0048 60.6473C53.206 60.9491 53.4187 61.2415 53.6334 61.5338C53.8413 61.8181 54.0454 62.1052 54.2502 62.3917C54.2777 61.3182 54.3052 60.2447 54.3335 59.1387C54.7185 59.1387 55.1035 59.1387 55.5002 59.1387C55.5002 60.9278 55.5002 62.717 55.5002 64.5604C54.3335 64.5604 54.3335 64.5604 53.9585 64.2007C53.868 64.0698 53.7778 63.9387 53.6914 63.8051C53.5177 63.544 53.3279 63.2953 53.1405 63.0441C52.948 62.7857 52.7583 62.5254 52.5688 62.2647C52.3535 61.9719 52.1348 61.6816 51.9168 61.3908C51.8893 62.4368 51.8618 63.4827 51.8335 64.5604C51.421 64.5604 51.0085 64.5604 50.5835 64.5604C50.5835 62.7712 50.5835 60.9821 50.5835 59.1387Z" fill="#8A8E93"/>
<path d="M42.1665 59.1387C45.4537 59.1387 45.4537 59.1387 46.4165 59.8894C46.953 60.4468 47.2474 61.1161 47.2498 61.8912C47.2001 62.6303 46.9615 63.265 46.4315 63.7944C45.185 64.8021 43.7291 64.5604 42.1665 64.5604C42.1665 62.7712 42.1665 60.9821 42.1665 59.1387ZM43.4165 60.223C43.4165 61.2965 43.4165 62.37 43.4165 63.4761C44.6409 63.5055 44.6409 63.5055 45.6108 62.8967C45.9158 62.5207 46.0295 62.1062 45.9946 61.6254C45.8553 61.0582 45.5551 60.7233 45.0832 60.3898C44.5103 60.1441 44.0903 60.223 43.4165 60.223Z" fill="#8A8E93"/>
<path d="M66.5835 68.5637C67.0321 68.5569 67.4807 68.55 67.9429 68.5429C68.0824 68.5399 68.222 68.5368 68.3658 68.5337C69.1129 68.5241 69.9089 68.5167 70.4991 69.0459C70.9722 69.563 71.0422 69.9959 71.0321 70.6914C70.9751 71.2117 70.7488 71.5006 70.37 71.8428C70.3029 71.8893 70.2359 71.9357 70.1668 71.9836C70.0555 72.0667 69.9444 72.1501 69.8335 72.2338C69.981 72.4354 70.1286 72.637 70.2762 72.8386C70.3178 72.8954 70.3595 72.9523 70.4023 73.0109C70.4429 73.0663 70.4834 73.1217 70.5252 73.1787C70.5643 73.2322 70.6034 73.2857 70.6436 73.3408C70.7287 73.456 70.8163 73.5692 70.9048 73.6818C71.0002 73.8187 71.0002 73.8187 71.0002 73.9855C70.5259 74.0827 70.0458 74.1672 69.5835 73.9855C69.1478 73.5951 68.8639 73.0647 68.5866 72.5556C68.5115 72.4044 68.5115 72.4044 68.4168 72.3172C68.1968 72.2897 67.9768 72.2622 67.7502 72.2338C67.7502 72.8119 67.7502 73.3899 67.7502 73.9855C67.3652 73.9855 66.9802 73.9855 66.5835 73.9855C66.5835 72.1963 66.5835 70.4071 66.5835 68.5637ZM67.7502 69.6481C67.7502 70.1436 67.7502 70.639 67.7502 71.1495C68.0647 71.1572 68.0647 71.1572 68.3856 71.1651C68.4506 71.1674 68.5157 71.1697 68.5827 71.172C68.9776 71.1767 69.2405 71.1147 69.5835 70.8993C69.7614 70.7161 69.7614 70.7161 69.8335 70.4822C69.782 70.196 69.7218 70.0367 69.5158 69.8306C68.9863 69.5428 68.3307 69.6427 67.7502 69.6481Z" fill="#8A8E93"/>
<path d="M15.7065 68.9368C16.3436 69.3878 16.781 70.041 16.9168 70.8158C17.0039 71.6829 16.7957 72.481 16.2414 73.1637C15.6101 73.7812 14.921 74.0598 14.0575 74.1001C13.1249 74.0794 12.408 73.6522 11.771 73.0001C11.3494 72.4023 11.0777 71.7237 11.1668 70.9826C11.3388 70.093 11.6991 69.4546 12.4451 68.926C13.5053 68.302 14.6516 68.3089 15.7065 68.9368ZM12.7502 70.2319C12.4561 70.6796 12.3624 71.0848 12.4438 71.6144C12.5854 72.1231 12.8837 72.539 13.3335 72.8177C13.7694 72.9905 14.135 73.0266 14.5835 72.9011C15.0463 72.6558 15.3518 72.3285 15.6095 71.8741C15.7464 71.3384 15.7178 70.8721 15.4448 70.3867C15.1693 70.0037 14.7958 69.6833 14.3335 69.5646C13.7207 69.498 13.1518 69.7687 12.7502 70.2319Z" fill="#8A8E93"/>
<path d="M76.3514 68.9186C76.9001 69.2904 77.2745 69.8214 77.5363 70.4252C77.69 71.4339 77.5796 72.2096 76.9894 73.0474C76.5284 73.6057 75.8888 73.9826 75.1665 74.0692C74.2416 74.1533 73.469 73.9058 72.7498 73.3185C72.1818 72.7905 71.8784 72.1352 71.8306 71.3616C71.8399 70.6029 72.0699 69.9443 72.5841 69.3816C73.6648 68.3604 75.0481 68.1836 76.3514 68.9186ZM73.5103 70.128C73.192 70.6152 73.0136 71.0361 73.1082 71.6249C73.2508 72.0954 73.5303 72.5109 73.9478 72.7764C74.4021 72.9645 74.7751 73.0495 75.255 72.9067C75.7111 72.7122 76.0106 72.3219 76.2645 71.9074C76.4354 71.4753 76.3851 70.9638 76.2342 70.5347C75.9058 70.0587 75.5387 69.7652 74.9998 69.565C74.4308 69.4681 73.9129 69.7425 73.5103 70.128Z" fill="#8A8E93"/>
<path d="M33.6878 59.4992C34.2763 59.9083 34.779 60.5065 34.9167 61.2241C34.9823 61.9557 34.9821 62.5942 34.5833 63.2259C34.548 63.284 34.5127 63.3421 34.4762 63.4019C34.0471 64.0384 33.4491 64.4131 32.7113 64.6048C31.8959 64.7557 31.1498 64.6066 30.4427 64.1747C29.8767 63.7697 29.3755 63.1748 29.25 62.4752C29.1572 61.5932 29.2124 60.8838 29.75 60.1397C30.7825 58.963 32.3328 58.7046 33.6878 59.4992ZM30.7969 60.7809C30.5185 61.202 30.3707 61.603 30.4515 62.1097C30.5994 62.661 30.7953 63.0007 31.2708 63.3302C31.6467 63.5267 32.0061 63.6107 32.4258 63.5228C32.9481 63.3508 33.2808 63.0129 33.5833 62.5586C33.7495 62.0597 33.7499 61.5015 33.5261 61.0208C33.2454 60.5395 32.8517 60.3218 32.3333 60.1397C31.7337 60.0484 31.1735 60.3192 30.7969 60.7809Z" fill="#8A8E93"/>
<path d="M65.1153 69.0976C65.1597 69.1416 65.2042 69.1855 65.25 69.2308C65.25 69.5645 65.25 69.5645 65.1159 69.7277C65.0276 69.8043 65.0276 69.8043 64.9375 69.8825C64.8795 69.9346 64.8215 69.9868 64.7618 70.0405C64.5834 70.1484 64.5834 70.1484 64.4082 70.1337C64.25 70.0649 64.25 70.0649 64.0313 69.8981C63.6608 69.6784 63.3445 69.6309 62.9167 69.6479C62.4472 69.7889 61.9944 70.0273 61.7468 70.47C61.5337 70.9852 61.5124 71.4292 61.7188 71.9521C61.946 72.4206 62.2094 72.6496 62.698 72.8488C63.2271 72.9401 63.6661 72.8386 64.1667 72.6507C64.1667 72.403 64.1667 72.1552 64.1667 71.9C63.7542 71.9 63.3417 71.9 62.9167 71.9C62.9167 71.5697 62.9167 71.2394 62.9167 70.8991C63.7142 70.8991 64.5117 70.8991 65.3334 70.8991C65.3506 71.2724 65.3677 71.6457 65.3855 72.0303C65.3968 72.2052 65.3968 72.2052 65.4084 72.3837C65.4251 73.1287 65.4251 73.1287 65.1603 73.4344C64.4536 73.9437 63.6158 74.1674 62.75 74.0687C61.8364 73.8993 61.1207 73.4048 60.5834 72.6507C60.203 71.9733 60.1494 71.2206 60.3438 70.4768C60.5882 69.7418 61.1499 69.1056 61.8243 68.7248C62.9456 68.2197 64.1189 68.4505 65.1153 69.0976Z" fill="#8A8E93"/>
<path d="M77.0835 59.1387C78.4585 59.1387 79.8335 59.1387 81.2502 59.1387C81.2502 59.4965 81.2502 59.8543 81.2502 60.223C80.2877 60.223 79.3252 60.223 78.3335 60.223C78.3335 60.5533 78.3335 60.8836 78.3335 61.224C79.2135 61.224 80.0935 61.224 81.0002 61.224C81.0002 61.5818 81.0002 61.9396 81.0002 62.3083C80.1202 62.3083 79.2402 62.3083 78.3335 62.3083C78.3335 62.6937 78.3335 63.079 78.3335 63.4761C79.296 63.4761 80.2585 63.4761 81.2502 63.4761C81.2502 63.8339 81.2502 64.1917 81.2502 64.5604C79.8752 64.5604 78.5002 64.5604 77.0835 64.5604C77.0835 62.7712 77.0835 60.9821 77.0835 59.1387Z" fill="#8A8D93"/>
<path d="M58.9665 59.1309C59.0905 59.1314 59.2145 59.1324 59.3385 59.1338C59.4018 59.1342 59.465 59.1345 59.5301 59.1349C59.6867 59.1359 59.8434 59.1374 60 59.139C60.3772 59.9395 60.7063 60.7582 61.0365 61.5788C61.0905 61.7127 61.1446 61.8466 61.1987 61.9805C61.3044 62.2421 61.4098 62.5038 61.5149 62.7656C61.6152 63.0151 61.716 63.2643 61.8174 63.5134C61.8636 63.6275 61.9098 63.7416 61.9561 63.8556C61.9968 63.9557 62.0375 64.0558 62.0794 64.1589C62.1667 64.3939 62.1667 64.3939 62.1667 64.5607C61.7267 64.5607 61.2867 64.5607 60.8333 64.5607C60.5 63.9247 60.5 63.9247 60.5 63.6432C59.73 63.6432 58.96 63.6432 58.1667 63.6432C58.0842 63.8909 58.0017 64.1387 57.9167 64.3939C57.8892 64.449 57.8617 64.504 57.8333 64.5607C57.3933 64.5607 56.9533 64.5607 56.5 64.5607C56.5763 64.1791 56.6915 63.8491 56.8385 63.4924C56.8642 63.4293 56.8898 63.3663 56.9162 63.3014C56.9993 63.0972 57.083 62.8932 57.1667 62.6892C57.2237 62.5494 57.2808 62.4096 57.3378 62.2698C57.4506 61.9932 57.5636 61.7166 57.6768 61.4402C57.812 61.1099 57.9463 60.7793 58.0801 60.4485C58.1471 60.2831 58.2142 60.1177 58.2812 59.9523C58.3114 59.8775 58.3416 59.8027 58.3727 59.7257C58.6111 59.1405 58.6111 59.1405 58.9665 59.1309ZM59.25 60.9741C59.03 61.5246 58.81 62.0751 58.5833 62.6423C59.0508 62.6423 59.5183 62.6423 60 62.6423C59.9446 62.3651 59.9018 62.1622 59.7992 61.9108C59.7769 61.8557 59.7546 61.8006 59.7316 61.7438C59.7085 61.6876 59.6853 61.6315 59.6615 61.5736C59.638 61.5158 59.6145 61.458 59.5903 61.3984C59.5328 61.2568 59.4748 61.1154 59.4167 60.9741C59.3617 60.9741 59.3067 60.9741 59.25 60.9741Z" fill="#8A8D93"/>
<path d="M78.5835 68.5645C78.996 68.5645 79.4085 68.5645 79.8335 68.5645C79.8347 68.6654 79.8359 68.7664 79.8372 68.8704C79.842 69.2463 79.8485 69.6222 79.8554 69.9981C79.8582 70.1605 79.8605 70.323 79.8624 70.4854C79.8652 70.7194 79.8696 70.9534 79.8742 71.1873C79.8747 71.2596 79.8753 71.3318 79.8758 71.4062C79.8884 71.9286 79.9777 72.2955 80.3596 72.6777C80.7167 72.9021 80.9669 72.9203 81.3804 72.8549C81.7758 72.6894 81.9732 72.4553 82.1668 72.0677C82.1766 71.9545 82.1816 71.8408 82.184 71.7272C82.1856 71.6571 82.1873 71.5869 82.189 71.5147C82.1911 71.401 82.1911 71.401 82.1932 71.2851C82.1949 71.2076 82.1967 71.13 82.1985 71.0502C82.2039 70.802 82.2088 70.5538 82.2137 70.3057C82.2173 70.1376 82.221 69.9696 82.2246 69.8016C82.2336 69.3892 82.242 68.9768 82.2502 68.5645C82.6627 68.5645 83.0752 68.5645 83.5002 68.5645C83.5085 69.06 83.5145 69.5555 83.5185 70.051C83.5202 70.2193 83.5224 70.3876 83.5253 70.5558C83.5294 70.7989 83.5313 71.042 83.5327 71.2851C83.5345 71.3592 83.5362 71.4334 83.5379 71.5098C83.5382 72.2345 83.3189 72.9028 82.8205 73.4411C82.2362 73.9281 81.5781 74.1017 80.8345 74.0927C80.2283 74.0369 79.6537 73.8099 79.2085 73.3889C78.6629 72.7191 78.5705 72.027 78.5754 71.1955C78.5755 71.1202 78.5756 71.0449 78.5757 70.9673C78.5762 70.7276 78.5772 70.488 78.5783 70.2483C78.5787 70.0855 78.5791 69.9226 78.5794 69.7597C78.5804 69.3613 78.5818 68.9629 78.5835 68.5645Z" fill="#898E93"/>
<path d="M35.9166 59.1388C36.3291 59.1388 36.7416 59.1388 37.1666 59.1388C37.1678 59.2398 37.169 59.3408 37.1703 59.4448C37.1751 59.8207 37.1815 60.1966 37.1884 60.5725C37.1912 60.7349 37.1935 60.8974 37.1954 61.0598C37.1982 61.2938 37.2026 61.5277 37.2073 61.7617C37.2078 61.8339 37.2083 61.9062 37.2089 61.9806C37.2215 62.5029 37.3108 62.8698 37.6926 63.252C38.0508 63.4771 38.2996 63.4968 38.7134 63.4241C39.0349 63.2954 39.1968 63.1576 39.4166 62.8923C39.4912 62.6682 39.5117 62.5317 39.5157 62.3011C39.5178 62.1988 39.5178 62.1988 39.5199 62.0945C39.521 62.0212 39.5222 61.948 39.5233 61.8725C39.5249 61.7971 39.5264 61.7218 39.528 61.6441C39.5346 61.3214 39.5402 60.9987 39.5459 60.6759C39.5502 60.4405 39.555 60.2051 39.5598 59.9697C39.5609 59.8961 39.5621 59.8225 39.5632 59.7467C39.5738 59.2317 39.5738 59.2317 39.6666 59.1388C39.8627 59.1328 40.0589 59.1318 40.2551 59.1336C40.3626 59.1344 40.4702 59.1351 40.581 59.1359C40.6642 59.1369 40.7475 59.1378 40.8332 59.1388C40.8395 59.6359 40.844 60.1329 40.847 60.63C40.8482 60.7988 40.8499 60.9677 40.8521 61.1365C40.8552 61.3802 40.8566 61.6239 40.8577 61.8676C40.8589 61.9422 40.8602 62.0168 40.8616 62.0936C40.8618 62.9006 40.6555 63.4775 40.0989 64.0643C39.5361 64.5663 38.9006 64.676 38.1646 64.6671C37.5598 64.6107 36.9853 64.3836 36.5416 63.963C35.982 63.2774 35.9032 62.5484 35.9084 61.6966C35.9086 61.6232 35.9087 61.5499 35.9088 61.4743C35.9093 61.2414 35.9103 61.0086 35.9114 60.7758C35.9118 60.6173 35.9122 60.4589 35.9125 60.3004C35.9134 59.9132 35.9149 59.526 35.9166 59.1388Z" fill="#8A8E94"/>
<path d="M65.5 77.5723C66.105 77.5723 66.71 77.5723 67.3333 77.5723C67.4674 77.8234 67.6015 78.0746 67.7396 78.3334C67.7816 78.4116 67.8236 78.4898 67.8668 78.5703C68.0554 78.9264 68.2223 79.268 68.3333 79.6575C68.3883 79.6575 68.4433 79.6575 68.5 79.6575C68.5187 79.592 68.5374 79.5264 68.5566 79.4588C68.7008 79.0634 68.8949 78.7036 69.0938 78.3334C69.2278 78.0822 69.3619 77.831 69.5 77.5723C70.105 77.5723 70.71 77.5723 71.3333 77.5723C70.9948 78.266 70.6324 78.936 70.2396 79.6002C70.091 79.8529 69.9425 80.1057 69.7952 80.3592C69.7201 80.4853 69.6424 80.6101 69.5589 80.7308C69.2591 81.1762 69.2779 81.6366 69.2708 82.1547C69.2671 82.288 69.2671 82.288 69.2633 82.424C69.2575 82.6417 69.2536 82.8596 69.25 83.0774C68.7 83.0774 68.15 83.0774 67.5833 83.0774C67.5909 82.9621 67.5984 82.8469 67.6061 82.7281C67.6476 81.3614 67.228 80.5159 66.486 79.3934C66.2539 79.0342 66.0484 78.6618 65.8438 78.2865C65.8086 78.2233 65.7734 78.1601 65.7372 78.0949C65.5 77.6669 65.5 77.6669 65.5 77.5723Z" fill="#0085FF"/>
<path d="M93.6429 68.7178C93.8911 68.8435 94.1116 68.9799 94.3333 69.1479C94.2036 69.5375 93.993 69.8225 93.75 70.1489C93.6894 70.1127 93.6288 70.0766 93.5664 70.0394C92.9687 69.708 92.4386 69.5092 91.75 69.6484C91.5934 69.7541 91.5934 69.7541 91.5 69.8986C91.4803 70.1129 91.4803 70.1129 91.5833 70.3157C91.9415 70.5269 92.2955 70.6308 92.6979 70.7275C93.4229 70.9125 93.9796 71.0974 94.4167 71.7337C94.5812 72.1264 94.5326 72.5534 94.401 72.9483C94.0851 73.5481 93.8262 73.8043 93.1794 74.0112C92.2583 74.2145 91.2611 74.1035 90.4508 73.6019C90.2938 73.4854 90.1448 73.3664 90 73.2351C90.1238 72.852 90.3208 72.6148 90.5833 72.3175C90.7461 72.3979 90.9073 72.4791 91.0658 72.5678C91.5798 72.848 92.1625 73.0763 92.75 72.9223C93.0043 72.8348 93.0043 72.8348 93.1667 72.6512C93.1806 72.4357 93.1806 72.4357 93.1667 72.2341C92.8037 72.0369 92.4638 71.9225 92.0625 71.8275C91.4259 71.6661 90.8324 71.4946 90.3698 71.009C90.1621 70.5301 90.0942 70.0498 90.25 69.5441C90.4584 69.0748 90.8238 68.8199 91.2708 68.594C92.0309 68.3182 92.9067 68.4066 93.6429 68.7178Z" fill="#8A8D93"/>
<path d="M32.4299 68.5557C32.5909 68.5571 32.5909 68.5571 32.7551 68.5586C32.8626 68.5593 32.9701 68.5601 33.0809 68.5609C33.1642 68.5618 33.2474 68.5628 33.3332 68.5638C33.3344 68.6618 33.3356 68.7598 33.3369 68.8608C33.3417 69.2263 33.3482 69.5918 33.3551 69.9572C33.3578 70.115 33.3602 70.2729 33.3621 70.4307C33.3649 70.6583 33.3692 70.8858 33.3739 71.1134C33.3744 71.1834 33.375 71.2533 33.3755 71.3254C33.3888 71.8624 33.4714 72.2835 33.8592 72.6822C34.1758 72.8738 34.4018 72.9341 34.7701 72.8673C35.1207 72.7707 35.2985 72.6909 35.5415 72.4112C35.7633 71.9488 35.7658 71.503 35.7762 70.9994C35.778 70.9296 35.7797 70.8598 35.7815 70.7879C35.7869 70.5662 35.7918 70.3444 35.7967 70.1226C35.8004 69.9718 35.804 69.821 35.8077 69.6701C35.8166 69.3014 35.825 68.9326 35.8332 68.5638C36.2182 68.5638 36.6032 68.5638 36.9999 68.5638C37.0082 69.0712 37.0142 69.5786 37.0182 70.086C37.0199 70.2583 37.0221 70.4306 37.025 70.6029C37.0291 70.8518 37.031 71.1007 37.0324 71.3496C37.0341 71.4256 37.0359 71.5016 37.0376 71.5798C37.0379 72.2704 36.8677 72.8739 36.3957 73.3912C35.7912 73.9418 35.1345 74.1011 34.3316 74.0924C33.6907 74.0319 33.106 73.7895 32.6665 73.3182C32.0158 72.4176 32.0579 71.366 32.0661 70.3025C32.0676 70.094 32.0678 69.8856 32.0677 69.6772C32.0682 69.5448 32.0686 69.4124 32.0692 69.28C32.0693 69.2176 32.0694 69.1552 32.0695 69.091C32.0744 68.5667 32.0744 68.5667 32.4299 68.5557Z" fill="#8A8D93"/>
<path d="M84.8335 68.5637C85.2821 68.5569 85.7307 68.55 86.1929 68.5429C86.3324 68.5399 86.472 68.5368 86.6158 68.5337C87.3629 68.5241 88.1589 68.5167 88.7491 69.0459C89.1377 69.4706 89.3212 69.9018 89.3335 70.4822C89.3004 71.0098 89.127 71.3793 88.756 71.7559C87.9644 72.4182 86.9731 72.2585 86.0002 72.2338C86.0002 72.8119 86.0002 73.3899 86.0002 73.9855C85.6152 73.9855 85.2302 73.9855 84.8335 73.9855C84.8335 72.1963 84.8335 70.4071 84.8335 68.5637ZM86.0002 69.6481C86.0002 70.1436 86.0002 70.639 86.0002 71.1495C86.3147 71.1572 86.3147 71.1572 86.6356 71.1651C86.7006 71.1674 86.7657 71.1697 86.8327 71.172C87.3012 71.1776 87.6432 71.0775 87.995 70.7481C88.1234 70.4834 88.0922 70.3416 88.0002 70.0651C87.66 69.7247 87.4152 69.6525 86.9442 69.6399C86.8309 69.6404 86.7176 69.6415 86.6043 69.6429C86.405 69.6446 86.2056 69.6463 86.0002 69.6481Z" fill="#8A8E93"/>
<path d="M70.4165 59.1387C70.8565 59.1387 71.2965 59.1387 71.7498 59.1387C71.9771 59.5831 72.1831 60.0292 72.3709 60.4915C72.3964 60.5535 72.4218 60.6155 72.448 60.6794C72.528 60.8747 72.6077 61.0702 72.6873 61.2657C72.742 61.3993 72.7967 61.5328 72.8514 61.6664C72.9845 61.9915 73.1172 62.3167 73.2498 62.6419C73.598 61.9862 73.8646 61.297 74.1405 60.6088C74.2146 60.4246 74.2887 60.2404 74.363 60.0562C74.4089 59.9423 74.4547 59.8283 74.5004 59.7142C74.6574 59.3238 74.6574 59.3238 74.7498 59.1387C75.1898 59.1387 75.6298 59.1387 76.0832 59.1387C76.0255 59.4272 75.9768 59.6389 75.8696 59.9022C75.8299 60.0005 75.8299 60.0005 75.7894 60.1007C75.7606 60.1708 75.7319 60.2408 75.7023 60.3129C75.6724 60.3868 75.6424 60.4606 75.6116 60.5366C75.5156 60.7728 75.4192 61.0088 75.3228 61.2448C75.2598 61.3997 75.1969 61.5545 75.134 61.7094C74.9805 62.087 74.8264 62.4642 74.6721 62.8414C74.5844 63.056 74.497 63.2708 74.4097 63.4857C74.3567 63.6158 74.3036 63.746 74.2505 63.8762C74.2262 63.9361 74.2019 63.996 74.1769 64.0578C74.0093 64.4675 74.0093 64.4675 73.9165 64.5604C73.6918 64.5665 73.4693 64.5681 73.2446 64.5656C73.1814 64.5652 73.1182 64.5649 73.0531 64.5645C72.8964 64.5635 72.7398 64.562 72.5832 64.5604C72.0368 63.265 71.4936 61.9684 70.9629 60.6665C70.9146 60.5481 70.8662 60.4298 70.8178 60.3115C70.75 60.146 70.6826 59.9804 70.6154 59.8148C70.5769 59.7203 70.5384 59.6258 70.4988 59.5284C70.4165 59.3055 70.4165 59.3055 70.4165 59.1387Z" fill="#898E93"/>
<path d="M10.0387 68.9474C10.1972 69.065 10.3503 69.1855 10.4999 69.3142C10.3867 69.5717 10.2628 69.7385 10.052 69.9242C10.0032 69.9686 9.95448 70.013 9.90423 70.0587C9.74994 70.1483 9.74994 70.1483 9.57839 70.1311C9.4166 70.0649 9.4166 70.0649 9.19264 69.8981C8.84717 69.6893 8.56818 69.6296 8.1666 69.6479C7.70706 69.7935 7.30878 69.9815 7.06406 70.4123C6.84453 70.8967 6.75808 71.3016 6.9166 71.8166C7.10113 72.2445 7.33639 72.5547 7.7597 72.7602C8.25054 72.9396 8.61877 72.9255 9.10313 72.7328C9.25843 72.6565 9.25843 72.6565 9.37331 72.5112C9.49994 72.4004 9.49994 72.4004 9.66009 72.4079C9.87361 72.5015 10.0158 72.6235 10.1874 72.781C10.2757 72.8612 10.2757 72.8612 10.3658 72.9429C10.4322 73.0047 10.4322 73.0047 10.4999 73.0677C10.3198 73.5255 9.9209 73.6905 9.49994 73.9018C8.74201 74.203 7.90726 74.1329 7.1666 73.8184C6.36881 73.3927 5.88945 72.8306 5.58327 71.9834C5.37627 71.2582 5.53404 70.5768 5.83327 69.8981C6.29432 69.216 6.85771 68.8355 7.60931 68.5375C8.48426 68.3742 9.28168 68.455 10.0387 68.9474Z" fill="#8A8E93"/>
<path d="M23.0002 59.3888C23.2406 59.5672 23.4574 59.7588 23.6668 59.9727C23.528 60.1117 23.3891 60.2507 23.2502 60.3897C23.1935 60.4551 23.1367 60.5205 23.0783 60.5878C22.9168 60.7234 22.9168 60.7234 22.7606 60.7234C22.5835 60.64 22.5835 60.64 22.3596 60.4732C21.9657 60.2352 21.6094 60.1751 21.1548 60.2539C20.6194 60.4188 20.3258 60.7823 20.0523 61.2551C19.9235 61.7963 19.9521 62.2546 20.228 62.7428C20.5054 63.1353 20.8585 63.3809 21.3335 63.476C21.8559 63.4594 22.143 63.3303 22.5835 63.0589C22.7424 62.9862 22.7424 62.9862 22.9168 62.9755C23.1135 63.1133 23.1135 63.1133 23.3127 63.3039C23.3793 63.3666 23.4459 63.4293 23.5145 63.4939C23.5648 63.543 23.615 63.5921 23.6668 63.6428C23.2967 64.1922 22.7898 64.4213 22.1646 64.6118C21.4425 64.752 20.7385 64.6361 20.0835 64.3101C19.3766 63.8085 18.8284 63.1757 18.6668 62.3082C18.5787 61.4412 18.7889 60.6432 19.342 59.9603C20.3349 58.9909 21.762 58.7231 23.0002 59.3888Z" fill="#8A8E93"/>
<path d="M60.9165 77.5723C61.439 77.5723 61.9615 77.5723 62.4998 77.5723C62.4998 78.921 62.4998 80.2698 62.4998 81.6594C63.3523 81.6594 64.2048 81.6594 65.0832 81.6594C65.0832 82.1274 65.0832 82.5953 65.0832 83.0774C63.7082 83.0774 62.3332 83.0774 60.9165 83.0774C60.9165 81.2607 60.9165 79.444 60.9165 77.5723Z" fill="#0085FF"/>
<path d="M52 68.5645C52.4675 68.5645 52.935 68.5645 53.4167 68.5645C53.8017 69.2526 54.1867 69.9408 54.5833 70.6497C54.6383 70.6497 54.6933 70.6497 54.75 70.6497C54.8373 70.5013 54.9168 70.3481 54.9928 70.1936C55.7821 68.6782 55.7821 68.6782 56.1893 68.4657C56.5877 68.3824 56.9478 68.4504 57.3333 68.5645C57.2023 69.0683 56.9316 69.4695 56.6562 69.9043C56.5835 70.0224 56.5835 70.0224 56.5094 70.1428C56.1025 70.8012 56.1025 70.8012 55.8665 71.0991C55.222 71.9589 55.3204 72.9504 55.3333 73.9862C54.9208 73.9862 54.5083 73.9862 54.0833 73.9862C54.0909 73.8639 54.0984 73.7417 54.1061 73.6157C54.1458 72.2359 53.7717 71.3985 52.986 70.2844C52.7595 69.9602 52.5519 69.6252 52.3438 69.2891C52.3086 69.2342 52.2734 69.1793 52.2372 69.1228C52 68.75 52 68.75 52 68.5645Z" fill="#8A8D93"/>
<path d="M46.9165 68.5645C48.429 68.5645 49.9415 68.5645 51.4998 68.5645C51.4998 68.9223 51.4998 69.2801 51.4998 69.6488C50.9498 69.6488 50.3998 69.6488 49.8332 69.6488C49.8332 71.0801 49.8332 72.5115 49.8332 73.9862C49.4207 73.9862 49.0082 73.9862 48.5832 73.9862C48.5832 72.5548 48.5832 71.1235 48.5832 69.6488C48.0332 69.6488 47.4832 69.6488 46.9165 69.6488C46.9165 69.291 46.9165 68.9331 46.9165 68.5645Z" fill="#8A8D93"/>
<path d="M62.6665 59.1387C64.179 59.1387 65.6915 59.1387 67.2498 59.1387C67.2498 59.4965 67.2498 59.8543 67.2498 60.223C66.6998 60.223 66.1498 60.223 65.5832 60.223C65.5832 61.6544 65.5832 63.0857 65.5832 64.5604C65.1707 64.5604 64.7582 64.5604 64.3332 64.5604C64.3332 63.1291 64.3332 61.6977 64.3332 60.223C63.7832 60.223 63.2332 60.223 62.6665 60.223C62.6665 59.8652 62.6665 59.5073 62.6665 59.1387Z" fill="#898D94"/>
<path d="M24.6665 59.1387C25.0515 59.1387 25.4365 59.1387 25.8332 59.1387C25.8332 60.57 25.8332 62.0013 25.8332 63.4761C26.7132 63.4761 27.5932 63.4761 28.4998 63.4761C28.4998 63.8339 28.4998 64.1917 28.4998 64.5604C27.2348 64.5604 25.9698 64.5604 24.6665 64.5604C24.6665 62.7712 24.6665 60.9821 24.6665 59.1387Z" fill="#898D93"/>
<path d="M68.25 59.1387C68.6625 59.1387 69.075 59.1387 69.5 59.1387C69.5 60.9278 69.5 62.717 69.5 64.5604C69.0875 64.5604 68.675 64.5604 68.25 64.5604C68.25 62.7712 68.25 60.9821 68.25 59.1387Z" fill="#898D94"/>
<path d="M44.75 68.5645C45.135 68.5645 45.52 68.5645 45.9167 68.5645C45.9167 70.3536 45.9167 72.1428 45.9167 73.9862C45.5317 73.9862 45.1467 73.9862 44.75 73.9862C44.6008 73.8368 44.656 73.6139 44.6559 73.4122C44.6556 73.3073 44.6554 73.2024 44.6551 73.0943C44.6552 72.9789 44.6554 72.8635 44.6556 72.748C44.6555 72.6305 44.6555 72.5131 44.6554 72.3956C44.6552 72.149 44.6554 71.9025 44.6558 71.6559C44.6563 71.3392 44.656 71.0225 44.6555 70.7059C44.6552 70.4631 44.6553 70.2204 44.6555 69.9777C44.6556 69.8609 44.6555 69.7441 44.6553 69.6273C44.6551 69.4643 44.6555 69.3014 44.6559 69.1384C44.656 69.0455 44.656 68.9526 44.6561 68.8568C44.6667 68.6479 44.6667 68.6479 44.75 68.5645Z" fill="#898D94"/>
</svg>
