<svg width="24" height="24" viewBox="0 0 24 24" fill="none" xmlns="http://www.w3.org/2000/svg">
<mask id="mask0_1370_16086" style="mask-type:alpha" maskUnits="userSpaceOnUse" x="0" y="0" width="24" height="24">
<rect width="24" height="24" fill="#D9D9D9"/>
</mask>
<g mask="url(#mask0_1370_16086)">
<path d="M2 21V4.75L7 1L12 4.75V7H22V21H2ZM4 19H6V17H4V19ZM4 15H6V13H4V15ZM4 11H6V9H4V11ZM4 7H6V5H4V7ZM8 7H10V5H8V7ZM8 19H20V9H8V19ZM14 13V11H18V13H14ZM14 17V15H18V17H14ZM10 13V11H12V13H10ZM10 17V15H12V17H10Z" fill="#FEFAE0"/>
</g>
</svg>
