<svg width="64" height="64" viewBox="0 0 64 64" fill="none" xmlns="http://www.w3.org/2000/svg">
<path d="M58.7199 44.8533L50.3732 25.3333C48.8532 21.76 46.5865 19.7333 43.9999 19.6C41.4399 19.4666 38.9599 21.2533 37.0665 24.6666L31.9999 33.76C30.9332 35.68 29.4132 36.8266 27.7599 36.96C26.0799 37.12 24.3999 36.24 23.0399 34.5066L22.4532 33.76C20.5599 31.3866 18.2132 30.24 15.8132 30.48C13.4132 30.72 11.3599 32.3733 9.99988 35.0666L5.38655 44.2666C3.73321 47.6 3.89321 51.4666 5.83988 54.6133C7.78655 57.76 11.1732 59.6533 14.8799 59.6533H48.9065C52.4799 59.6533 55.8132 57.8666 57.7865 54.88C59.8132 51.8933 60.1332 48.1333 58.7199 44.8533Z" fill="#ACACAC"/>
<path d="M18.5866 22.3467C23.5645 22.3467 27.5999 18.3113 27.5999 13.3333C27.5999 8.35541 23.5645 4.32001 18.5866 4.32001C13.6086 4.32001 9.57324 8.35541 9.57324 13.3333C9.57324 18.3113 13.6086 22.3467 18.5866 22.3467Z" fill="#ACACAC"/>
</svg>
