<svg width="25" height="25" viewBox="0 0 25 25" fill="none" xmlns="http://www.w3.org/2000/svg">
<mask id="mask0_1707_6188" style="mask-type:alpha" maskUnits="userSpaceOnUse" x="0" y="0" width="25" height="25">
<rect x="0.235352" y="0.5" width="24" height="24" fill="#D9D9D9"/>
</mask>
<g mask="url(#mask0_1707_6188)">
<path d="M9.23535 18.5C8.68535 18.5 8.21452 18.3042 7.82285 17.9125C7.43118 17.5208 7.23535 17.05 7.23535 16.5V4.5C7.23535 3.95 7.43118 3.47917 7.82285 3.0875C8.21452 2.69583 8.68535 2.5 9.23535 2.5H18.2354C18.7854 2.5 19.2562 2.69583 19.6479 3.0875C20.0395 3.47917 20.2354 3.95 20.2354 4.5V16.5C20.2354 17.05 20.0395 17.5208 19.6479 17.9125C19.2562 18.3042 18.7854 18.5 18.2354 18.5H9.23535ZM9.23535 16.5H18.2354V4.5H9.23535V16.5ZM5.23535 22.5C4.68535 22.5 4.21452 22.3042 3.82285 21.9125C3.43118 21.5208 3.23535 21.05 3.23535 20.5V6.5H5.23535V20.5H16.2354V22.5H5.23535Z" fill="#FEFAE0"/>
</g>
</svg>
