<svg width="62" height="62" viewBox="0 0 62 62" fill="none" xmlns="http://www.w3.org/2000/svg">
<mask id="mask0_1563_5796" style="mask-type:alpha" maskUnits="userSpaceOnUse" x="0" y="0" width="62" height="62">
<rect x="0.714844" y="0.572266" width="61" height="61" fill="#D9D9D9"/>
</mask>
<g mask="url(#mask0_1563_5796)">
<path d="M46.4642 53.9473L56.6309 43.7806L53.0725 40.2223L49.0059 44.289V33.6775H43.9225V44.289L39.8559 40.2223L36.2975 43.7806L46.4642 53.9473ZM36.2975 61.5723V56.489H56.6309V61.5723H36.2975ZM15.9642 51.4056C14.5663 51.4056 13.3696 50.9079 12.3741 49.9124C11.3786 48.9169 10.8809 47.7202 10.8809 46.3223V10.739C10.8809 9.34106 11.3786 8.14436 12.3741 7.14887C13.3696 6.15338 14.5663 5.65564 15.9642 5.65564H33.7559L49.0059 20.9056V28.5942H43.9225V23.4473H31.2142V10.739H15.9642V46.3223H31.2142V51.4056H15.9642Z" fill="#010100"/>
</g>
</svg>
