<svg width="300" height="142" viewBox="0 0 300 142" fill="none" xmlns="http://www.w3.org/2000/svg">
<path fill-rule="evenodd" clip-rule="evenodd" d="M33.1153 140.448H58.7041V80.5055L33.1153 70.7644V140.448ZM33.1153 32.1429V23.044C36.0058 8.22052 46.6419 0 64.6768 0C71.2276 0 76.8149 1.15594 81.2463 3.08252V24.2749C78.3563 23.1189 74.5029 22.541 71.0349 22.541C63.7135 22.541 58.8968 25.4308 58.8968 32.5592V35.0878H58.7041V41.884L33.1153 32.1429Z" fill="white"/>
<path d="M72.8572 78.8392L0 51.1041L13.791 30.5857L87.1535 58.5131L72.8572 78.8392Z" fill="#FF002B"/>
<path d="M125.687 76.726C125.687 84.6731 120.196 90.3083 112.249 90.3083C104.301 90.3083 98.6654 84.6731 98.6654 76.726C98.6654 68.6343 104.301 62.9991 112.249 62.9991C120.196 62.9991 125.687 68.6343 125.687 76.726ZM125.687 127.588C125.687 135.535 120.196 141.17 112.249 141.17C104.301 141.17 98.6654 135.535 98.6654 127.588C98.6654 119.496 104.301 113.861 112.249 113.861C120.196 113.861 125.687 119.496 125.687 127.588Z" fill="#FF002B"/>
<path d="M213.472 122.53V140.448H145.267V129.033L174.89 98.6889C186.161 87.1295 190.93 81.0608 190.93 72.5357C190.93 64.5885 185.583 59.2423 177.057 59.2423C167.665 59.2423 161.885 65.1665 161.885 74.7031H142.377C142.377 55.1965 157.116 41.3251 178.069 41.3251C197.577 41.3251 211.882 53.607 211.882 70.0793C211.882 81.9277 207.547 89.4414 190.496 106.636L175.757 122.53H213.472Z" fill="white"/>
<path d="M300 121.23H286.272V140.448H266.331V121.23H219.946V106.347L270.377 42.77H286.272V103.746H300V121.23ZM241.91 103.746H266.331V71.5242L241.91 103.746Z" fill="white"/>
</svg>
