<svg width="49" height="49" viewBox="0 0 49 49" fill="none" xmlns="http://www.w3.org/2000/svg">
<g clip-path="url(#clip0_1542_12779)">
<path fill-rule="evenodd" clip-rule="evenodd" d="M24.2298 0.354004C17.8839 0.354799 11.7982 2.87603 7.31099 7.36323C2.82379 11.8504 0.302553 17.9361 0.301758 24.282C0.301758 34.848 7.20176 43.803 16.5948 47.034C17.7708 47.181 18.2088 46.446 18.2088 45.858V41.748C11.6058 43.218 10.1388 38.52 10.1388 38.52C9.10976 35.73 7.49576 34.995 7.49576 34.995C5.29376 33.528 7.63976 33.528 7.63976 33.528C9.98876 33.675 11.3118 36.024 11.3118 36.024C13.5138 39.693 16.8888 38.664 18.2118 38.079C18.3558 36.465 19.0908 35.439 19.6788 34.851C14.3928 34.263 8.81576 32.208 8.81576 22.959C8.81576 20.319 9.69476 18.261 11.3118 16.5C11.1618 16.059 10.2828 13.566 11.6058 10.335C11.6058 10.335 13.6608 9.747 18.2088 12.831C20.1168 12.243 22.1748 12.096 24.2298 12.096C26.2848 12.096 28.3398 12.39 30.2478 12.831C34.7988 9.75 36.8538 10.335 36.8538 10.335C38.1738 13.566 37.2918 16.059 37.1448 16.647C38.7614 18.4083 39.653 20.7153 39.6408 23.106C39.6408 32.355 34.0608 34.263 28.7808 34.851C29.6598 35.583 30.3948 37.05 30.3948 39.252V45.858C30.3948 46.446 30.8328 47.178 32.0088 47.034C36.7668 45.4283 40.8998 42.3677 43.8235 38.2849C46.7473 34.2021 48.3138 29.3037 48.3018 24.282C48.1548 11.07 37.4418 0.354004 24.2298 0.354004Z" fill="#010100"/>
</g>
<defs>
<clipPath id="clip0_1542_12779">
<rect width="48" height="48" fill="white" transform="translate(0.301758 0.354004)"/>
</clipPath>
</defs>
</svg>
