<svg width="1112" height="1112" viewBox="0 0 1112 1112" fill="none" xmlns="http://www.w3.org/2000/svg">
<g style="mix-blend-mode:plus-lighter" opacity="0.8">
<line x1="12.0964" y1="3.37549e-08" x2="12.0964" y2="1112" stroke="#FEFAE0" stroke-opacity="0.28" stroke-width="1.54444"/>
<line x1="63.5779" y1="3.37549e-08" x2="63.5778" y2="1112" stroke="#FEFAE0" stroke-opacity="0.28" stroke-width="1.54444"/>
<line x1="115.059" y1="3.37549e-08" x2="115.059" y2="1112" stroke="#FEFAE0" stroke-opacity="0.28" stroke-width="1.54444"/>
<line x1="166.542" y1="3.37549e-08" x2="166.542" y2="1112" stroke="#FEFAE0" stroke-opacity="0.28" stroke-width="1.54444"/>
<line x1="218.022" y1="3.37549e-08" x2="218.022" y2="1112" stroke="#FEFAE0" stroke-opacity="0.28" stroke-width="1.54444"/>
<line x1="269.505" y1="3.37549e-08" x2="269.505" y2="1112" stroke="#FEFAE0" stroke-opacity="0.28" stroke-width="1.54444"/>
<line x1="320.986" y1="3.37549e-08" x2="320.986" y2="1112" stroke="#FEFAE0" stroke-opacity="0.28" stroke-width="1.54444"/>
<line x1="372.468" y1="3.37549e-08" x2="372.467" y2="1112" stroke="#FEFAE0" stroke-opacity="0.28" stroke-width="1.54444"/>
<line x1="423.949" y1="3.37549e-08" x2="423.949" y2="1112" stroke="#FEFAE0" stroke-opacity="0.28" stroke-width="1.54444"/>
<line x1="475.43" y1="3.37549e-08" x2="475.43" y2="1112" stroke="#FEFAE0" stroke-opacity="0.28" stroke-width="1.54444"/>
<line x1="526.912" y1="3.37549e-08" x2="526.912" y2="1112" stroke="#FEFAE0" stroke-opacity="0.28" stroke-width="1.54444"/>
<line x1="578.393" y1="3.37549e-08" x2="578.393" y2="1112" stroke="#FEFAE0" stroke-opacity="0.28" stroke-width="1.54444"/>
<line x1="629.875" y1="3.37549e-08" x2="629.875" y2="1112" stroke="#FEFAE0" stroke-opacity="0.28" stroke-width="1.54444"/>
<line x1="681.356" y1="3.37549e-08" x2="681.356" y2="1112" stroke="#FEFAE0" stroke-opacity="0.28" stroke-width="1.54444"/>
<line x1="732.838" y1="3.37549e-08" x2="732.838" y2="1112" stroke="#FEFAE0" stroke-opacity="0.28" stroke-width="1.54444"/>
<line x1="784.319" y1="3.37549e-08" x2="784.319" y2="1112" stroke="#FEFAE0" stroke-opacity="0.28" stroke-width="1.54444"/>
<line x1="835.801" y1="3.37549e-08" x2="835.8" y2="1112" stroke="#FEFAE0" stroke-opacity="0.28" stroke-width="1.54444"/>
<line x1="887.282" y1="3.37549e-08" x2="887.282" y2="1112" stroke="#FEFAE0" stroke-opacity="0.28" stroke-width="1.54444"/>
<line x1="938.763" y1="3.37549e-08" x2="938.763" y2="1112" stroke="#FEFAE0" stroke-opacity="0.28" stroke-width="1.54444"/>
<line x1="990.245" y1="3.37549e-08" x2="990.245" y2="1112" stroke="#FEFAE0" stroke-opacity="0.28" stroke-width="1.54444"/>
<line x1="1041.73" y1="3.37549e-08" x2="1041.73" y2="1112" stroke="#FEFAE0" stroke-opacity="0.28" stroke-width="1.54444"/>
<line x1="1093.21" y1="3.37549e-08" x2="1093.21" y2="1112" stroke="#FEFAE0" stroke-opacity="0.28" stroke-width="1.54444"/>
<line y1="1094.76" x2="1112" y2="1094.76" stroke="#FEFAE0" stroke-opacity="0.28" stroke-width="1.54444"/>
<line y1="1043.27" x2="1112" y2="1043.27" stroke="#FEFAE0" stroke-opacity="0.28" stroke-width="1.54444"/>
<line y1="991.792" x2="1112" y2="991.792" stroke="#FEFAE0" stroke-opacity="0.28" stroke-width="1.54444"/>
<line y1="940.311" x2="1112" y2="940.311" stroke="#FEFAE0" stroke-opacity="0.28" stroke-width="1.54444"/>
<line y1="888.829" x2="1112" y2="888.829" stroke="#FEFAE0" stroke-opacity="0.28" stroke-width="1.54444"/>
<line y1="837.348" x2="1112" y2="837.348" stroke="#FEFAE0" stroke-opacity="0.28" stroke-width="1.54444"/>
<line y1="785.866" x2="1112" y2="785.866" stroke="#FEFAE0" stroke-opacity="0.28" stroke-width="1.54444"/>
<line y1="734.385" x2="1112" y2="734.385" stroke="#FEFAE0" stroke-opacity="0.28" stroke-width="1.54444"/>
<line y1="682.903" x2="1112" y2="682.903" stroke="#FEFAE0" stroke-opacity="0.28" stroke-width="1.54444"/>
<line y1="631.422" x2="1112" y2="631.422" stroke="#FEFAE0" stroke-opacity="0.28" stroke-width="1.54444"/>
<line y1="579.94" x2="1112" y2="579.94" stroke="#FEFAE0" stroke-opacity="0.28" stroke-width="1.54444"/>
<line y1="528.458" x2="1112" y2="528.458" stroke="#FEFAE0" stroke-opacity="0.28" stroke-width="1.54444"/>
<line y1="476.977" x2="1112" y2="476.977" stroke="#FEFAE0" stroke-opacity="0.28" stroke-width="1.54444"/>
<line y1="425.496" x2="1112" y2="425.496" stroke="#FEFAE0" stroke-opacity="0.28" stroke-width="1.54444"/>
<line y1="374.014" x2="1112" y2="374.014" stroke="#FEFAE0" stroke-opacity="0.28" stroke-width="1.54444"/>
<line y1="322.532" x2="1112" y2="322.532" stroke="#FEFAE0" stroke-opacity="0.28" stroke-width="1.54444"/>
<line y1="271.051" x2="1112" y2="271.051" stroke="#FEFAE0" stroke-opacity="0.28" stroke-width="1.54444"/>
<line y1="219.57" x2="1112" y2="219.57" stroke="#FEFAE0" stroke-opacity="0.28" stroke-width="1.54444"/>
<line y1="168.088" x2="1112" y2="168.088" stroke="#FEFAE0" stroke-opacity="0.28" stroke-width="1.54444"/>
<line y1="116.606" x2="1112" y2="116.606" stroke="#FEFAE0" stroke-opacity="0.28" stroke-width="1.54444"/>
<line y1="65.125" x2="1112" y2="65.125" stroke="#FEFAE0" stroke-opacity="0.28" stroke-width="1.54444"/>
<line y1="13.6433" x2="1112" y2="13.6433" stroke="#FEFAE0" stroke-opacity="0.28" stroke-width="1.54444"/>
</g>
</svg>
