<svg width="40" height="40" viewBox="0 0 40 40" fill="none" xmlns="http://www.w3.org/2000/svg">
<path d="M26.9835 3.33331H13.0168C6.95016 3.33331 3.3335 6.94998 3.3335 13.0166V26.9666C3.3335 33.05 6.95016 36.6666 13.0168 36.6666H26.9668C33.0335 36.6666 36.6502 33.05 36.6502 26.9833V13.0166C36.6668 6.94998 33.0502 3.33331 26.9835 3.33331ZM20.0002 26.4666C16.4335 26.4666 13.5335 23.5666 13.5335 20C13.5335 16.4333 16.4335 13.5333 20.0002 13.5333C23.5668 13.5333 26.4668 16.4333 26.4668 20C26.4668 23.5666 23.5668 26.4666 20.0002 26.4666ZM29.8668 11.4666C29.7835 11.6666 29.6668 11.85 29.5168 12.0166C29.3502 12.1666 29.1668 12.2833 28.9668 12.3666C28.7668 12.45 28.5502 12.5 28.3335 12.5C27.8835 12.5 27.4668 12.3333 27.1502 12.0166C27.0002 11.85 26.8835 11.6666 26.8002 11.4666C26.7168 11.2666 26.6668 11.05 26.6668 10.8333C26.6668 10.6166 26.7168 10.4 26.8002 10.2C26.8835 9.98331 27.0002 9.81665 27.1502 9.64998C27.5335 9.26665 28.1168 9.08331 28.6502 9.19998C28.7668 9.21665 28.8668 9.24998 28.9668 9.29998C29.0668 9.33331 29.1668 9.38331 29.2668 9.44998C29.3502 9.49998 29.4335 9.58331 29.5168 9.64998C29.6668 9.81665 29.7835 9.98331 29.8668 10.2C29.9502 10.4 30.0002 10.6166 30.0002 10.8333C30.0002 11.05 29.9502 11.2666 29.8668 11.4666Z" fill="#FEFAE0"/>
</svg>
