<svg width="40" height="40" viewBox="0 0 40 40" fill="none" xmlns="http://www.w3.org/2000/svg">
<g clip-path="url(#clip0_525_3115)">
<path d="M11.5666 8.33335C11.5661 9.21741 11.2145 10.0651 10.5891 10.6899C9.96365 11.3147 9.11562 11.6655 8.23157 11.665C7.34751 11.6646 6.49984 11.313 5.87503 10.6875C5.25023 10.0621 4.89946 9.21407 4.8999 8.33002C4.90034 7.44596 5.25196 6.59829 5.87739 5.97348C6.50283 5.34868 7.35085 4.99791 8.2349 4.99835C9.11896 4.99879 9.96663 5.35041 10.5914 5.97584C11.2162 6.60128 11.567 7.4493 11.5666 8.33335ZM11.6666 14.1334H4.9999V35H11.6666V14.1334ZM22.1999 14.1334H15.5666V35H22.1332V24.05C22.1332 17.95 30.0832 17.3834 30.0832 24.05V35H36.6666V21.7834C36.6666 11.5 24.8999 11.8834 22.1332 16.9334L22.1999 14.1334Z" fill="#FEFAE0"/>
</g>
<defs>
<clipPath id="clip0_525_3115">
<rect width="40" height="40" fill="white"/>
</clipPath>
</defs>
</svg>
