<svg width="40" height="40" viewBox="0 0 40 40" fill="none" xmlns="http://www.w3.org/2000/svg">
<g clip-path="url(#clip0_504_10311)">
<path d="M11.5666 8.33329C11.5661 9.21735 11.2145 10.065 10.5891 10.6898C9.96365 11.3146 9.11562 11.6654 8.23157 11.665C7.34751 11.6645 6.49984 11.3129 5.87503 10.6875C5.25023 10.062 4.89946 9.21401 4.8999 8.32996C4.90034 7.4459 5.25196 6.59823 5.87739 5.97342C6.50283 5.34861 7.35085 4.99785 8.2349 4.99829C9.11896 4.99873 9.96663 5.35035 10.5914 5.97578C11.2162 6.60121 11.567 7.44924 11.5666 8.33329ZM11.6666 14.1333H4.9999V35H11.6666V14.1333ZM22.1999 14.1333H15.5666V35H22.1332V24.05C22.1332 17.95 30.0832 17.3833 30.0832 24.05V35H36.6666V21.7833C36.6666 11.5 24.8999 11.8833 22.1332 16.9333L22.1999 14.1333Z" fill="#010100"/>
</g>
<defs>
<clipPath id="clip0_504_10311">
<rect width="40" height="40" fill="white"/>
</clipPath>
</defs>
</svg>
