<svg width="45" height="45" viewBox="0 0 45 45" fill="none" xmlns="http://www.w3.org/2000/svg">
<path d="M22.5 25V2.5C22.5 1.79167 22.7396 1.19792 23.2188 0.71875C23.6979 0.239583 24.2917 0 25 0H42.5C43.2083 0 43.8021 0.239583 44.2812 0.71875C44.7604 1.19792 45 1.79167 45 2.5V15C45 15.7083 44.7604 16.3021 44.2812 16.7812C43.8021 17.2604 43.2083 17.5 42.5 17.5H30L22.5 25ZM27.5 12.5H40V5H27.5V12.5ZM42.375 45C37.1667 45 32.0208 43.8646 26.9375 41.5938C21.8542 39.3229 17.2292 36.1042 13.0625 31.9375C8.89583 27.7708 5.67708 23.1458 3.40625 18.0625C1.13542 12.9792 0 7.83333 0 2.625C0 1.875 0.25 1.25 0.75 0.75C1.25 0.25 1.875 0 2.625 0H12.75C13.3333 0 13.8542 0.197917 14.3125 0.59375C14.7708 0.989583 15.0417 1.45833 15.125 2L16.75 10.75C16.8333 11.4167 16.8125 11.9792 16.6875 12.4375C16.5625 12.8958 16.3333 13.2917 16 13.625L9.9375 19.75C10.7708 21.2917 11.7604 22.7812 12.9062 24.2188C14.0521 25.6562 15.3125 27.0417 16.6875 28.375C17.9792 29.6667 19.3333 30.8646 20.75 31.9688C22.1667 33.0729 23.6667 34.0833 25.25 35L31.125 29.125C31.5 28.75 31.9896 28.4688 32.5938 28.2812C33.1979 28.0938 33.7917 28.0417 34.375 28.125L43 29.875C43.5833 30.0417 44.0625 30.3438 44.4375 30.7812C44.8125 31.2188 45 31.7083 45 32.25V42.375C45 43.125 44.75 43.75 44.25 44.25C43.75 44.75 43.125 45 42.375 45ZM7.5625 15L11.6875 10.875L10.625 5H5.0625C5.27083 6.70833 5.5625 8.39583 5.9375 10.0625C6.3125 11.7292 6.85417 13.375 7.5625 15ZM29.9375 37.375C31.5625 38.0833 33.2188 38.6458 34.9062 39.0625C36.5938 39.4792 38.2917 39.75 40 39.875V34.375L34.125 33.1875L29.9375 37.375Z" fill="#FEFAE0"/>
</svg>
