<svg width="40" height="40" viewBox="0 0 40 40" fill="none" xmlns="http://www.w3.org/2000/svg">
<mask id="mask0_1201_4456" style="mask-type:alpha" maskUnits="userSpaceOnUse" x="0" y="0" width="40" height="40">
<rect width="40" height="40" fill="#D9D9D9"/>
</mask>
<g mask="url(#mask0_1201_4456)">
<path d="M6.66683 33.3333C5.75016 33.3333 4.96544 33.0069 4.31266 32.3541C3.65989 31.7013 3.3335 30.9166 3.3335 30V9.99996C3.3335 9.08329 3.65989 8.29857 4.31266 7.64579C4.96544 6.99301 5.75016 6.66663 6.66683 6.66663H33.3335C34.2502 6.66663 35.0349 6.99301 35.6877 7.64579C36.3404 8.29857 36.6668 9.08329 36.6668 9.99996V30C36.6668 30.9166 36.3404 31.7013 35.6877 32.3541C35.0349 33.0069 34.2502 33.3333 33.3335 33.3333H6.66683ZM20.0002 21.6666L6.66683 13.3333V30H33.3335V13.3333L20.0002 21.6666ZM20.0002 18.3333L33.3335 9.99996H6.66683L20.0002 18.3333ZM6.66683 13.3333V9.99996V30V13.3333Z" fill="#FEFAE0"/>
</g>
</svg>
