<svg width="60" height="60" viewBox="0 0 60 60" fill="none" xmlns="http://www.w3.org/2000/svg">
<path d="M5.72498 19.45V43.775C5.72498 48.525 9.09998 50.475 13.2 48.125L19.075 44.775C20.35 44.05 22.475 43.975 23.8 44.65L36.925 51.225C38.25 51.875 40.375 51.825 41.65 51.1L52.475 44.9C53.85 44.1 55 42.15 55 40.55V16.225C55 11.475 51.625 9.525 47.525 11.875L41.65 15.225C40.375 15.95 38.25 16.025 36.925 15.35L23.8 8.8C22.475 8.15 20.35 8.2 19.075 8.925L8.24998 15.125C6.84998 15.925 5.72498 17.875 5.72498 19.45Z" stroke="#FEFAE0" stroke-width="1.5" stroke-linecap="round" stroke-linejoin="round"/>
<path d="M21.4 10V42.5" stroke="#FEFAE0" stroke-width="1.5" stroke-linecap="round" stroke-linejoin="round"/>
<path d="M39.325 16.55V50" stroke="#FEFAE0" stroke-width="1.5" stroke-linecap="round" stroke-linejoin="round"/>
</svg>
