<svg width="288" height="587" viewBox="0 0 288 587" fill="none" xmlns="http://www.w3.org/2000/svg">
<g filter="url(#filter0_i_965_2077)">
<path d="M2.03294 68.0262C2.03294 44.2148 2.03294 32.3091 6.61221 23.2143C10.6402 15.2144 17.0676 8.71019 24.973 4.63401C33.9604 0 45.7254 0 69.2555 0H218.744C242.275 0 254.04 0 263.027 4.63401C270.932 8.71019 277.36 15.2144 281.388 23.2143C285.967 32.3091 285.967 44.2148 285.967 68.0262V518.974C285.967 542.785 285.967 554.691 281.388 563.786C277.36 571.786 270.932 578.29 263.027 582.366C254.04 587 242.275 587 218.744 587H69.2555C45.7254 587 33.9604 587 24.973 582.366C17.0676 578.29 10.6402 571.786 6.61221 563.786C2.03294 554.691 2.03294 542.785 2.03294 518.974V68.0262Z" fill="#FF002B"/>
<path d="M4.74353 66.3804C4.74353 44.1052 4.74353 32.9676 9.02736 24.4596C12.7955 16.9758 18.8082 10.8912 26.2036 7.07803C34.6111 2.74299 45.6171 2.74299 67.6292 2.74299H220.371C242.383 2.74299 253.389 2.74299 261.796 7.07803C269.192 10.8912 275.204 16.9758 278.973 24.4596C283.256 32.9676 283.256 44.1052 283.256 66.3804V520.62C283.256 542.895 283.256 554.032 278.973 562.54C275.204 570.024 269.192 576.109 261.796 579.922C253.389 584.257 242.383 584.257 220.371 584.257H67.6292C45.6171 584.257 34.6111 584.257 26.2036 579.922C18.8082 576.109 12.7955 570.024 9.02736 562.54C4.74353 554.032 4.74353 542.895 4.74353 520.62V66.3804Z" fill="#FFF3B0"/>
<path d="M0 94.3589C0 93.9748 0 93.7828 0.0738591 93.6361C0.138827 93.5071 0.242494 93.4022 0.370002 93.3364C0.514958 93.2617 0.704717 93.2617 1.08424 93.2617H2.03294V113.834H1.08424C0.704717 113.834 0.514958 113.834 0.370002 113.759C0.242494 113.694 0.138827 113.589 0.0738591 113.46C0 113.313 0 113.121 0 112.737V94.3589Z" fill="#FF002B"/>
<path d="M0 136.875C0 136.491 0 136.299 0.0738591 136.152C0.138827 136.023 0.242494 135.919 0.370002 135.853C0.514958 135.778 0.704717 135.778 1.08424 135.778H2.03294V178.294H1.08424C0.704717 178.294 0.514958 178.294 0.370002 178.22C0.242494 178.154 0.138827 178.049 0.0738591 177.92C0 177.773 0 177.581 0 177.197V136.875Z" fill="#FF002B"/>
<path d="M0 191.735C0 191.351 0 191.159 0.0738591 191.012C0.138827 190.883 0.242494 190.778 0.370002 190.713C0.514958 190.638 0.704717 190.638 1.08424 190.638H2.03294V233.154H1.08424C0.704717 233.154 0.514958 233.154 0.370002 233.079C0.242494 233.014 0.138827 232.909 0.0738591 232.78C0 232.633 0 232.441 0 232.057V191.735Z" fill="#FF002B"/>
<path d="M285.967 150.864H286.916C287.295 150.864 287.485 150.865 287.63 150.939C287.757 151.005 287.861 151.11 287.926 151.239C288 151.386 288 151.578 288 151.962V218.342C288 218.726 288 218.918 287.926 219.065C287.861 219.194 287.757 219.299 287.63 219.365C287.485 219.439 287.295 219.439 286.916 219.439H285.967V150.864Z" fill="#FF002B"/>
</g>
<defs>
<filter id="filter0_i_965_2077" x="-1" y="0" width="289" height="587" filterUnits="userSpaceOnUse" color-interpolation-filters="sRGB">
<feFlood flood-opacity="0" result="BackgroundImageFix"/>
<feBlend mode="normal" in="SourceGraphic" in2="BackgroundImageFix" result="shape"/>
<feColorMatrix in="SourceAlpha" type="matrix" values="0 0 0 0 0 0 0 0 0 0 0 0 0 0 0 0 0 0 127 0" result="hardAlpha"/>
<feOffset dx="-1"/>
<feGaussianBlur stdDeviation="1"/>
<feComposite in2="hardAlpha" operator="arithmetic" k2="-1" k3="1"/>
<feColorMatrix type="matrix" values="0 0 0 0 1 0 0 0 0 1 0 0 0 0 1 0 0 0 0.5 0"/>
<feBlend mode="normal" in2="shape" result="effect1_innerShadow_965_2077"/>
</filter>
</defs>
</svg>
