<svg width="431" height="242" viewBox="0 0 431 242" fill="none" xmlns="http://www.w3.org/2000/svg">
<g clip-path="url(#clip0_963_2075)">
<rect width="431" height="242" fill="#010100"/>
<g filter="url(#filter0_i_963_2075)">
<path d="M73.0329 106.026C73.0329 82.2148 73.0329 70.3091 77.6122 61.2143C81.6402 53.2144 88.0676 46.7102 95.973 42.634C104.96 38 116.725 38 140.256 38H289.744C313.275 38 325.04 38 334.027 42.634C341.932 46.7102 348.36 53.2144 352.388 61.2143C356.967 70.3091 356.967 82.2148 356.967 106.026V556.974C356.967 580.785 356.967 592.691 352.388 601.786C348.36 609.786 341.932 616.29 334.027 620.366C325.04 625 313.275 625 289.744 625H140.256C116.725 625 104.96 625 95.973 620.366C88.0676 616.29 81.6402 609.786 77.6122 601.786C73.0329 592.691 73.0329 580.785 73.0329 556.974V106.026Z" fill="#FF002B"/>
<path d="M75.7435 104.38C75.7435 82.1052 75.7435 70.9676 80.0274 62.4596C83.7955 54.9758 89.8082 48.8912 97.2036 45.078C105.611 40.743 116.617 40.743 138.629 40.743H291.371C313.383 40.743 324.389 40.743 332.796 45.078C340.192 48.8912 346.204 54.9758 349.973 62.4596C354.256 70.9676 354.256 82.1052 354.256 104.38V558.62C354.256 580.895 354.256 592.032 349.973 600.54C346.204 608.024 340.192 614.109 332.796 617.922C324.389 622.257 313.383 622.257 291.371 622.257H138.629C116.617 622.257 105.611 622.257 97.2036 617.922C89.8082 614.109 83.7955 608.024 80.0274 600.54C75.7435 592.032 75.7435 580.895 75.7435 558.62V104.38Z" fill="#FFF3B0"/>
<path d="M71 132.359C71 131.975 71 131.783 71.0739 131.636C71.1388 131.507 71.2425 131.402 71.37 131.336C71.515 131.262 71.7047 131.262 72.0842 131.262H73.0329V151.834H72.0842C71.7047 151.834 71.515 151.834 71.37 151.759C71.2425 151.694 71.1388 151.589 71.0739 151.46C71 151.313 71 151.121 71 150.737V132.359Z" fill="#FF002B"/>
<path d="M71 174.875C71 174.491 71 174.299 71.0739 174.152C71.1388 174.023 71.2425 173.919 71.37 173.853C71.515 173.778 71.7047 173.778 72.0842 173.778H73.0329V216.294H72.0842C71.7047 216.294 71.515 216.294 71.37 216.22C71.2425 216.154 71.1388 216.049 71.0739 215.92C71 215.773 71 215.581 71 215.197V174.875Z" fill="#FF002B"/>
<path d="M71 229.735C71 229.351 71 229.159 71.0739 229.012C71.1388 228.883 71.2425 228.778 71.37 228.713C71.515 228.638 71.7047 228.638 72.0842 228.638H73.0329V271.154H72.0842C71.7047 271.154 71.515 271.154 71.37 271.079C71.2425 271.014 71.1388 270.909 71.0739 270.78C71 270.633 71 270.441 71 270.057V229.735Z" fill="#FF002B"/>
<path d="M356.967 188.864H357.916C358.295 188.864 358.485 188.865 358.63 188.939C358.757 189.005 358.861 189.11 358.926 189.239C359 189.386 359 189.578 359 189.962V256.342C359 256.726 359 256.918 358.926 257.065C358.861 257.194 358.757 257.299 358.63 257.365C358.485 257.439 358.295 257.439 357.916 257.439H356.967V188.864Z" fill="#FF002B"/>
</g>
</g>
<defs>
<filter id="filter0_i_963_2075" x="70" y="38" width="289" height="587" filterUnits="userSpaceOnUse" color-interpolation-filters="sRGB">
<feFlood flood-opacity="0" result="BackgroundImageFix"/>
<feBlend mode="normal" in="SourceGraphic" in2="BackgroundImageFix" result="shape"/>
<feColorMatrix in="SourceAlpha" type="matrix" values="0 0 0 0 0 0 0 0 0 0 0 0 0 0 0 0 0 0 127 0" result="hardAlpha"/>
<feOffset dx="-1"/>
<feGaussianBlur stdDeviation="1"/>
<feComposite in2="hardAlpha" operator="arithmetic" k2="-1" k3="1"/>
<feColorMatrix type="matrix" values="0 0 0 0 1 0 0 0 0 1 0 0 0 0 1 0 0 0 0.5 0"/>
<feBlend mode="normal" in2="shape" result="effect1_innerShadow_963_2075"/>
</filter>
<clipPath id="clip0_963_2075">
<rect width="431" height="242" fill="white"/>
</clipPath>
</defs>
</svg>
