<svg width="32" height="33" viewBox="0 0 32 33" fill="none" xmlns="http://www.w3.org/2000/svg">
<mask id="mask0_1679_5473" style="mask-type:alpha" maskUnits="userSpaceOnUse" x="0" y="0" width="32" height="33">
<rect y="0.5" width="32" height="32" fill="#D9D9D9"/>
</mask>
<g mask="url(#mask0_1679_5473)">
<path d="M18.6663 17.8334C17.5552 17.8334 16.6108 17.4445 15.833 16.6667C15.0552 15.8889 14.6663 14.9445 14.6663 13.8334C14.6663 12.7223 15.0552 11.7778 15.833 11C16.6108 10.2223 17.5552 9.83337 18.6663 9.83337C19.7775 9.83337 20.7219 10.2223 21.4997 11C22.2775 11.7778 22.6663 12.7223 22.6663 13.8334C22.6663 14.9445 22.2775 15.8889 21.4997 16.6667C20.7219 17.4445 19.7775 17.8334 18.6663 17.8334ZM9.33301 21.8334C8.59967 21.8334 7.9719 21.5723 7.44967 21.05C6.92745 20.5278 6.66634 19.9 6.66634 19.1667V8.50004C6.66634 7.76671 6.92745 7.13893 7.44967 6.61671C7.9719 6.09449 8.59967 5.83337 9.33301 5.83337H27.9997C28.733 5.83337 29.3608 6.09449 29.883 6.61671C30.4052 7.13893 30.6663 7.76671 30.6663 8.50004V19.1667C30.6663 19.9 30.4052 20.5278 29.883 21.05C29.3608 21.5723 28.733 21.8334 27.9997 21.8334H9.33301ZM11.9997 19.1667H25.333C25.333 18.4334 25.5941 17.8056 26.1163 17.2834C26.6386 16.7612 27.2663 16.5 27.9997 16.5V11.1667C27.2663 11.1667 26.6386 10.9056 26.1163 10.3834C25.5941 9.86115 25.333 9.23337 25.333 8.50004H11.9997C11.9997 9.23337 11.7386 9.86115 11.2163 10.3834C10.6941 10.9056 10.0663 11.1667 9.33301 11.1667V16.5C10.0663 16.5 10.6941 16.7612 11.2163 17.2834C11.7386 17.8056 11.9997 18.4334 11.9997 19.1667ZM26.6663 27.1667H3.99967C3.26634 27.1667 2.63856 26.9056 2.11634 26.3834C1.59412 25.8612 1.33301 25.2334 1.33301 24.5V9.83337H3.99967V24.5H26.6663V27.1667Z" fill="#FEFAE0"/>
</g>
</svg>
