<svg width="25" height="25" viewBox="0 0 25 25" fill="none" xmlns="http://www.w3.org/2000/svg">
<path d="M18.7501 7.66C18.6901 7.65 18.6201 7.65 18.5601 7.66C17.1801 7.61 16.0801 6.48 16.0801 5.08C16.0801 3.65 17.2301 2.5 18.6601 2.5C20.0901 2.5 21.2401 3.66 21.2401 5.08C21.2301 6.48 20.1301 7.61 18.7501 7.66Z" stroke="#FEFAE0" stroke-width="1.5" stroke-linecap="round" stroke-linejoin="round"/>
<path d="M17.7204 14.94C19.0904 15.17 20.6004 14.93 21.6604 14.22C23.0704 13.28 23.0704 11.74 21.6604 10.8C20.5904 10.09 19.0604 9.85003 17.6904 10.09" stroke="#FEFAE0" stroke-width="1.5" stroke-linecap="round" stroke-linejoin="round"/>
<path d="M6.72047 7.66C6.78047 7.65 6.85047 7.65 6.91047 7.66C8.29047 7.61 9.39047 6.48 9.39047 5.08C9.39047 3.65 8.24047 2.5 6.81047 2.5C5.38047 2.5 4.23047 3.66 4.23047 5.08C4.24047 6.48 5.34047 7.61 6.72047 7.66Z" stroke="#FEFAE0" stroke-width="1.5" stroke-linecap="round" stroke-linejoin="round"/>
<path d="M7.75043 14.94C6.38043 15.17 4.87043 14.93 3.81043 14.22C2.40043 13.28 2.40043 11.74 3.81043 10.8C4.88043 10.09 6.41043 9.85003 7.78043 10.09" stroke="#FEFAE0" stroke-width="1.5" stroke-linecap="round" stroke-linejoin="round"/>
<path d="M12.7501 15.13C12.6901 15.12 12.6201 15.12 12.5601 15.13C11.1801 15.08 10.0801 13.95 10.0801 12.55C10.0801 11.12 11.2301 9.96997 12.6601 9.96997C14.0901 9.96997 15.2401 11.13 15.2401 12.55C15.2301 13.95 14.1301 15.09 12.7501 15.13Z" stroke="#FEFAE0" stroke-width="1.5" stroke-linecap="round" stroke-linejoin="round"/>
<path d="M9.83973 18.28C8.42973 19.22 8.42973 20.76 9.83973 21.7C11.4397 22.77 14.0597 22.77 15.6597 21.7C17.0697 20.76 17.0697 19.22 15.6597 18.28C14.0697 17.22 11.4397 17.22 9.83973 18.28Z" stroke="#FEFAE0" stroke-width="1.5" stroke-linecap="round" stroke-linejoin="round"/>
</svg>
