<svg width="25" height="24" viewBox="0 0 25 24" fill="none" xmlns="http://www.w3.org/2000/svg">
<mask id="mask0_1682_5546" style="mask-type:alpha" maskUnits="userSpaceOnUse" x="0" y="0" width="25" height="24">
<rect x="0.5" width="24" height="24" fill="#D9D9D9"/>
</mask>
<g mask="url(#mask0_1682_5546)">
<path d="M18.5 14V11H15.5V9H18.5V6H20.5V9H23.5V11H20.5V14H18.5ZM9.5 12C8.4 12 7.45833 11.6083 6.675 10.825C5.89167 10.0417 5.5 9.1 5.5 8C5.5 6.9 5.89167 5.95833 6.675 5.175C7.45833 4.39167 8.4 4 9.5 4C10.6 4 11.5417 4.39167 12.325 5.175C13.1083 5.95833 13.5 6.9 13.5 8C13.5 9.1 13.1083 10.0417 12.325 10.825C11.5417 11.6083 10.6 12 9.5 12ZM1.5 20V17.2C1.5 16.6333 1.64583 16.1125 1.9375 15.6375C2.22917 15.1625 2.61667 14.8 3.1 14.55C4.13333 14.0333 5.18333 13.6458 6.25 13.3875C7.31667 13.1292 8.4 13 9.5 13C10.6 13 11.6833 13.1292 12.75 13.3875C13.8167 13.6458 14.8667 14.0333 15.9 14.55C16.3833 14.8 16.7708 15.1625 17.0625 15.6375C17.3542 16.1125 17.5 16.6333 17.5 17.2V20H1.5ZM3.5 18H15.5V17.2C15.5 17.0167 15.4542 16.85 15.3625 16.7C15.2708 16.55 15.15 16.4333 15 16.35C14.1 15.9 13.1917 15.5625 12.275 15.3375C11.3583 15.1125 10.4333 15 9.5 15C8.56667 15 7.64167 15.1125 6.725 15.3375C5.80833 15.5625 4.9 15.9 4 16.35C3.85 16.4333 3.72917 16.55 3.6375 16.7C3.54583 16.85 3.5 17.0167 3.5 17.2V18ZM9.5 10C10.05 10 10.5208 9.80417 10.9125 9.4125C11.3042 9.02083 11.5 8.55 11.5 8C11.5 7.45 11.3042 6.97917 10.9125 6.5875C10.5208 6.19583 10.05 6 9.5 6C8.95 6 8.47917 6.19583 8.0875 6.5875C7.69583 6.97917 7.5 7.45 7.5 8C7.5 8.55 7.69583 9.02083 8.0875 9.4125C8.47917 9.80417 8.95 10 9.5 10Z" fill="#FEFAE0"/>
</g>
</svg>
