<svg width="100" height="100" viewBox="0 0 100 100" fill="none" xmlns="http://www.w3.org/2000/svg">
<path d="M32.626 57.3177L32.5 24.0038H37.0481H40.2074L40.3335 57.3177H32.626ZM36.3222 21.9714C35.3737 21.9714 34.5608 21.6581 33.8833 21.0315C33.2058 20.4048 32.8671 19.6511 32.8671 18.7704C32.8671 17.8897 33.2058 17.136 33.8833 16.5093C34.5608 15.8827 35.3737 15.5693 36.3222 15.5693C37.2791 15.5693 38.0921 15.8827 38.7611 16.5093C39.4385 17.136 39.7773 17.8897 39.7773 18.7704C39.7773 19.6511 39.4385 20.4048 38.7611 21.0315C38.0921 21.6581 37.2791 21.9714 36.3222 21.9714Z" fill="#398596"/>
<path d="M32.626 57.3177L32.5 24.0038H37.0481H40.2074L40.3335 57.3177H32.626ZM36.3222 21.9714C35.3737 21.9714 34.5608 21.6581 33.8833 21.0315C33.2058 20.4048 32.8671 19.6511 32.8671 18.7704C32.8671 17.8897 33.2058 17.136 33.8833 16.5093C34.5608 15.8827 35.3737 15.5693 36.3222 15.5693C37.2791 15.5693 38.0921 15.8827 38.7611 16.5093C39.4385 17.136 39.7773 17.8897 39.7773 18.7704C39.7773 19.6511 39.4385 20.4048 38.7611 21.0315C38.0921 21.6581 37.2791 21.9714 36.3222 21.9714Z" fill="url(#paint0_linear_321_2841)"/>
<path fill-rule="evenodd" clip-rule="evenodd" d="M41.3389 21.715C41.9095 20.9023 42.7775 19.3628 42.7775 18.3676C42.7775 16.8373 42.2247 15.997 41.3389 14.8872V14.6523H58.0046C59.9862 14.6523 61.7011 15.1266 63.1491 16.0751C64.5888 17.015 65.7023 18.3276 66.4899 20.0128C67.269 21.698 67.6586 23.6542 67.6586 25.8814C67.6586 28.1255 67.269 30.5944 66.4899 32.2796C65.7023 33.9648 64.5888 35.2774 63.1491 36.2173C61.7011 37.1489 59.9862 37.6146 58.0046 37.6146H42.1178V30.0478H57.3949C58.1994 30.0478 58.9192 29.87 59.5543 29.5143C60.181 29.1587 60.6721 28.6675 61.0278 28.0408C61.3835 27.4057 61.5614 26.6859 61.5614 25.8814C61.5614 25.0685 61.3835 24.3486 61.0278 23.7219C60.6721 23.0953 60.181 22.6041 59.5543 22.2485C58.9192 21.8928 58.1994 21.715 57.3949 21.715H41.3389Z" fill="#398596"/>
<path fill-rule="evenodd" clip-rule="evenodd" d="M41.3389 21.715C41.8748 20.9718 42.7428 19.2933 42.7428 18.2982C42.7428 16.7678 42.2247 15.997 41.3389 14.8872V14.6523H58.0046C59.9862 14.6523 61.7011 15.1266 63.1491 16.0751C64.5888 17.015 65.7023 18.3276 66.4899 20.0128C67.269 21.698 67.6586 23.6542 67.6586 25.8814C67.6586 28.1255 67.269 30.5944 66.4899 32.2796C65.7023 33.9648 64.5888 35.2774 63.1491 36.2173C61.7011 37.1489 59.9862 37.6146 58.0046 37.6146H42.13V30.0478H57.3949C58.1994 30.0478 58.9192 29.87 59.5543 29.5143C60.181 29.1587 60.6721 28.6675 61.0278 28.0408C61.3835 27.4057 61.5614 26.6859 61.5614 25.8814C61.5614 25.0685 61.3835 24.3486 61.0278 23.7219C60.6721 23.0953 60.181 22.6041 59.5543 22.2485C58.9192 21.8928 58.1994 21.715 57.3949 21.715H41.3389Z" fill="url(#paint1_linear_321_2841)"/>
<path fill-rule="evenodd" clip-rule="evenodd" d="M59.0651 38.5879H52.6866V50.7421V50.7502V50.7776H52.6867C52.6872 50.8686 52.6896 50.9594 52.694 51.0502L52.679 51.0418C52.5163 52.9835 53.2716 56.5772 57.1849 57.4228C57.6292 57.5541 58.0731 57.5879 58.6003 57.5964C58.7303 57.6016 58.863 57.6043 58.9984 57.6043H64.4845L64.4394 57.5791H64.4993V53.4358H62.7346C60.9226 53.4358 59.1653 52.5065 59.0719 50.7778L59.0651 50.7722V50.5292V50.5255V50.5218V38.5879Z" fill="#398596"/>
<path fill-rule="evenodd" clip-rule="evenodd" d="M59.0651 38.5879H52.6866V50.7421V50.7502V50.7776H52.6867C52.6872 50.8686 52.6896 50.9594 52.694 51.0502L52.679 51.0418C52.5163 52.9835 53.2716 56.5772 57.1849 57.4228C57.6292 57.5541 58.0731 57.5879 58.6003 57.5964C58.7303 57.6016 58.863 57.6043 58.9984 57.6043H64.4845L64.4394 57.5791H64.4993V53.4358H62.7346C60.9226 53.4358 59.1653 52.5065 59.0719 50.7778L59.0651 50.7722V50.5292V50.5255V50.5218V38.5879Z" fill="url(#paint2_linear_321_2841)"/>
<path d="M23.3003 63.1342C23.8731 63.1342 24.3618 63.2199 24.7665 63.3914C25.1712 63.5628 25.4799 63.8167 25.6925 64.1528C25.9085 64.4889 26.0166 64.9022 26.0166 65.3926C26.0166 65.7699 25.948 66.1008 25.8108 66.3855C25.6736 66.6701 25.4781 66.9102 25.2243 67.1057C24.974 67.2978 24.6773 67.4469 24.3344 67.5533L23.9331 67.759H21.5615L21.5512 66.6941H23.3106C23.6158 66.6941 23.8697 66.641 24.0719 66.5347C24.2778 66.4283 24.4303 66.2826 24.5299 66.0974C24.6327 65.9122 24.6842 65.7013 24.6842 65.4646C24.6842 65.0805 24.5727 64.7752 24.3498 64.5489C24.1303 64.3191 23.7805 64.2042 23.3003 64.2042H21.9678V70.6245H20.6406V63.1342H23.3003ZM23.146 67.2651L24.5401 67.26L26.315 70.5578V70.6245H24.8951L23.146 67.2651ZM32.6011 70.6245H28.645V69.5599H32.6011V70.6245ZM29.0154 70.6245H27.6881V63.1342H29.0154V70.6245ZM32.0815 67.2909H28.645V66.2414H32.0815V67.2909ZM32.5754 64.2042H28.645V63.1342H32.5754V64.2042ZM37.9921 68.6902C37.9921 68.4878 37.9492 68.3164 37.8635 68.1758C37.7812 68.0317 37.6251 67.8997 37.3953 67.7796C37.1656 67.6562 36.8346 67.5276 36.4025 67.3938C36.0492 67.2874 35.7217 67.1657 35.4199 67.0285C35.1215 66.8913 34.8608 66.7335 34.6379 66.5552C34.415 66.3735 34.2401 66.1642 34.1132 65.9276C33.9897 65.6875 33.928 65.4115 33.928 65.0994C33.928 64.6912 34.0412 64.3328 34.2675 64.0242C34.4939 63.712 34.8077 63.4685 35.209 63.2936C35.6102 63.1188 36.0749 63.0312 36.6031 63.0312C37.1656 63.0312 37.6492 63.1342 38.0538 63.3399C38.4585 63.5423 38.769 63.8167 38.985 64.1631C39.2045 64.5094 39.3142 64.8953 39.3142 65.3206H37.9869C37.9869 65.0839 37.9356 64.873 37.8326 64.6878C37.7332 64.4992 37.5806 64.3534 37.3748 64.2505C37.169 64.1442 36.9066 64.091 36.5876 64.091C36.2893 64.091 36.0406 64.1356 35.8417 64.2248C35.6428 64.314 35.4953 64.434 35.3993 64.5849C35.3033 64.7358 35.2553 64.9073 35.2553 65.0994C35.2553 65.2811 35.3135 65.4423 35.4301 65.5829C35.5467 65.7235 35.7234 65.8522 35.9601 65.9687C36.1967 66.0819 36.4917 66.1917 36.8449 66.298C37.4005 66.4592 37.8618 66.6478 38.2288 66.8639C38.5958 67.08 38.8684 67.3355 39.0467 67.6304C39.2285 67.9253 39.3194 68.2752 39.3194 68.6799C39.3194 69.1017 39.2097 69.4669 38.9901 69.7759C38.7706 70.0808 38.4603 70.3162 38.059 70.4808C37.6577 70.6453 37.1861 70.7273 36.6442 70.7273C36.2842 70.7273 35.9292 70.6794 35.5794 70.5835C35.2295 70.4842 34.9123 70.3363 34.6276 70.1412C34.3464 69.9419 34.12 69.6933 33.9485 69.395C33.7805 69.0966 33.6965 68.7451 33.6965 68.3403H35.0237C35.0237 68.5804 35.0649 68.7845 35.1472 68.9526C35.2295 69.1206 35.3444 69.2595 35.4919 69.3692C35.6394 69.4759 35.8108 69.553 36.0063 69.6009C36.2053 69.6488 36.4179 69.6731 36.6442 69.6731C36.9426 69.6731 37.1913 69.6315 37.3902 69.5495C37.5891 69.4634 37.7383 69.3469 37.8378 69.1995C37.9407 69.052 37.9921 68.8822 37.9921 68.6902ZM46.8762 67.0748C46.8762 67.8328 46.7459 68.4844 46.4852 69.0297C46.2246 69.5752 45.861 69.9953 45.3946 70.2898C44.9316 70.5815 44.388 70.7273 43.7638 70.7273C43.1533 70.7273 42.6115 70.5815 42.1381 70.2898C41.6683 69.9953 41.2996 69.5752 41.0321 69.0297C40.768 68.4844 40.636 67.8328 40.636 67.0748V66.689C40.636 65.931 40.768 65.2794 41.0321 64.7341C41.2962 64.1853 41.6631 63.7652 42.133 63.4737C42.6028 63.1788 43.1431 63.0312 43.7535 63.0312C44.3777 63.0312 44.9231 63.1788 45.3894 63.4737C45.8559 63.7652 46.2194 64.1853 46.4801 64.7341C46.7442 65.2794 46.8762 65.931 46.8762 66.689V67.0748ZM45.5438 66.6787C45.5438 66.1265 45.4735 65.6618 45.3328 65.2845C45.1922 64.9038 44.9882 64.6175 44.7207 64.4254C44.4532 64.2299 44.1308 64.1322 43.7535 64.1322C43.3831 64.1322 43.0642 64.2299 42.7967 64.4254C42.5326 64.6175 42.3285 64.9038 42.1844 65.2845C42.0438 65.6618 41.9735 66.1265 41.9735 66.6787V67.0748C41.9735 67.627 42.0456 68.0934 42.1896 68.4741C42.3336 68.8548 42.5394 69.1429 42.8069 69.3384C43.0744 69.5335 43.3934 69.6315 43.7638 69.6315C44.1445 69.6315 44.4669 69.5335 44.731 69.3384C44.9985 69.1429 45.2008 68.8548 45.338 68.4741C45.4752 68.0934 45.5438 67.627 45.5438 67.0748V66.6787ZM54.0832 63.1342V68.1243C54.0832 68.6971 53.9581 69.1772 53.7076 69.5648C53.4608 69.9488 53.1247 70.2384 52.6994 70.4342C52.2741 70.6294 51.7991 70.7273 51.2743 70.7273C50.7359 70.7273 50.254 70.6294 49.8287 70.4342C49.4069 70.2384 49.0742 69.9488 48.8307 69.5648C48.5906 69.1772 48.4706 68.6971 48.4706 68.1243V63.1342H49.7927V68.1243C49.7927 68.4776 49.8527 68.7674 49.9728 68.9937C50.0928 69.2201 50.2643 69.3881 50.4872 69.4981C50.7101 69.6079 50.9725 69.6627 51.2743 69.6627C51.583 69.6627 51.8471 69.6079 52.0666 69.4981C52.2861 69.3881 52.4558 69.2201 52.5759 68.9937C52.6959 68.7674 52.756 68.4776 52.756 68.1243V63.1342H54.0832ZM58.5482 63.1342C59.121 63.1342 59.6097 63.2199 60.0144 63.3914C60.4191 63.5628 60.7278 63.8167 60.9404 64.1528C61.1565 64.4889 61.2645 64.9022 61.2645 65.3926C61.2645 65.7699 61.1959 66.1008 61.0587 66.3855C60.9215 66.6701 60.726 66.9102 60.4722 67.1057C60.2219 67.2978 59.9252 67.4469 59.5822 67.5533L59.181 67.759H56.8094L56.7991 66.6941H58.5585C58.8637 66.6941 59.1176 66.641 59.3199 66.5347C59.5257 66.4283 59.6783 66.2826 59.7778 66.0974C59.8806 65.9122 59.9321 65.7013 59.9321 65.4646C59.9321 65.0805 59.8206 64.7752 59.5977 64.5489C59.3782 64.3191 59.0283 64.2042 58.5482 64.2042H57.2158V70.6245H55.8885V63.1342H58.5482ZM58.3939 67.2651L59.7881 67.26L61.5628 70.5578V70.6245H60.143L58.3939 67.2651ZM68.6722 68.1758C68.631 68.6662 68.4921 69.1052 68.2554 69.4926C68.0222 69.8766 67.6947 70.1787 67.2728 70.3981C66.851 70.6176 66.3349 70.7273 65.7244 70.7273C65.107 70.7273 64.5703 70.5835 64.1141 70.2953C63.6614 70.0037 63.3116 69.5919 63.0647 69.0606C62.8212 68.529 62.6994 67.9014 62.6994 67.1777V66.5861C62.6994 65.859 62.8246 65.2314 63.0749 64.7032C63.3253 64.1716 63.6803 63.7601 64.1399 63.4685C64.6028 63.177 65.1482 63.0312 65.7758 63.0312C66.376 63.0312 66.8819 63.1427 67.2934 63.3656C67.7084 63.5851 68.0291 63.8904 68.2554 64.2814C68.4852 64.6689 68.6241 65.1148 68.6722 65.619H67.35C67.2985 65.1422 67.1562 64.7718 66.923 64.5077C66.6933 64.2436 66.3108 64.1116 65.7758 64.1116C65.3883 64.1116 65.0658 64.2076 64.8086 64.3997C64.5549 64.5883 64.3628 64.8661 64.2324 65.2331C64.1022 65.5967 64.0369 66.0442 64.0369 66.5758V67.1777C64.0369 67.6853 64.0953 68.1243 64.2119 68.4947C64.3285 68.8617 64.5103 69.1463 64.7572 69.3487C65.0041 69.5474 65.3265 69.6467 65.7244 69.6467C66.0879 69.6467 66.3811 69.5905 66.604 69.4773C66.8304 69.3641 67.0019 69.1995 67.1185 68.9834C67.2351 68.764 67.3106 68.4947 67.3449 68.1758H68.6722ZM71.6505 70.6245H70.3283V63.1342H71.6505V70.6245ZM79.6546 67.0748C79.6546 67.8328 79.5248 68.4844 79.2637 69.0297C79.0033 69.5752 78.6394 69.9953 78.1734 70.2898C77.7102 70.5815 77.1665 70.7273 76.5421 70.7273C75.9317 70.7273 75.3901 70.5815 74.9165 70.2898C74.447 69.9953 74.0783 69.5752 73.8109 69.0297C73.5463 68.4844 73.4144 67.8328 73.4144 67.0748V66.689C73.4144 65.931 73.5463 65.2794 73.8109 64.7341C74.0748 64.1853 74.4415 63.7652 74.9116 63.4737C75.3817 63.1788 75.9213 63.0312 76.5324 63.0312C77.156 63.0312 77.7019 63.1788 78.1678 63.4737C78.6345 63.7652 78.9977 64.1853 79.2588 64.7341C79.5227 65.2794 79.6546 65.931 79.6546 66.689V67.0748ZM78.3227 66.6787C78.3227 66.1265 78.2519 65.6618 78.1116 65.2845C77.9706 64.9038 77.7665 64.6175 77.4991 64.4254C77.2317 64.2299 76.9095 64.1322 76.5324 64.1322C76.1616 64.1322 75.8428 64.2299 75.5755 64.4254C75.3109 64.6175 75.1067 64.9038 74.963 65.2845C74.8227 65.6618 74.7519 66.1265 74.7519 66.6787V67.0748C74.7519 67.627 74.8241 68.0934 74.9678 68.4741C75.1123 68.8548 75.3178 69.1429 75.5852 69.3384C75.8533 69.5335 76.172 69.6315 76.5421 69.6315C76.9234 69.6315 77.2456 69.5335 77.5095 69.3384C77.7769 69.1429 77.9796 68.8548 78.1165 68.4741C78.254 68.0934 78.3227 67.627 78.3227 67.0748V66.6787Z" fill="#398596"/>
<path d="M23.3003 63.1342C23.8731 63.1342 24.3618 63.2199 24.7665 63.3914C25.1712 63.5628 25.4799 63.8167 25.6925 64.1528C25.9085 64.4889 26.0166 64.9022 26.0166 65.3926C26.0166 65.7699 25.948 66.1008 25.8108 66.3855C25.6736 66.6701 25.4781 66.9102 25.2243 67.1057C24.974 67.2978 24.6773 67.4469 24.3344 67.5533L23.9331 67.759H21.5615L21.5512 66.6941H23.3106C23.6158 66.6941 23.8697 66.641 24.0719 66.5347C24.2778 66.4283 24.4303 66.2826 24.5299 66.0974C24.6327 65.9122 24.6842 65.7013 24.6842 65.4646C24.6842 65.0805 24.5727 64.7752 24.3498 64.5489C24.1303 64.3191 23.7805 64.2042 23.3003 64.2042H21.9678V70.6245H20.6406V63.1342H23.3003ZM23.146 67.2651L24.5401 67.26L26.315 70.5578V70.6245H24.8951L23.146 67.2651ZM32.6011 70.6245H28.645V69.5599H32.6011V70.6245ZM29.0154 70.6245H27.6881V63.1342H29.0154V70.6245ZM32.0815 67.2909H28.645V66.2414H32.0815V67.2909ZM32.5754 64.2042H28.645V63.1342H32.5754V64.2042ZM37.9921 68.6902C37.9921 68.4878 37.9492 68.3164 37.8635 68.1758C37.7812 68.0317 37.6251 67.8997 37.3953 67.7796C37.1656 67.6562 36.8346 67.5276 36.4025 67.3938C36.0492 67.2874 35.7217 67.1657 35.4199 67.0285C35.1215 66.8913 34.8608 66.7335 34.6379 66.5552C34.415 66.3735 34.2401 66.1642 34.1132 65.9276C33.9897 65.6875 33.928 65.4115 33.928 65.0994C33.928 64.6912 34.0412 64.3328 34.2675 64.0242C34.4939 63.712 34.8077 63.4685 35.209 63.2936C35.6102 63.1188 36.0749 63.0312 36.6031 63.0312C37.1656 63.0312 37.6492 63.1342 38.0538 63.3399C38.4585 63.5423 38.769 63.8167 38.985 64.1631C39.2045 64.5094 39.3142 64.8953 39.3142 65.3206H37.9869C37.9869 65.0839 37.9356 64.873 37.8326 64.6878C37.7332 64.4992 37.5806 64.3534 37.3748 64.2505C37.169 64.1442 36.9066 64.091 36.5876 64.091C36.2893 64.091 36.0406 64.1356 35.8417 64.2248C35.6428 64.314 35.4953 64.434 35.3993 64.5849C35.3033 64.7358 35.2553 64.9073 35.2553 65.0994C35.2553 65.2811 35.3135 65.4423 35.4301 65.5829C35.5467 65.7235 35.7234 65.8522 35.9601 65.9687C36.1967 66.0819 36.4917 66.1917 36.8449 66.298C37.4005 66.4592 37.8618 66.6478 38.2288 66.8639C38.5958 67.08 38.8684 67.3355 39.0467 67.6304C39.2285 67.9253 39.3194 68.2752 39.3194 68.6799C39.3194 69.1017 39.2097 69.4669 38.9901 69.7759C38.7706 70.0808 38.4603 70.3162 38.059 70.4808C37.6577 70.6453 37.1861 70.7273 36.6442 70.7273C36.2842 70.7273 35.9292 70.6794 35.5794 70.5835C35.2295 70.4842 34.9123 70.3363 34.6276 70.1412C34.3464 69.9419 34.12 69.6933 33.9485 69.395C33.7805 69.0966 33.6965 68.7451 33.6965 68.3403H35.0237C35.0237 68.5804 35.0649 68.7845 35.1472 68.9526C35.2295 69.1206 35.3444 69.2595 35.4919 69.3692C35.6394 69.4759 35.8108 69.553 36.0063 69.6009C36.2053 69.6488 36.4179 69.6731 36.6442 69.6731C36.9426 69.6731 37.1913 69.6315 37.3902 69.5495C37.5891 69.4634 37.7383 69.3469 37.8378 69.1995C37.9407 69.052 37.9921 68.8822 37.9921 68.6902ZM46.8762 67.0748C46.8762 67.8328 46.7459 68.4844 46.4852 69.0297C46.2246 69.5752 45.861 69.9953 45.3946 70.2898C44.9316 70.5815 44.388 70.7273 43.7638 70.7273C43.1533 70.7273 42.6115 70.5815 42.1381 70.2898C41.6683 69.9953 41.2996 69.5752 41.0321 69.0297C40.768 68.4844 40.636 67.8328 40.636 67.0748V66.689C40.636 65.931 40.768 65.2794 41.0321 64.7341C41.2962 64.1853 41.6631 63.7652 42.133 63.4737C42.6028 63.1788 43.1431 63.0312 43.7535 63.0312C44.3777 63.0312 44.9231 63.1788 45.3894 63.4737C45.8559 63.7652 46.2194 64.1853 46.4801 64.7341C46.7442 65.2794 46.8762 65.931 46.8762 66.689V67.0748ZM45.5438 66.6787C45.5438 66.1265 45.4735 65.6618 45.3328 65.2845C45.1922 64.9038 44.9882 64.6175 44.7207 64.4254C44.4532 64.2299 44.1308 64.1322 43.7535 64.1322C43.3831 64.1322 43.0642 64.2299 42.7967 64.4254C42.5326 64.6175 42.3285 64.9038 42.1844 65.2845C42.0438 65.6618 41.9735 66.1265 41.9735 66.6787V67.0748C41.9735 67.627 42.0456 68.0934 42.1896 68.4741C42.3336 68.8548 42.5394 69.1429 42.8069 69.3384C43.0744 69.5335 43.3934 69.6315 43.7638 69.6315C44.1445 69.6315 44.4669 69.5335 44.731 69.3384C44.9985 69.1429 45.2008 68.8548 45.338 68.4741C45.4752 68.0934 45.5438 67.627 45.5438 67.0748V66.6787ZM54.0832 63.1342V68.1243C54.0832 68.6971 53.9581 69.1772 53.7076 69.5648C53.4608 69.9488 53.1247 70.2384 52.6994 70.4342C52.2741 70.6294 51.7991 70.7273 51.2743 70.7273C50.7359 70.7273 50.254 70.6294 49.8287 70.4342C49.4069 70.2384 49.0742 69.9488 48.8307 69.5648C48.5906 69.1772 48.4706 68.6971 48.4706 68.1243V63.1342H49.7927V68.1243C49.7927 68.4776 49.8527 68.7674 49.9728 68.9937C50.0928 69.2201 50.2643 69.3881 50.4872 69.4981C50.7101 69.6079 50.9725 69.6627 51.2743 69.6627C51.583 69.6627 51.8471 69.6079 52.0666 69.4981C52.2861 69.3881 52.4558 69.2201 52.5759 68.9937C52.6959 68.7674 52.756 68.4776 52.756 68.1243V63.1342H54.0832ZM58.5482 63.1342C59.121 63.1342 59.6097 63.2199 60.0144 63.3914C60.4191 63.5628 60.7278 63.8167 60.9404 64.1528C61.1565 64.4889 61.2645 64.9022 61.2645 65.3926C61.2645 65.7699 61.1959 66.1008 61.0587 66.3855C60.9215 66.6701 60.726 66.9102 60.4722 67.1057C60.2219 67.2978 59.9252 67.4469 59.5822 67.5533L59.181 67.759H56.8094L56.7991 66.6941H58.5585C58.8637 66.6941 59.1176 66.641 59.3199 66.5347C59.5257 66.4283 59.6783 66.2826 59.7778 66.0974C59.8806 65.9122 59.9321 65.7013 59.9321 65.4646C59.9321 65.0805 59.8206 64.7752 59.5977 64.5489C59.3782 64.3191 59.0283 64.2042 58.5482 64.2042H57.2158V70.6245H55.8885V63.1342H58.5482ZM58.3939 67.2651L59.7881 67.26L61.5628 70.5578V70.6245H60.143L58.3939 67.2651ZM68.6722 68.1758C68.631 68.6662 68.4921 69.1052 68.2554 69.4926C68.0222 69.8766 67.6947 70.1787 67.2728 70.3981C66.851 70.6176 66.3349 70.7273 65.7244 70.7273C65.107 70.7273 64.5703 70.5835 64.1141 70.2953C63.6614 70.0037 63.3116 69.5919 63.0647 69.0606C62.8212 68.529 62.6994 67.9014 62.6994 67.1777V66.5861C62.6994 65.859 62.8246 65.2314 63.0749 64.7032C63.3253 64.1716 63.6803 63.7601 64.1399 63.4685C64.6028 63.177 65.1482 63.0312 65.7758 63.0312C66.376 63.0312 66.8819 63.1427 67.2934 63.3656C67.7084 63.5851 68.0291 63.8904 68.2554 64.2814C68.4852 64.6689 68.6241 65.1148 68.6722 65.619H67.35C67.2985 65.1422 67.1562 64.7718 66.923 64.5077C66.6933 64.2436 66.3108 64.1116 65.7758 64.1116C65.3883 64.1116 65.0658 64.2076 64.8086 64.3997C64.5549 64.5883 64.3628 64.8661 64.2324 65.2331C64.1022 65.5967 64.0369 66.0442 64.0369 66.5758V67.1777C64.0369 67.6853 64.0953 68.1243 64.2119 68.4947C64.3285 68.8617 64.5103 69.1463 64.7572 69.3487C65.0041 69.5474 65.3265 69.6467 65.7244 69.6467C66.0879 69.6467 66.3811 69.5905 66.604 69.4773C66.8304 69.3641 67.0019 69.1995 67.1185 68.9834C67.2351 68.764 67.3106 68.4947 67.3449 68.1758H68.6722ZM71.6505 70.6245H70.3283V63.1342H71.6505V70.6245ZM79.6546 67.0748C79.6546 67.8328 79.5248 68.4844 79.2637 69.0297C79.0033 69.5752 78.6394 69.9953 78.1734 70.2898C77.7102 70.5815 77.1665 70.7273 76.5421 70.7273C75.9317 70.7273 75.3901 70.5815 74.9165 70.2898C74.447 69.9953 74.0783 69.5752 73.8109 69.0297C73.5463 68.4844 73.4144 67.8328 73.4144 67.0748V66.689C73.4144 65.931 73.5463 65.2794 73.8109 64.7341C74.0748 64.1853 74.4415 63.7652 74.9116 63.4737C75.3817 63.1788 75.9213 63.0312 76.5324 63.0312C77.156 63.0312 77.7019 63.1788 78.1678 63.4737C78.6345 63.7652 78.9977 64.1853 79.2588 64.7341C79.5227 65.2794 79.6546 65.931 79.6546 66.689V67.0748ZM78.3227 66.6787C78.3227 66.1265 78.2519 65.6618 78.1116 65.2845C77.9706 64.9038 77.7665 64.6175 77.4991 64.4254C77.2317 64.2299 76.9095 64.1322 76.5324 64.1322C76.1616 64.1322 75.8428 64.2299 75.5755 64.4254C75.3109 64.6175 75.1067 64.9038 74.963 65.2845C74.8227 65.6618 74.7519 66.1265 74.7519 66.6787V67.0748C74.7519 67.627 74.8241 68.0934 74.9678 68.4741C75.1123 68.8548 75.3178 69.1429 75.5852 69.3384C75.8533 69.5335 76.172 69.6315 76.5421 69.6315C76.9234 69.6315 77.2456 69.5335 77.5095 69.3384C77.7769 69.1429 77.9796 68.8548 78.1165 68.4741C78.254 68.0934 78.3227 67.627 78.3227 67.0748V66.6787Z" fill="url(#paint3_linear_321_2841)"/>
<path d="M23.3776 78.456C23.3364 78.9463 23.1975 79.3851 22.9608 79.7726C22.7276 80.1567 22.4001 80.4588 21.9783 80.6782C21.5564 80.8976 21.0402 81.0074 20.4297 81.0074C19.8124 81.0074 19.2757 80.8636 18.8195 80.5754C18.3668 80.2838 18.017 79.8726 17.7701 79.3407C17.5265 78.8094 17.4048 78.1817 17.4048 77.4581V76.8664C17.4048 76.1393 17.53 75.5115 17.7803 74.9831C18.0307 74.4518 18.3857 74.04 18.8453 73.749C19.3083 73.4574 19.8535 73.3115 20.4812 73.3115C21.0814 73.3115 21.5873 73.4226 21.9988 73.6456C22.4138 73.865 22.7344 74.1706 22.9608 74.5615C23.1906 74.949 23.3295 75.3949 23.3776 75.899H22.0554C22.004 75.4226 21.8616 75.0518 21.6284 74.7879C21.3986 74.524 21.0162 74.3921 20.4812 74.3921C20.0936 74.3921 19.7712 74.4879 19.514 74.6796C19.2602 74.8685 19.0682 75.1463 18.9378 75.5129C18.8075 75.8768 18.7424 76.324 18.7424 76.856V77.4581C18.7424 77.9657 18.8007 78.4046 18.9173 78.7747C19.0339 79.1421 19.2156 79.4268 19.4626 79.6289C19.7095 79.8275 20.0319 79.9275 20.4297 79.9275C20.7933 79.9275 21.0865 79.8706 21.3094 79.7574C21.5358 79.6442 21.7073 79.4796 21.8239 79.2636C21.9405 79.0442 22.016 78.7747 22.0503 78.456H23.3776ZM30.9446 77.3553C30.9446 78.1129 30.8143 78.7643 30.5537 79.3101C30.293 79.8553 29.9294 80.2754 29.463 80.5706C29.0001 80.8615 28.4565 81.0074 27.8322 81.0074C27.2217 81.0074 26.6799 80.8615 26.2066 80.5706C25.7367 80.2754 25.368 79.8553 25.1005 79.3101C24.8365 78.7643 24.7044 78.1129 24.7044 77.3553V76.9692C24.7044 76.2115 24.8365 75.5594 25.1005 75.0143C25.3646 74.4657 25.7316 74.0456 26.2015 73.7539C26.6713 73.4588 27.2115 73.3115 27.8219 73.3115C28.4462 73.3115 28.9915 73.4588 29.4579 73.7539C29.9243 74.0456 30.2878 74.4657 30.5485 75.0143C30.8126 75.5594 30.9446 76.2115 30.9446 76.9692V77.3553ZM29.6122 76.9587C29.6122 76.4067 29.5419 75.9421 29.4013 75.565C29.2607 75.1838 29.0566 74.8976 28.7891 74.7053C28.5216 74.5101 28.1992 74.4122 27.8219 74.4122C27.4515 74.4122 27.1326 74.5101 26.8651 74.7053C26.601 74.8976 26.3969 75.1838 26.2529 75.565C26.1123 75.9421 26.0419 76.4067 26.0419 76.9587V77.3553C26.0419 77.9074 26.114 78.3733 26.258 78.7546C26.4021 79.1351 26.6078 79.4233 26.8753 79.6185C27.1429 79.8143 27.4619 79.9115 27.8322 79.9115C28.2129 79.9115 28.5353 79.8143 28.7994 79.6185C29.0669 79.4233 29.2692 79.1351 29.4065 78.7546C29.5436 78.3733 29.6122 77.9074 29.6122 77.3553V76.9587ZM34.3653 73.4143L36.4951 79.1247L38.6249 73.4143H39.8082L36.9633 80.9046H36.027L33.1872 73.4143H34.3653ZM33.7685 73.4143L33.964 78.5025V80.9046H32.6419V73.4143H33.7685ZM40.3535 73.4143V80.9046H39.0262V78.5025L39.2269 73.4143H40.3535ZM44.0057 73.4143L46.1355 79.1247L48.2653 73.4143H49.4485L46.6036 80.9046H45.6674L42.8276 73.4143H44.0057ZM43.4089 73.4143L43.6044 78.5025V80.9046H42.2823V73.4143H43.4089ZM49.9938 73.4143V80.9046H48.6666V78.5025L48.8672 73.4143H49.9938ZM57.4324 73.4143V78.4046C57.4324 78.9775 57.3071 79.4574 57.0568 79.8449C56.8099 80.2289 56.4737 80.5192 56.0485 80.7143C55.6232 80.9101 55.1482 81.0074 54.6235 81.0074C54.085 81.0074 53.6031 80.9101 53.1778 80.7143C52.756 80.5192 52.4233 80.2289 52.1799 79.8449C51.9397 79.4574 51.8197 78.9775 51.8197 78.4046V73.4143H53.1419V78.4046C53.1419 78.7574 53.2019 79.0476 53.3219 79.274C53.4419 79.5004 53.6134 79.6685 53.8363 79.7782C54.0593 79.8879 54.3217 79.9428 54.6235 79.9428C54.9321 79.9428 55.1962 79.8879 55.4157 79.7782C55.6352 79.6685 55.805 79.5004 55.925 79.274C56.0451 79.0476 56.1051 78.7574 56.1051 78.4046V73.4143H57.4324ZM65.2001 80.9046H63.8677L60.5649 75.6261V80.9046H59.2376V73.4143H60.5649L63.878 78.7025V73.4143H65.2001V80.9046ZM68.5487 80.9046H67.2266V73.4143H68.5487V80.9046ZM73.6672 80.9046H72.3498V73.4143H73.6672V80.9046ZM76.0026 74.4844H70.0353V73.4143H76.0026V74.4844ZM79.9533 76.9435L81.6665 73.4143H83.1325L80.6221 78.1525V80.9046H79.2846V78.1525L76.7742 73.4143H78.245L79.9533 76.9435Z" fill="#398596"/>
<path d="M23.3776 78.456C23.3364 78.9463 23.1975 79.3851 22.9608 79.7726C22.7276 80.1567 22.4001 80.4588 21.9783 80.6782C21.5564 80.8976 21.0402 81.0074 20.4297 81.0074C19.8124 81.0074 19.2757 80.8636 18.8195 80.5754C18.3668 80.2838 18.017 79.8726 17.7701 79.3407C17.5265 78.8094 17.4048 78.1817 17.4048 77.4581V76.8664C17.4048 76.1393 17.53 75.5115 17.7803 74.9831C18.0307 74.4518 18.3857 74.04 18.8453 73.749C19.3083 73.4574 19.8535 73.3115 20.4812 73.3115C21.0814 73.3115 21.5873 73.4226 21.9988 73.6456C22.4138 73.865 22.7344 74.1706 22.9608 74.5615C23.1906 74.949 23.3295 75.3949 23.3776 75.899H22.0554C22.004 75.4226 21.8616 75.0518 21.6284 74.7879C21.3986 74.524 21.0162 74.3921 20.4812 74.3921C20.0936 74.3921 19.7712 74.4879 19.514 74.6796C19.2602 74.8685 19.0682 75.1463 18.9378 75.5129C18.8075 75.8768 18.7424 76.324 18.7424 76.856V77.4581C18.7424 77.9657 18.8007 78.4046 18.9173 78.7747C19.0339 79.1421 19.2156 79.4268 19.4626 79.6289C19.7095 79.8275 20.0319 79.9275 20.4297 79.9275C20.7933 79.9275 21.0865 79.8706 21.3094 79.7574C21.5358 79.6442 21.7073 79.4796 21.8239 79.2636C21.9405 79.0442 22.016 78.7747 22.0503 78.456H23.3776ZM30.9446 77.3553C30.9446 78.1129 30.8143 78.7643 30.5537 79.3101C30.293 79.8553 29.9294 80.2754 29.463 80.5706C29.0001 80.8615 28.4565 81.0074 27.8322 81.0074C27.2217 81.0074 26.6799 80.8615 26.2066 80.5706C25.7367 80.2754 25.368 79.8553 25.1005 79.3101C24.8365 78.7643 24.7044 78.1129 24.7044 77.3553V76.9692C24.7044 76.2115 24.8365 75.5594 25.1005 75.0143C25.3646 74.4657 25.7316 74.0456 26.2015 73.7539C26.6713 73.4588 27.2115 73.3115 27.8219 73.3115C28.4462 73.3115 28.9915 73.4588 29.4579 73.7539C29.9243 74.0456 30.2878 74.4657 30.5485 75.0143C30.8126 75.5594 30.9446 76.2115 30.9446 76.9692V77.3553ZM29.6122 76.9587C29.6122 76.4067 29.5419 75.9421 29.4013 75.565C29.2607 75.1838 29.0566 74.8976 28.7891 74.7053C28.5216 74.5101 28.1992 74.4122 27.8219 74.4122C27.4515 74.4122 27.1326 74.5101 26.8651 74.7053C26.601 74.8976 26.3969 75.1838 26.2529 75.565C26.1123 75.9421 26.0419 76.4067 26.0419 76.9587V77.3553C26.0419 77.9074 26.114 78.3733 26.258 78.7546C26.4021 79.1351 26.6078 79.4233 26.8753 79.6185C27.1429 79.8143 27.4619 79.9115 27.8322 79.9115C28.2129 79.9115 28.5353 79.8143 28.7994 79.6185C29.0669 79.4233 29.2692 79.1351 29.4065 78.7546C29.5436 78.3733 29.6122 77.9074 29.6122 77.3553V76.9587ZM34.3653 73.4143L36.4951 79.1247L38.6249 73.4143H39.8082L36.9633 80.9046H36.027L33.1872 73.4143H34.3653ZM33.7685 73.4143L33.964 78.5025V80.9046H32.6419V73.4143H33.7685ZM40.3535 73.4143V80.9046H39.0262V78.5025L39.2269 73.4143H40.3535ZM44.0057 73.4143L46.1355 79.1247L48.2653 73.4143H49.4485L46.6036 80.9046H45.6674L42.8276 73.4143H44.0057ZM43.4089 73.4143L43.6044 78.5025V80.9046H42.2823V73.4143H43.4089ZM49.9938 73.4143V80.9046H48.6666V78.5025L48.8672 73.4143H49.9938ZM57.4324 73.4143V78.4046C57.4324 78.9775 57.3071 79.4574 57.0568 79.8449C56.8099 80.2289 56.4737 80.5192 56.0485 80.7143C55.6232 80.9101 55.1482 81.0074 54.6235 81.0074C54.085 81.0074 53.6031 80.9101 53.1778 80.7143C52.756 80.5192 52.4233 80.2289 52.1799 79.8449C51.9397 79.4574 51.8197 78.9775 51.8197 78.4046V73.4143H53.1419V78.4046C53.1419 78.7574 53.2019 79.0476 53.3219 79.274C53.4419 79.5004 53.6134 79.6685 53.8363 79.7782C54.0593 79.8879 54.3217 79.9428 54.6235 79.9428C54.9321 79.9428 55.1962 79.8879 55.4157 79.7782C55.6352 79.6685 55.805 79.5004 55.925 79.274C56.0451 79.0476 56.1051 78.7574 56.1051 78.4046V73.4143H57.4324ZM65.2001 80.9046H63.8677L60.5649 75.6261V80.9046H59.2376V73.4143H60.5649L63.878 78.7025V73.4143H65.2001V80.9046ZM68.5487 80.9046H67.2266V73.4143H68.5487V80.9046ZM73.6672 80.9046H72.3498V73.4143H73.6672V80.9046ZM76.0026 74.4844H70.0353V73.4143H76.0026V74.4844ZM79.9533 76.9435L81.6665 73.4143H83.1325L80.6221 78.1525V80.9046H79.2846V78.1525L76.7742 73.4143H78.245L79.9533 76.9435Z" fill="url(#paint4_linear_321_2841)"/>
<defs>
<linearGradient id="paint0_linear_321_2841" x1="34.2883" y1="17.579" x2="52.7096" y2="23.1395" gradientUnits="userSpaceOnUse">
<stop offset="0.0499999" stop-color="#5EF86E" stop-opacity="0.931562"/>
<stop offset="0.39375" stop-color="#4EDA5C" stop-opacity="0.696629"/>
<stop offset="0.652474" stop-color="#5DDC6A" stop-opacity="0.399334"/>
<stop offset="1" stop-opacity="0"/>
</linearGradient>
<linearGradient id="paint1_linear_321_2841" x1="43.8987" y1="15.7577" x2="58.1566" y2="45.5611" gradientUnits="userSpaceOnUse">
<stop offset="0.0499999" stop-color="#5EF86E" stop-opacity="0.931562"/>
<stop offset="0.39375" stop-color="#4EDA5C" stop-opacity="0.696629"/>
<stop offset="0.652474" stop-color="#5DDC6A" stop-opacity="0.399334"/>
<stop offset="1" stop-opacity="0"/>
</linearGradient>
<linearGradient id="paint2_linear_321_2841" x1="47.8323" y1="24.4463" x2="72.961" y2="52.0312" gradientUnits="userSpaceOnUse">
<stop offset="0.390769" stop-color="#5EF86E" stop-opacity="0.931562"/>
<stop offset="1" stop-opacity="0"/>
</linearGradient>
<linearGradient id="paint3_linear_321_2841" x1="45.8044" y1="56.801" x2="51.0933" y2="79.0078" gradientUnits="userSpaceOnUse">
<stop offset="0.300691" stop-color="#4EDA5C" stop-opacity="0.696629"/>
<stop offset="1" stop-color="white" stop-opacity="0"/>
</linearGradient>
<linearGradient id="paint4_linear_321_2841" x1="45.3858" y1="67.0811" x2="50.2433" y2="89.4949" gradientUnits="userSpaceOnUse">
<stop offset="0.300691" stop-color="#4EDA5C" stop-opacity="0.696629"/>
<stop offset="1" stop-color="white" stop-opacity="0"/>
</linearGradient>
</defs>
</svg>
