<svg width="301" height="301" viewBox="0 0 301 301" fill="none" xmlns="http://www.w3.org/2000/svg">
<mask id="mask0_1724_6236" style="mask-type:alpha" maskUnits="userSpaceOnUse" x="0" y="0" width="301" height="301">
<rect x="0.480469" y="0.756836" width="300" height="300" fill="#D9D9D9"/>
</mask>
<g mask="url(#mask0_1724_6236)">
<path d="M71.1035 126.068L95.4785 136.38C98.3952 130.547 101.416 124.922 104.541 119.505C107.666 114.088 111.104 108.672 114.854 103.255L97.3535 99.8176L71.1035 126.068ZM115.479 152.005L151.104 187.318C159.854 183.984 169.229 178.88 179.229 172.005C189.229 165.13 198.604 157.318 207.354 148.568C221.937 133.984 233.343 117.786 241.572 99.9739C249.801 82.1614 253.395 65.7551 252.354 50.7551C237.354 49.7134 220.895 53.3072 202.979 61.5364C185.062 69.7655 168.812 81.1718 154.229 95.7551C145.479 104.505 137.666 113.88 130.791 123.88C123.916 133.88 118.812 143.255 115.479 152.005ZM171.104 131.693C166.312 126.901 163.916 121.016 163.916 114.036C163.916 107.057 166.312 101.172 171.104 96.3801C175.895 91.5884 181.833 89.1926 188.916 89.1926C195.999 89.1926 201.937 91.5884 206.729 96.3801C211.52 101.172 213.916 107.057 213.916 114.036C213.916 121.016 211.52 126.901 206.729 131.693C201.937 136.484 195.999 138.88 188.916 138.88C181.833 138.88 175.895 136.484 171.104 131.693ZM177.041 232.005L203.291 205.755L199.854 188.255C194.437 192.005 189.02 195.391 183.604 198.411C178.187 201.432 172.562 204.401 166.729 207.318L177.041 232.005ZM274.854 27.9426C278.812 53.1509 276.364 77.6822 267.51 101.536C258.656 125.391 243.395 148.151 221.729 169.818L227.979 200.755C228.812 204.922 228.604 208.984 227.354 212.943C226.104 216.901 224.02 220.338 221.104 223.255L168.604 275.755L142.354 214.193L88.916 160.755L27.3535 134.505L79.541 82.0051C82.4577 79.0884 85.9473 77.0051 90.0098 75.7551C94.0723 74.5051 98.1868 74.2968 102.354 75.1301L133.291 81.3801C154.958 59.7134 177.666 44.4009 201.416 35.4426C225.166 26.4843 249.645 23.9843 274.854 27.9426ZM49.541 200.443C56.8327 193.151 65.7389 189.453 76.2598 189.349C86.7806 189.245 95.6868 192.838 102.979 200.13C110.27 207.422 113.864 216.328 113.76 226.849C113.656 237.37 109.958 246.276 102.666 253.568C97.4577 258.776 88.7598 263.255 76.5723 267.005C64.3848 270.755 47.5618 274.088 26.1035 277.005C29.0202 255.547 32.3535 238.724 36.1035 226.536C39.8535 214.349 44.3327 205.651 49.541 200.443ZM67.3535 217.943C65.2702 220.026 63.1868 223.828 61.1035 229.349C59.0202 234.87 57.5618 240.443 56.7285 246.068C62.3535 245.234 67.9264 243.828 73.4473 241.849C78.9681 239.87 82.7702 237.838 84.8535 235.755C87.3535 233.255 88.7077 230.234 88.916 226.693C89.1244 223.151 87.9785 220.13 85.4785 217.63C82.9785 215.13 79.9577 213.932 76.416 214.036C72.8744 214.141 69.8535 215.443 67.3535 217.943Z" fill="#FEFAE0" fill-opacity="0.28"/>
</g>
</svg>
