<svg width="100" height="53" viewBox="0 0 100 53" fill="none" xmlns="http://www.w3.org/2000/svg">
<path d="M67.0739 52.7448C66.9252 52.7448 66.8047 52.624 66.8047 52.475V40.8917C66.8047 40.7426 66.9252 40.6218 67.0739 40.6218H75.2517C75.4004 40.6218 75.5209 40.7426 75.5209 40.8917V43.0039C75.5209 43.1529 75.4004 43.2737 75.2517 43.2737H70.3572C70.2086 43.2737 70.088 43.3945 70.088 43.5436V45.0875C70.088 45.2365 70.2086 45.3574 70.3572 45.3574H72.9319C73.0806 45.3574 73.2011 45.4782 73.2011 45.6272V47.7394C73.2011 47.8885 73.0806 48.0093 72.9319 48.0093H70.3572C70.2086 48.0093 70.088 48.1301 70.088 48.2791V49.8231C70.088 49.9721 70.2086 50.0929 70.3572 50.0929H75.2281C75.3767 50.0929 75.4973 50.2138 75.4973 50.3628V52.475C75.4973 52.624 75.3767 52.7448 75.2281 52.7448H67.0739Z" fill="#FEFAE0"/>
<path d="M86.8284 44.8761C86.8484 45.0328 86.7239 45.1679 86.5664 45.1679H83.7756C83.6359 45.1679 83.5211 45.0603 83.4959 44.9225C83.4628 44.7413 83.4107 44.5725 83.3395 44.4162C83.2411 44.1912 83.1033 43.9979 82.9262 43.8361C82.753 43.6703 82.5423 43.544 82.2943 43.4572C82.0463 43.3665 81.7648 43.3211 81.4499 43.3211C80.8987 43.3211 80.4322 43.4552 80.0503 43.7236C79.6724 43.9919 79.385 44.3767 79.1881 44.8779C78.9952 45.3791 78.8988 45.9809 78.8988 46.6833C78.8988 47.4252 78.9972 48.0468 79.194 48.548C79.3948 49.0452 79.6842 49.4201 80.0621 49.6727C80.44 49.9213 80.8948 50.0456 81.4262 50.0456C81.7294 50.0456 82.001 50.0081 82.2412 49.9331C82.4813 49.8542 82.69 49.7417 82.8671 49.5957C83.0443 49.4497 83.188 49.2741 83.2982 49.0689C83.3779 48.9229 83.4393 48.7645 83.4826 48.5935C83.5155 48.4635 83.6278 48.3652 83.7617 48.3661L86.5704 48.3861C86.7265 48.3872 86.8497 48.5209 86.8263 48.6755C86.7626 49.0961 86.6299 49.5232 86.428 49.9568C86.18 50.4856 85.8276 50.9749 85.371 51.4248C84.9182 51.8707 84.3572 52.2299 83.688 52.5022C83.0187 52.7744 82.2412 52.9106 81.3554 52.9106C80.2452 52.9106 79.2491 52.6718 78.3673 52.1943C77.4894 51.7168 76.7945 51.0144 76.2827 50.087C75.7749 49.1596 75.5209 48.0251 75.5209 46.6833C75.5209 45.3337 75.7808 44.1972 76.3004 43.2737C76.8201 42.3463 77.5209 41.6459 78.4027 41.1723C79.2846 40.6948 80.2688 40.4561 81.3554 40.4561C82.1191 40.4561 82.8218 40.5606 83.4636 40.7698C84.1053 40.9789 84.6682 41.2848 85.1525 41.6873C85.6367 42.0859 86.0264 42.5772 86.3217 43.1612C86.5783 43.6688 86.7472 44.2404 86.8284 44.8761Z" fill="#FEFAE0"/>
<path d="M87.537 52.7448C87.3883 52.7448 87.2678 52.624 87.2678 52.475V40.8917C87.2678 40.7426 87.3883 40.6218 87.537 40.6218H95.7148C95.8635 40.6218 95.984 40.7426 95.984 40.8917V43.0039C95.984 43.1529 95.8635 43.2737 95.7148 43.2737H90.8203C90.6717 43.2737 90.5511 43.3945 90.5511 43.5436V45.0875C90.5511 45.2365 90.6717 45.3574 90.8203 45.3574H93.395C93.5437 45.3574 93.6642 45.4782 93.6642 45.6272V47.7394C93.6642 47.8885 93.5437 48.0093 93.395 48.0093H90.8203C90.6717 48.0093 90.5511 48.1301 90.5511 48.2791V49.8231C90.5511 49.9721 90.6717 50.0929 90.8203 50.0929H95.6912C95.8398 50.0929 95.9604 50.2138 95.9604 50.3628V52.475C95.9604 52.624 95.8398 52.7448 95.6912 52.7448H87.537Z" fill="#FEFAE0"/>
<path d="M9.51439 5.35834C9.52795 5.45101 9.60492 5.52318 9.69837 5.52318H13.741C13.8056 5.52318 13.8623 5.48885 13.8932 5.43744V7.59249C13.8932 7.69171 13.9734 7.77215 14.0724 7.77215H15.5099V13.5103C15.4989 14.3978 15.6721 15.1364 16.0295 15.7262C16.387 16.316 16.9204 16.7487 17.6297 17.0243C18.3391 17.2944 19.2162 17.4019 20.261 17.3468C20.7779 17.3192 21.2233 17.2613 21.5972 17.1731C21.8874 17.1057 22.1262 17.0463 22.3134 16.995C22.4032 16.9704 22.4571 16.8797 22.4384 16.7884L21.8494 13.9253C21.8289 13.8252 21.7291 13.7619 21.6292 13.7817C21.5634 13.7948 21.4867 13.809 21.3993 13.8245C21.2178 13.8576 21.0583 13.8741 20.9209 13.8741C20.7229 13.8741 20.5607 13.8465 20.4342 13.7914C20.3077 13.7308 20.2143 13.6426 20.1538 13.5268C20.0933 13.4056 20.063 13.2567 20.063 13.0804V7.77215H22.0614C22.1604 7.77215 22.2406 7.69171 22.2406 7.59249V4.64451C22.2406 4.54528 22.1604 4.46485 22.0614 4.46485H20.063V1.60179C20.063 1.50257 19.9828 1.42214 19.8838 1.42214H15.6891C15.5901 1.42214 15.5099 1.50257 15.5099 1.60179V4.46485H14.0724C13.9734 4.46485 13.8932 4.54528 13.8932 4.6445V4.95191C13.8106 4.07947 13.5449 3.30251 13.0962 2.62103C12.5573 1.7887 11.7902 1.14377 10.7949 0.686264C9.79961 0.228755 8.62008 0 7.25634 0C5.92009 0 4.73506 0.225998 3.70126 0.677995C2.67295 1.12999 1.86735 1.76114 1.28446 2.57142C0.707072 3.3762 0.421126 4.31602 0.426625 5.39089C0.421126 6.71381 0.847296 7.75836 1.70513 8.52456C2.56847 9.28523 3.748 9.82818 5.24372 10.1534L6.9264 10.5172C7.55328 10.655 8.05094 10.8038 8.41937 10.9637C8.7878 11.118 9.05175 11.2944 9.21122 11.4929C9.37618 11.6858 9.46142 11.9118 9.46692 12.1708C9.46142 12.4465 9.37343 12.6917 9.20297 12.9067C9.0325 13.1217 8.7823 13.2898 8.45236 13.4111C8.12242 13.5324 7.71275 13.593 7.22334 13.593C6.64045 13.593 6.1373 13.502 5.71388 13.3201C5.29596 13.1382 4.97152 12.8709 4.74056 12.5181C4.5353 12.2046 4.4104 11.8258 4.36584 11.3816C4.35631 11.2866 4.27822 11.2117 4.18294 11.2117H0.17763C0.0783744 11.2117 -0.00216052 11.2928 4.42143e-05 11.3922C0.0296392 12.7275 0.331303 13.8304 0.905035 14.7009C1.50992 15.6049 2.35676 16.2747 3.44555 16.7101C4.53985 17.1456 5.82111 17.3633 7.28933 17.3633C8.71906 17.3633 9.94258 17.1621 10.9599 16.7597C11.9827 16.3573 12.769 15.7703 13.3189 14.9986C13.8688 14.2269 14.1465 13.2843 14.152 12.1708C14.1465 11.5259 14.0421 10.9306 13.8386 10.3849C13.6406 9.83921 13.3299 9.34862 12.9065 8.91316C12.4831 8.47219 11.9387 8.0891 11.2733 7.76388C10.608 7.43866 9.80785 7.17683 8.87303 6.97839L7.48729 6.68074C7.08587 6.59806 6.73943 6.50435 6.44799 6.39962C6.15654 6.29489 5.91734 6.17913 5.73037 6.05235C5.54341 5.92006 5.40594 5.77399 5.31795 5.61413C5.23547 5.44877 5.19972 5.26411 5.21072 5.06016C5.21622 4.81212 5.29046 4.59163 5.43343 4.3987C5.5764 4.20578 5.79636 4.05419 6.0933 3.94395C6.39575 3.82819 6.78342 3.77032 7.25634 3.77032C7.99869 3.77032 8.55134 3.92466 8.91427 4.23334C9.24513 4.51054 9.44517 4.88554 9.51439 5.35834Z" fill="#FEFAE0"/>
<path fill-rule="evenodd" clip-rule="evenodd" d="M38.723 16.6192C39.4818 17.0932 40.3122 17.3302 41.214 17.3302C41.8079 17.3302 42.3358 17.2338 42.7977 17.0408C43.2651 16.8424 43.6611 16.5751 43.9855 16.2388C44.306 15.9068 44.5539 15.5332 44.7291 15.118C44.7384 15.0958 44.76 15.0813 44.7841 15.0813C44.8168 15.0813 44.8433 15.1079 44.8433 15.1407V16.9852C44.8433 17.0844 44.9236 17.1649 45.0226 17.1649H49.1842C49.2832 17.1649 49.3635 17.0844 49.3635 16.9852V0.411166C49.3635 0.311945 49.2832 0.231511 49.1842 0.231511H44.9896C44.8906 0.231511 44.8103 0.311946 44.8103 0.411167V6.64152C44.8103 6.66318 44.7928 6.68074 44.7712 6.68074C44.755 6.68074 44.7405 6.67073 44.7346 6.65563C44.5699 6.23544 44.3312 5.84968 44.0185 5.49838C43.6995 5.13458 43.3036 4.84519 42.8307 4.63021C42.3578 4.40973 41.8079 4.29949 41.181 4.29949C40.3452 4.29949 39.5478 4.52273 38.789 4.96921C38.0356 5.4157 37.4197 6.1185 36.9413 7.07761C36.4684 8.03673 36.232 9.28248 36.232 10.8149C36.232 12.2811 36.4574 13.4965 36.9083 14.4612C37.3647 15.4258 37.9696 16.1451 38.723 16.6192ZM43.969 13.4607C43.6721 13.7032 43.3146 13.8245 42.8967 13.8245C42.4788 13.8245 42.1213 13.706 41.8244 13.469C41.533 13.2264 41.3075 12.8819 41.148 12.4354C40.9941 11.9834 40.9171 11.4432 40.9171 10.8149C40.9171 10.1865 40.9941 9.64904 41.148 9.20255C41.3075 8.75056 41.533 8.40604 41.8244 8.16902C42.1213 7.92649 42.4788 7.80522 42.8967 7.80522C43.3146 7.80522 43.6721 7.92649 43.969 8.16902C44.2714 8.40604 44.5024 8.75056 44.6619 9.20255C44.8268 9.64904 44.9093 10.1865 44.9093 10.8149C44.9093 11.4322 44.8268 11.9669 44.6619 12.4189C44.5024 12.8654 44.2714 13.2126 43.969 13.4607Z" fill="#FEFAE0"/>
<path fill-rule="evenodd" clip-rule="evenodd" d="M56.3921 17.3964C55.0394 17.3964 53.8736 17.1373 52.8948 16.6192C51.9215 16.0955 51.1709 15.3459 50.643 14.3702C50.1206 13.389 49.8594 12.2149 49.8594 10.8479C49.8594 9.53604 50.1233 8.38951 50.6512 7.40834C51.1791 6.42718 51.9242 5.66374 52.8866 5.11804C53.8489 4.57234 54.9844 4.29949 56.2932 4.29949C57.25 4.29949 58.1161 4.44831 58.8914 4.74597C59.6668 5.04363 60.3294 5.47633 60.8793 6.04408C61.4292 6.60632 61.8526 7.28983 62.1496 8.09461C62.4465 8.89938 62.595 9.80613 62.595 10.8149V11.6935C62.595 11.7928 62.5147 11.8732 62.4157 11.8732H54.3465V12.0716C54.3465 12.4795 54.4318 12.8433 54.6022 13.163C54.7727 13.4827 55.0174 13.7335 55.3363 13.9154C55.6553 14.0973 56.0402 14.1883 56.4911 14.1883C56.8046 14.1883 57.0905 14.1442 57.349 14.056C57.6129 13.9678 57.8384 13.841 58.0253 13.6757C58.1813 13.5331 58.3028 13.3676 58.3899 13.179C58.4213 13.1109 58.4874 13.0638 58.5623 13.0638H62.3843C62.4947 13.0638 62.5791 13.1631 62.5572 13.2717C62.3971 14.0667 62.0715 14.7636 61.5804 15.3624C61.047 16.0073 60.3404 16.5089 59.4606 16.8672C58.5862 17.22 57.5634 17.3964 56.3921 17.3964ZM54.6352 8.39226C54.4538 8.66787 54.3575 8.99033 54.3465 9.35965H58.2228C58.3228 9.35965 58.4044 9.27735 58.3943 9.17758C58.3649 8.88821 58.2749 8.62919 58.1243 8.40053C57.9483 8.11941 57.7091 7.90168 57.4067 7.74734C57.1098 7.58749 56.7716 7.50756 56.3921 7.50756C56.0237 7.50756 55.6855 7.58749 55.3776 7.74734C55.0696 7.90168 54.8222 8.11666 54.6352 8.39226Z" fill="#FEFAE0"/>
<path d="M84.2905 4.46485C84.3895 4.46485 84.4698 4.54528 84.4698 4.64451V7.59249C84.4698 7.69171 84.3895 7.77215 84.2905 7.77215H82.2922V13.0804C82.2922 13.2567 82.3224 13.4056 82.3829 13.5268C82.4434 13.6426 82.5369 13.7308 82.6633 13.7914C82.7898 13.8465 82.952 13.8741 83.15 13.8741C83.2875 13.8741 83.4469 13.8576 83.6284 13.8245C83.7159 13.809 83.7925 13.7948 83.8583 13.7817C83.9583 13.7619 84.058 13.8252 84.0786 13.9253L84.6675 16.7884C84.6863 16.8797 84.6323 16.9704 84.5425 16.995C84.3553 17.0463 84.1166 17.1057 83.8264 17.1731C83.4524 17.2613 83.007 17.3192 82.4901 17.3468C81.4453 17.4019 80.5682 17.2944 79.8589 17.0243C79.1495 16.7487 78.6161 16.316 78.2587 15.7262C77.9012 15.1364 77.728 14.3978 77.739 13.5103V7.77215H76.3016C76.2026 7.77215 76.1223 7.69171 76.1223 7.59249V4.6445C76.1223 4.54528 76.2026 4.46485 76.3016 4.46485H77.739V1.60179C77.739 1.50257 77.8193 1.42214 77.9183 1.42214H82.1129C82.2119 1.42214 82.2922 1.50257 82.2922 1.60179V4.46485H84.2905Z" fill="#FEFAE0"/>
<path d="M96.3082 8.59897C96.4101 8.59897 96.4918 8.51375 96.4839 8.41195C96.3866 7.15604 95.8321 6.16556 94.8205 5.4405C93.7647 4.67982 92.3212 4.29949 90.49 4.29949C89.2858 4.29949 88.2437 4.46209 87.3639 4.78731C86.4895 5.10702 85.8159 5.57555 85.343 6.19291C84.8756 6.80476 84.6446 7.55166 84.6501 8.43361C84.6446 9.43131 84.9636 10.2471 85.607 10.881C86.2503 11.5149 87.2182 11.9448 88.5104 12.1708L90.754 12.5677C91.2489 12.6559 91.6118 12.7717 91.8428 12.915C92.0793 13.0583 92.2002 13.2512 92.2057 13.4938C92.2002 13.7584 92.06 13.9623 91.785 14.1056C91.5156 14.2489 91.1719 14.3206 90.754 14.3206C90.2371 14.3206 89.8082 14.2131 89.4672 13.9981C89.1752 13.8062 88.9873 13.5452 88.9037 13.2154C88.8819 13.1292 88.8078 13.0638 88.7191 13.0638H84.5507C84.4449 13.0638 84.3618 13.1555 84.3763 13.2606C84.5428 14.4707 85.1428 15.4524 86.1761 16.2057C87.2704 16.9995 88.7854 17.3964 90.721 17.3964C91.8923 17.3964 92.9343 17.2172 93.8472 16.8589C94.7655 16.4951 95.4886 15.9825 96.0165 15.321C96.5499 14.6541 96.8193 13.8686 96.8248 12.9646C96.8193 12.0275 96.4977 11.2806 95.8598 10.7239C95.2274 10.1617 94.2623 9.76204 92.9646 9.52501L90.3911 9.06199C89.9072 8.9738 89.58 8.84977 89.4095 8.68992C89.2445 8.53007 89.1648 8.35643 89.1703 8.16902C89.1648 7.90444 89.3023 7.70049 89.5827 7.55717C89.8632 7.41386 90.1986 7.3422 90.589 7.3422C90.8915 7.3422 91.1664 7.39456 91.4139 7.49929C91.6668 7.59851 91.873 7.74183 92.0325 7.92924C92.1575 8.0761 92.2402 8.24495 92.2808 8.43581C92.3001 8.52708 92.3762 8.59897 92.4693 8.59897H96.3082Z" fill="#FEFAE0"/>
<path d="M30.2856 27.6367C30.2961 27.7413 30.2135 27.8312 30.1086 27.8312H25.8453C25.7522 27.8312 25.6752 27.7597 25.6632 27.6672C25.6214 27.3456 25.5393 27.0502 25.4168 26.7811C25.2794 26.4669 25.0869 26.1968 24.8394 25.9709C24.5975 25.7393 24.3033 25.563 23.9569 25.4417C23.6104 25.3149 23.2172 25.2515 22.7773 25.2515C22.0075 25.2515 21.3558 25.4389 20.8224 25.8138C20.2945 26.1886 19.8931 26.726 19.6182 27.4261C19.3487 28.1261 19.214 28.9667 19.214 29.9479C19.214 30.9842 19.3515 31.8523 19.6264 32.5524C19.9069 33.2469 20.311 33.7706 20.8389 34.1233C21.3668 34.4706 22.002 34.6442 22.7443 34.6442C23.1677 34.6442 23.5472 34.5919 23.8826 34.4871C24.218 34.3769 24.5095 34.2198 24.7569 34.0159C25.0044 33.8119 25.2051 33.5666 25.3591 33.28C25.4958 33.0294 25.5942 32.7526 25.6541 32.4494C25.6714 32.3617 25.7469 32.2965 25.836 32.2972L30.1113 32.3278C30.2152 32.3285 30.297 32.4174 30.286 32.5209C30.2166 33.1759 30.0463 33.8424 29.7308 34.5202C29.3843 35.2588 28.8922 35.9424 28.2543 36.5707C27.6219 37.1936 26.8383 37.6952 25.9035 38.0756C24.9687 38.4559 23.8826 38.6461 22.6453 38.6461C21.0946 38.6461 19.7034 38.3126 18.4716 37.6456C17.2454 36.9786 16.2748 35.9975 15.5599 34.7021C14.8506 33.4068 14.4959 31.822 14.4959 29.9479C14.4959 28.0627 14.8588 26.4752 15.5847 25.1854C16.3105 23.89 17.2894 22.9116 18.5211 22.2501C19.7529 21.5832 21.1276 21.2497 22.6453 21.2497C23.7121 21.2497 24.6937 21.3958 25.59 21.6879C26.4864 21.98 27.2727 22.4072 27.9491 22.9695C28.6255 23.5262 29.1699 24.2125 29.5823 25.0283C29.9691 25.7935 30.1874 26.663 30.2856 27.6367Z" fill="#FEFAE0"/>
<path fill-rule="evenodd" clip-rule="evenodd" d="M46.3265 38.2161C46.9479 38.4807 47.6628 38.613 48.4711 38.613C49.021 38.613 49.5242 38.5468 49.9806 38.4146C50.4425 38.2823 50.8522 38.07 51.2096 37.7779C51.5642 37.4925 51.8662 37.1203 52.1158 36.6614C52.1267 36.6413 52.1477 36.6286 52.1705 36.6286C52.2047 36.6286 52.2324 36.6564 52.2324 36.6907V38.2349C52.2324 38.3341 52.3127 38.4146 52.4117 38.4146H56.3094C56.4084 38.4146 56.4886 38.3341 56.4886 38.2349V29.7164C56.4886 29.1266 56.3539 28.5809 56.0844 28.0793C55.8205 27.5721 55.4356 27.1312 54.9297 26.7563C54.4238 26.376 53.8106 26.0811 53.0903 25.8716C52.3699 25.6567 51.5561 25.5492 50.6487 25.5492C49.3895 25.5492 48.3392 25.7476 47.4978 26.1445C46.6565 26.5359 46.0159 27.0595 45.5759 27.7155C45.1778 28.3115 44.939 28.9586 44.8596 29.6565C44.8478 29.7601 44.9303 29.8487 45.0343 29.8487H48.8763C48.9656 29.8487 49.0401 29.7824 49.0603 29.6951C49.133 29.3807 49.2858 29.1425 49.5187 28.9805C49.7936 28.7876 50.1483 28.6911 50.5827 28.6911C50.9787 28.6911 51.3031 28.7793 51.556 28.9557C51.809 29.1321 51.9355 29.3856 51.9355 29.7164V29.7494C51.9355 29.992 51.8392 30.1877 51.6468 30.3365C51.4543 30.4798 51.1409 30.5928 50.7065 30.6755C50.2775 30.7527 49.7084 30.8188 48.999 30.8739C48.3447 30.9235 47.7343 31.031 47.1679 31.1964C46.607 31.3617 46.1148 31.6015 45.6914 31.9157C45.268 32.2299 44.9381 32.6351 44.7016 33.1311C44.4651 33.6217 44.3469 34.2143 44.3469 34.9088C44.3469 35.7522 44.5229 36.4467 44.8748 36.9924C45.2267 37.5381 45.7107 37.946 46.3265 38.2161ZM50.9292 35.5207C50.6267 35.664 50.3023 35.7356 49.9558 35.7356C49.5709 35.7356 49.2547 35.6419 49.0073 35.4545C48.7598 35.2671 48.6361 34.997 48.6361 34.6442C48.6361 34.4237 48.6883 34.2253 48.7928 34.0489C48.9028 33.867 49.0678 33.7154 49.2877 33.5942C49.5132 33.4674 49.8019 33.3764 50.1538 33.3213C50.3353 33.2938 50.5085 33.2634 50.6735 33.2304C50.8439 33.1973 51.0034 33.1615 51.1519 33.1229C51.3058 33.0843 51.4488 33.043 51.5808 32.9989C51.6277 32.9838 51.6737 32.9684 51.7187 32.9527C51.839 32.9108 51.9685 32.9982 51.9685 33.1259V33.9166C51.9685 34.3025 51.8722 34.6305 51.6798 34.9006C51.4873 35.1706 51.2371 35.3774 50.9292 35.5207Z" fill="#FEFAE0"/>
<path fill-rule="evenodd" clip-rule="evenodd" d="M57.5659 43.1771C57.4669 43.1771 57.3866 43.0966 57.3866 42.9974V25.8942C57.3866 25.795 57.4669 25.7145 57.5659 25.7145H61.7275C61.8265 25.7145 61.9068 25.795 61.9068 25.8942V27.8716C61.9068 27.9041 61.933 27.9304 61.9655 27.9304C61.9897 27.9304 62.0115 27.9154 62.0204 27.8928C62.1849 27.4775 62.422 27.0959 62.7316 26.7481C63.0506 26.3843 63.4465 26.0949 63.9194 25.8799C64.3923 25.6594 64.9422 25.5492 65.5691 25.5492C66.4049 25.5492 67.1995 25.7724 67.9529 26.2189C68.7117 26.6654 69.3276 27.3682 69.8005 28.3273C70.2789 29.2864 70.5181 30.5322 70.5181 32.0645C70.5181 33.5308 70.2899 34.7462 69.8335 35.7108C69.3826 36.6755 68.7777 37.3948 68.0189 37.8689C67.2655 38.3429 66.4379 38.5799 65.5361 38.5799C64.9422 38.5799 64.4115 38.4835 63.9441 38.2905C63.4822 38.0921 63.0863 37.8248 62.7564 37.4885C62.4381 37.1533 62.1913 36.7756 62.0159 36.3555C62.0097 36.3407 61.9953 36.331 61.9793 36.331C61.9575 36.331 61.9398 36.3487 61.9398 36.3706V42.9974C61.9398 43.0966 61.8595 43.1771 61.7605 43.1771H57.5659ZM61.8408 32.0645C61.8408 32.6819 61.9205 33.2166 62.08 33.6686C62.245 34.1151 62.4759 34.4623 62.7729 34.7104C63.0753 34.9529 63.4355 35.0742 63.8534 35.0742C64.2713 35.0742 64.626 34.9557 64.9175 34.7187C65.2144 34.4761 65.4399 34.1316 65.5938 33.6851C65.7533 33.2331 65.833 32.6929 65.833 32.0645C65.833 31.4362 65.7533 30.8987 65.5938 30.4522C65.4399 30.0002 65.2144 29.6557 64.9175 29.4187C64.626 29.1762 64.2713 29.0549 63.8534 29.0549C63.4355 29.0549 63.0753 29.1762 62.7729 29.4187C62.4759 29.6557 62.245 30.0002 62.08 30.4522C61.9205 30.8987 61.8408 31.4362 61.8408 32.0645Z" fill="#FEFAE0"/>
<path fill-rule="evenodd" clip-rule="evenodd" d="M84.6383 38.6461C83.2856 38.6461 82.1198 38.387 81.141 37.8689C80.1677 37.3452 79.4171 36.5955 78.8892 35.6199C78.3668 34.6387 78.1056 33.4646 78.1056 32.0976C78.1056 30.7857 78.3695 29.6392 78.8974 28.658C79.4253 27.6769 80.1704 26.9134 81.1328 26.3677C82.0951 25.822 83.2306 25.5492 84.5394 25.5492C85.4962 25.5492 86.3623 25.698 87.1376 25.9957C87.913 26.2933 88.5756 26.726 89.1255 27.2938C89.6754 27.856 90.0988 28.5395 90.3958 29.3443C90.6927 30.1491 90.8412 31.0558 90.8412 32.0645V32.9432C90.8412 33.0424 90.7609 33.1229 90.6619 33.1229H82.5927V33.3213C82.5927 33.7292 82.678 34.093 82.8484 34.4127C83.0189 34.7324 83.2636 34.9832 83.5825 35.1651C83.9015 35.347 84.2864 35.438 84.7373 35.438C85.0508 35.438 85.3367 35.3939 85.5952 35.3057C85.8591 35.2175 86.0846 35.0907 86.2715 34.9254C86.4275 34.7828 86.549 34.6173 86.6361 34.4287C86.6675 34.3606 86.7336 34.3135 86.8085 34.3135H90.6305C90.7409 34.3135 90.8253 34.4128 90.8034 34.5213C90.6433 35.3164 90.3177 36.0133 89.8266 36.6121C89.2932 37.257 88.5866 37.7586 87.7068 38.1169C86.8324 38.4697 85.8096 38.6461 84.6383 38.6461ZM82.8814 29.642C82.7 29.9176 82.6037 30.24 82.5927 30.6093H86.469C86.5691 30.6093 86.6507 30.527 86.6405 30.4273C86.6111 30.1379 86.5211 29.8789 86.3705 29.6502C86.1946 29.3691 85.9554 29.1514 85.6529 28.997C85.356 28.8372 85.0178 28.7572 84.6383 28.7572C84.2699 28.7572 83.9317 28.8372 83.6238 28.997C83.3158 29.1514 83.0684 29.3663 82.8814 29.642Z" fill="#FEFAE0"/>
<path d="M91.4216 38.2349C91.4216 38.3341 91.5019 38.4146 91.6008 38.4146H95.7955C95.8945 38.4146 95.9748 38.3341 95.9748 38.2349V31.8C95.9748 31.3149 96.0765 30.8932 96.28 30.5349C96.4834 30.1711 96.7611 29.89 97.113 29.6916C97.4705 29.4876 97.8719 29.3856 98.3173 29.3856C98.5538 29.3856 98.837 29.4049 99.1669 29.4435C99.3879 29.4694 99.5854 29.5038 99.7595 29.547C99.8788 29.5766 100 29.4891 100 29.366V25.8561C100 25.7769 99.9484 25.7067 99.8721 25.6866C99.7299 25.6492 99.5828 25.6199 99.4309 25.5988C99.2384 25.5657 99.0432 25.5492 98.8452 25.5492C98.1689 25.5492 97.5777 25.7559 97.0718 26.1693C96.5819 26.574 96.2211 27.2086 95.9895 28.0729C95.9807 28.1058 95.9511 28.1289 95.9172 28.1289C95.8761 28.1289 95.8428 28.0955 95.8428 28.0543V25.8942C95.8428 25.795 95.7626 25.7145 95.6636 25.7145H91.6008C91.5019 25.7145 91.4216 25.795 91.4216 25.8942V38.2349Z" fill="#FEFAE0"/>
<path d="M67.7285 16.9852V10.0211C67.734 9.60218 67.811 9.24389 67.9595 8.94624C68.108 8.64307 68.3197 8.41156 68.5946 8.2517C68.8751 8.08634 69.2023 8.00366 69.5762 8.00366C70.1481 8.00366 70.5935 8.1828 70.9124 8.54109C71.2369 8.89938 71.3964 9.39272 71.3909 10.0211L71.3918 19.0597L60.9184 19.06C60.6871 19.0724 60.3404 19.0988 60.0103 19.1494C59.6361 19.2068 59.2464 19.2849 59.0265 19.4186C58.8971 19.4972 58.8936 19.6637 58.946 19.8061L60.2797 23.4287C60.3157 23.5266 60.4109 23.5896 60.5148 23.5846L60.9439 23.5636H71.3922L71.3924 25.7145H70.523C70.424 25.7145 70.3438 25.795 70.3438 25.8942V28.8422C70.3438 28.9414 70.424 29.0218 70.523 29.0218H71.3924V34.76C71.3814 35.6474 71.5546 36.3861 71.9121 36.9759C72.2695 37.5657 72.8029 37.9984 73.5123 38.274C74.2216 38.5441 75.0987 38.6516 76.1435 38.5965C76.6604 38.5689 77.1058 38.511 77.4798 38.4228C77.77 38.3554 78.0087 38.296 78.196 38.2446C78.2857 38.22 78.3397 38.1294 78.3209 38.0381L77.732 35.1749C77.7114 35.0749 77.6117 35.0116 77.5117 35.0314C77.4459 35.0445 77.3693 35.0587 77.2818 35.0742C77.1003 35.1073 76.9409 35.1238 76.8034 35.1238C76.6054 35.1238 76.4432 35.0962 76.3167 35.0411C76.1903 34.9805 76.0968 34.8923 76.0363 34.7765C75.9758 34.6553 75.9456 34.5064 75.9456 34.33V29.0218H77.9439C78.0429 29.0218 78.1232 28.9414 78.1232 28.8422V25.8942C78.1232 25.795 78.0429 25.7145 77.9439 25.7145H75.9456L75.944 9.06199C75.9495 8.14146 75.768 7.3229 75.3996 6.60632C75.0367 5.88974 74.5225 5.3275 73.8571 4.9196C73.1973 4.50619 72.4192 4.29949 71.5228 4.29949C70.5935 4.29949 69.7797 4.52824 69.0813 4.98575C68.4034 5.43334 67.9256 6.04711 67.6478 6.82708C67.6367 6.85814 67.6075 6.87918 67.5746 6.87918C67.5321 6.87918 67.4976 6.84463 67.4976 6.80201V4.64451C67.4976 4.54528 67.4173 4.46485 67.3184 4.46485H63.3546C63.2556 4.46485 63.1754 4.54528 63.1754 4.64451V16.9852C63.1754 17.0844 63.2556 17.1649 63.3546 17.1649H67.5493C67.6483 17.1649 67.7285 17.0844 67.7285 16.9852Z" fill="#FEFAE0"/>
<path d="M58.6029 20.2233C58.5554 20.0945 58.4549 19.9926 58.3277 19.9415C58.2015 19.8908 58.0528 19.8301 57.8913 19.7642C57.2691 19.5101 56.4564 19.1783 55.9984 19.0409C55.8212 18.9878 55.6339 18.9825 55.4551 19.0296C54.3676 19.3165 53.6434 20.5092 53.5485 20.8961C53.4664 21.2309 53.6065 21.3552 53.7038 21.4039C53.7624 21.4333 53.8931 21.4479 54.0382 21.4221C54.2239 21.389 54.3733 21.2637 54.5191 21.1415L54.5491 21.1163L54.5638 21.1041C55.3775 20.4291 55.7817 20.4955 55.9306 20.5426C56.7866 21.3402 58.4527 22.8762 58.9972 23.3466C59.0933 23.4297 59.2256 23.4603 59.338 23.4014C59.4288 23.3538 59.4952 23.2974 59.5453 23.2417C59.6283 23.1495 59.6329 23.0145 59.5899 22.898L58.6029 20.2233Z" fill="#FEFAE0"/>
<path d="M52.0384 19.7471C52.0854 19.624 52.2047 19.5455 52.3362 19.5455H53.6769C53.7513 19.5455 53.7931 19.6311 53.7479 19.6903C53.5109 20.0005 53.1584 20.4926 53.0721 20.8771C52.9706 21.3291 53.3158 22.0776 54.1858 21.841C54.6142 21.7245 54.8268 21.5195 55.0149 21.338C55.1728 21.1856 55.3134 21.0499 55.55 20.9973C55.6631 20.9721 55.7778 21.0149 55.8665 21.0897C56.6457 21.7472 58.1152 23.1399 58.7892 23.7897C58.8581 23.8992 58.9753 24.1498 58.8926 24.2755C58.7892 24.4327 58.5505 24.4469 58.4222 24.3612C58.3287 24.2988 57.2598 23.2935 56.6965 22.7513C56.6127 22.6706 56.4804 22.6703 56.3964 22.7507C56.3075 22.8358 56.3071 22.9779 56.3957 23.0634L57.8011 24.4207C57.9568 24.5711 57.9497 24.8232 57.7858 24.9645C57.6403 25.0899 57.423 25.0819 57.2872 24.946L55.8848 23.5434C55.7974 23.456 55.656 23.4558 55.5683 23.5429C55.4809 23.6297 55.4795 23.771 55.5653 23.8595L56.6604 24.9889C56.7907 25.1233 56.7974 25.3352 56.6758 25.4777C56.5381 25.6389 56.2925 25.6479 56.1435 25.4971L54.9043 24.2424C54.8238 24.1609 54.6953 24.1525 54.605 24.2229C54.4974 24.3068 54.4878 24.4664 54.5846 24.5626L55.598 25.5693C55.7131 25.6836 55.7125 25.8701 55.5968 25.9837C55.496 26.0827 55.3392 26.0951 55.2255 26.0113C54.1362 25.2087 52.0211 23.5294 51.2972 22.5566C51.2393 22.4789 51.2258 22.3785 51.2534 22.2855C51.327 22.0369 51.3944 21.8071 51.4568 21.5943C51.6995 20.767 51.8677 20.1936 52.0384 19.7471Z" fill="#FEFAE0"/>
<path d="M31.0057 4.6445V11.6086C31.0112 12.0275 30.937 12.3886 30.783 12.6917C30.6345 12.9894 30.4201 13.2209 30.1396 13.3863C29.8647 13.5461 29.5375 13.6261 29.1581 13.6261C28.5862 13.6261 28.1407 13.4469 27.8218 13.0886C27.5084 12.7303 27.3489 12.237 27.3434 11.6086V4.64451C27.3434 4.54528 27.2632 4.46485 27.1642 4.46485H22.9695C22.8705 4.46485 22.7903 4.54528 22.7903 4.6445V12.5677C22.7958 13.4938 22.98 14.3151 23.3429 15.0317C23.7113 15.7482 24.2255 16.3105 24.8854 16.7184C25.5507 17.1263 26.3261 17.3302 27.2114 17.3302C28.1572 17.3302 28.9738 17.1042 29.6612 16.6522C30.3337 16.2046 30.8089 15.5881 31.0866 14.8027C31.0976 14.7716 31.1268 14.7505 31.1598 14.7505C31.2022 14.7505 31.2367 14.7851 31.2367 14.8276L31.2377 17.3132L31.2676 38.2352C31.2677 38.3343 31.3479 38.4146 31.4468 38.4146H35.5759C35.6749 38.4146 35.7552 38.3341 35.7552 38.2349V31.2708C35.7607 30.8519 35.8377 30.4936 35.9861 30.1959C36.1401 29.8928 36.3546 29.6612 36.6295 29.5014C36.91 29.336 37.2344 29.2533 37.6028 29.2533C38.1857 29.2533 38.6339 29.4325 38.9473 29.7908C39.2663 30.1491 39.423 30.6424 39.4175 31.2708V38.2349C39.4175 38.3341 39.4977 38.4146 39.5967 38.4146H43.7914C43.8904 38.4146 43.9706 38.3341 43.9706 38.2349V30.3117C43.9761 29.3856 43.7947 28.5643 43.4262 27.8477C43.0633 27.1312 42.5491 26.5689 41.8838 26.161C41.2239 25.7531 40.4458 25.5492 39.5495 25.5492C38.6146 25.5492 37.8145 25.7779 37.1492 26.2354C36.498 26.6778 36.0285 27.2917 35.7408 28.0772C35.7295 28.108 35.7002 28.1289 35.6674 28.1289C35.6247 28.1289 35.5901 28.0942 35.59 28.0515L35.5764 22.9737L50.3638 22.9753C50.4685 22.9753 50.5609 22.9068 50.5916 22.8066L51.6879 19.2251C51.729 19.091 51.7252 18.9385 51.6153 18.8517C51.4216 18.6989 51.0716 18.5903 50.69 18.5318C50.3804 18.4843 50.1336 18.4585 49.964 18.4457L35.5642 18.4441L35.5588 4.64451C35.5588 4.54528 35.4786 4.46485 35.3796 4.46485H31.1849C31.0859 4.46485 31.0057 4.54528 31.0057 4.6445Z" fill="#FEFAE0"/>
</svg>
