<svg width="25" height="24" viewBox="0 0 25 24" fill="none" xmlns="http://www.w3.org/2000/svg">
<path d="M9.5 22H15.5C20.5 22 22.5 20 22.5 15V9C22.5 4 20.5 2 15.5 2H9.5C4.5 2 2.5 4 2.5 9V15C2.5 20 4.5 22 9.5 22Z" stroke="#FEFAE0" stroke-width="1.5" stroke-linecap="round" stroke-linejoin="round"/>
<path d="M13.1 18.5H16.9C18.4 18.5 19 17.9 19 16.4V14.6C19 13.1 18.4 12.5 16.9 12.5H13.1C11.6 12.5 11 13.1 11 14.6V16.4C11 17.9 11.6 18.5 13.1 18.5Z" stroke="#FEFAE0" stroke-width="1.5" stroke-linecap="round" stroke-linejoin="round"/>
</svg>
