<svg width="31" height="31" viewBox="0 0 31 31" fill="none" xmlns="http://www.w3.org/2000/svg">
<path d="M28.5026 30.5L18.0026 20C17.1693 20.6667 16.2109 21.1944 15.1276 21.5833C14.0443 21.9722 12.8915 22.1667 11.6693 22.1667C8.64149 22.1667 6.07899 21.1181 3.98177 19.0208C1.88455 16.9236 0.835938 14.3611 0.835938 11.3333C0.835938 8.30556 1.88455 5.74306 3.98177 3.64583C6.07899 1.54861 8.64149 0.5 11.6693 0.5C14.697 0.5 17.2595 1.54861 19.3568 3.64583C21.454 5.74306 22.5026 8.30556 22.5026 11.3333C22.5026 12.5556 22.3082 13.7083 21.9193 14.7917C21.5304 15.875 21.0026 16.8333 20.3359 17.6667L30.8359 28.1667L28.5026 30.5ZM11.6693 18.8333C13.7526 18.8333 15.5234 18.1042 16.9818 16.6458C18.4401 15.1875 19.1693 13.4167 19.1693 11.3333C19.1693 9.25 18.4401 7.47917 16.9818 6.02083C15.5234 4.5625 13.7526 3.83333 11.6693 3.83333C9.58594 3.83333 7.8151 4.5625 6.35677 6.02083C4.89844 7.47917 4.16927 9.25 4.16927 11.3333C4.16927 13.4167 4.89844 15.1875 6.35677 16.6458C7.8151 18.1042 9.58594 18.8333 11.6693 18.8333Z" fill="#FEFAE0"/>
</svg>
