<svg width="96" height="96" viewBox="0 0 96 96" fill="none" xmlns="http://www.w3.org/2000/svg">
<path d="M67.442 1.05332C80.1878 7.2828 62.3567 37.0227 62.3567 37.0227C62.3567 37.0227 96.9801 38.9274 94.9942 52.9743C93.0083 67.0213 59.2138 59.2531 59.2138 59.2531C59.2138 59.2531 68.1016 92.7705 54.1285 95.2225C40.1553 97.6745 37.1003 63.1335 37.1003 63.1335C37.1003 63.1335 7.96979 81.9438 1.31987 69.4123C-5.33005 56.8808 26.5763 43.3015 26.5763 43.3015C26.5763 43.3015 -0.315142 21.4094 9.5481 11.2125C19.4113 1.01562 42.1856 27.1641 42.1856 27.1641C42.1856 27.1641 54.6963 -5.17617 67.442 1.05332Z" fill="#FF002B"/>
</svg>
