<svg width="66" height="63" viewBox="0 0 66 63" fill="none" xmlns="http://www.w3.org/2000/svg">
<path d="M45.0958 0.709326C54.0009 5.06168 42.3556 24.1771 42.3556 24.1771C42.3556 24.1771 66.2286 26.1573 65.1585 35.322C64.0884 44.4867 40.6621 38.681 40.6621 38.681C40.6621 38.681 47.4884 60.837 37.9219 62.1487C28.3555 63.4605 25.5225 40.7569 25.5225 40.7569C25.5225 40.7569 5.86841 52.4699 1.02613 44.1159C-3.81614 35.7619 17.8592 27.5361 17.8592 27.5361C17.8592 27.5361 -1.11392 12.6191 5.45982 6.14426C12.0336 -0.330573 28.2627 17.2892 28.2627 17.2892C28.2627 17.2892 36.1907 -3.64303 45.0958 0.709326Z" fill="#FF002B"/>
</svg>
