<svg width="36" height="36" viewBox="0 0 36 36" fill="none" xmlns="http://www.w3.org/2000/svg">
<path d="M12.5701 18L16.1851 21.63L23.4301 14.37" stroke="#042F2E" stroke-width="1.5" stroke-linecap="round" stroke-linejoin="round"/>
<path d="M16.1251 3.67498C17.1601 2.78998 18.8551 2.78998 19.9051 3.67498L22.2751 5.71498C22.7251 6.10498 23.5651 6.41998 24.1651 6.41998H26.7151C28.3051 6.41998 29.6101 7.72498 29.6101 9.31498V11.865C29.6101 12.45 29.9251 13.305 30.3151 13.755L32.3551 16.125C33.2401 17.16 33.2401 18.855 32.3551 19.905L30.3151 22.275C29.9251 22.725 29.6101 23.565 29.6101 24.165V26.715C29.6101 28.305 28.3051 29.61 26.7151 29.61H24.1651C23.5801 29.61 22.7251 29.925 22.2751 30.315L19.9051 32.355C18.8701 33.24 17.1751 33.24 16.1251 32.355L13.7551 30.315C13.3051 29.925 12.4651 29.61 11.8651 29.61H9.27007C7.68007 29.61 6.37507 28.305 6.37507 26.715V24.15C6.37507 23.565 6.06007 22.725 5.68507 22.275L3.66007 19.89C2.79007 18.855 2.79007 17.175 3.66007 16.14L5.68507 13.755C6.06007 13.305 6.37507 12.465 6.37507 11.88V9.29998C6.37507 7.70998 7.68007 6.40498 9.27007 6.40498H11.8651C12.4501 6.40498 13.3051 6.08998 13.7551 5.69998L16.1251 3.67498Z" stroke="#042F2E" stroke-width="1.5" stroke-linecap="round" stroke-linejoin="round"/>
</svg>
