<svg width="40" height="40" viewBox="0 0 40 40" fill="none" xmlns="http://www.w3.org/2000/svg">
<g clip-path="url(#clip0_525_3119)">
<path d="M3.34019 36.6666L5.59352 28.3866C4.10875 25.8414 3.32868 22.9466 3.33352 20C3.33352 10.795 10.7952 3.33331 20.0002 3.33331C29.2052 3.33331 36.6669 10.795 36.6669 20C36.6669 29.205 29.2052 36.6666 20.0002 36.6666C17.0548 36.6714 14.1613 35.8919 11.6169 34.4083L3.34019 36.6666ZM13.9852 12.18C13.77 12.1933 13.5596 12.25 13.3669 12.3466C13.1861 12.449 13.021 12.577 12.8769 12.7266C12.6769 12.915 12.5635 13.0783 12.4419 13.2366C11.8259 14.0383 11.4945 15.0223 11.5002 16.0333C11.5035 16.85 11.7169 17.645 12.0502 18.3883C12.7319 19.8916 13.8535 21.4833 15.3352 22.9583C15.6919 23.3133 16.0402 23.67 16.4152 24.0016C18.2542 25.6208 20.4456 26.7884 22.8152 27.4116L23.7635 27.5566C24.0719 27.5733 24.3802 27.55 24.6902 27.535C25.1756 27.5099 25.6495 27.3785 26.0785 27.15C26.3552 27.0033 26.4852 26.93 26.7169 26.7833C26.7169 26.7833 26.7885 26.7366 26.9252 26.6333C27.1502 26.4666 27.2885 26.3483 27.4752 26.1533C27.6135 26.01 27.7335 25.8416 27.8252 25.65C27.9552 25.3783 28.0852 24.86 28.1385 24.4283C28.1785 24.0983 28.1668 23.9183 28.1618 23.8066C28.1552 23.6283 28.0069 23.4433 27.8452 23.365L26.8752 22.93C26.8752 22.93 25.4252 22.2983 24.5402 21.895C24.4469 21.8543 24.3469 21.8311 24.2452 21.8266C24.1312 21.8149 24.0159 21.8278 23.9073 21.8643C23.7986 21.9008 23.699 21.9601 23.6152 22.0383V22.035C23.6069 22.035 23.4952 22.13 22.2902 23.59C22.221 23.6829 22.1258 23.7532 22.0165 23.7917C21.9073 23.8303 21.789 23.8355 21.6769 23.8066C21.5683 23.7776 21.4619 23.7408 21.3585 23.6966C21.1518 23.61 21.0802 23.5766 20.9385 23.515L20.9302 23.5116C19.9767 23.0954 19.0939 22.5331 18.3135 21.845C18.1035 21.6616 17.9085 21.4616 17.7085 21.2683C17.0528 20.6404 16.4814 19.93 16.0085 19.155L15.9102 18.9966C15.8396 18.8903 15.7825 18.7755 15.7402 18.655C15.6769 18.41 15.8419 18.2133 15.8419 18.2133C15.8419 18.2133 16.2469 17.77 16.4352 17.53C16.592 17.3305 16.7383 17.123 16.8735 16.9083C17.0702 16.5916 17.1319 16.2666 17.0285 16.015C16.5619 14.875 16.0785 13.74 15.5819 12.6133C15.4835 12.39 15.1919 12.23 14.9269 12.1983C14.8369 12.1883 14.7469 12.1783 14.6569 12.1716C14.433 12.1605 14.2087 12.1644 13.9852 12.18Z" fill="#FEFAE0"/>
</g>
<defs>
<clipPath id="clip0_525_3119">
<rect width="40" height="40" fill="white"/>
</clipPath>
</defs>
</svg>
