<svg width="150" height="40" viewBox="0 0 150 40" fill="none" xmlns="http://www.w3.org/2000/svg">
<rect x="0.5" y="0.5" width="149" height="39" rx="19.5" fill="#FF002B" stroke="#010100"/>
<path d="M35.5663 25H34.3663V13.512H40.9583V14.552H35.5663V19.032H40.2063V20.072H35.5663V25ZM48.0064 21.592V16.568H49.1104V25H48.0704V23.48C47.6384 24.456 46.6144 25.16 45.3824 25.16C43.6704 25.16 42.5344 24.184 42.5344 22.056V16.568H43.6544V21.816C43.6544 23.528 44.5024 24.184 45.6864 24.184C47.0304 24.184 48.0064 23.096 48.0064 21.592ZM52.6563 20.088V25H51.5363V16.568H52.5763V18.152C53.1203 17.112 54.1443 16.408 55.3603 16.408C57.1203 16.408 58.2563 17.528 58.2563 19.528V25H57.1363V19.912C57.1363 18.296 56.4003 17.384 55.0243 17.384C53.7123 17.384 52.6563 18.52 52.6563 20.088ZM72.1342 25L70.9342 21.816H65.5742L64.3582 25H63.1742L67.6382 13.512H68.9502L73.3982 25H72.1342ZM68.2622 14.792L65.9422 20.84H70.5502L68.2622 14.792ZM77.7196 25.176C75.4956 25.176 73.9436 23.368 73.9436 20.776C73.9436 18.216 75.5116 16.408 77.7196 16.408C79.6876 16.408 81.0956 17.72 81.4316 19.832H80.2956C80.0396 18.296 79.0796 17.384 77.7196 17.384C76.1516 17.384 75.0796 18.76 75.0796 20.776C75.0796 22.824 76.1516 24.2 77.7196 24.2C79.0956 24.2 80.0396 23.304 80.2956 21.736H81.4316C81.1276 23.88 79.7036 25.176 77.7196 25.176ZM87.5754 23.928V24.92C87.1434 25.096 86.7754 25.16 86.3594 25.16C84.9674 25.16 83.8954 24.44 83.8954 22.616V17.512H81.9114V16.568H83.8954V14.072H85.0154V16.568H87.6554V17.512H85.0154V22.376C85.0154 23.688 85.6554 24.136 86.5834 24.136C86.9354 24.136 87.2234 24.072 87.5754 23.928ZM90.8048 14.616C90.8048 15.112 90.4368 15.464 89.8928 15.464C89.3648 15.464 88.9968 15.112 88.9968 14.616C88.9968 14.136 89.3648 13.784 89.8928 13.784C90.4368 13.784 90.8048 14.136 90.8048 14.616ZM90.4688 25H89.3488V16.568H90.4688V25ZM99.3917 16.568L96.1437 25H94.9757L91.7597 16.568H92.9597L95.5997 23.688L98.2397 16.568H99.3917ZM102.149 14.616C102.149 15.112 101.781 15.464 101.237 15.464C100.709 15.464 100.341 15.112 100.341 14.616C100.341 14.136 100.709 13.784 101.237 13.784C101.781 13.784 102.149 14.136 102.149 14.616ZM101.813 25H100.693V16.568H101.813V25ZM108.575 23.928V24.92C108.143 25.096 107.775 25.16 107.359 25.16C105.967 25.16 104.895 24.44 104.895 22.616V17.512H102.911V16.568H104.895V14.072H106.015V16.568H108.655V17.512H106.015V22.376C106.015 23.688 106.655 24.136 107.583 24.136C107.935 24.136 108.223 24.072 108.575 23.928ZM116.845 16.568L112.525 28.088H111.325L112.557 24.888L109.213 16.568H110.413L113.133 23.544L115.709 16.568H116.845Z" fill="#FEFAE0"/>
</svg>
