<svg width="150" height="40" viewBox="0 0 150 40" fill="none" xmlns="http://www.w3.org/2000/svg">
<rect x="0.5" y="0.5" width="149" height="39" rx="19.5" fill="#FF002B" stroke="#010100"/>
<path d="M20.3767 20.776H17.8007V25H16.6007V13.512H20.3767C22.7447 13.512 24.3607 14.808 24.3607 17.128C24.3607 19.448 22.7447 20.776 20.3767 20.776ZM20.3607 14.536H17.8007V19.752H20.3607C22.0727 19.752 23.1607 18.808 23.1607 17.128C23.1607 15.464 22.0727 14.536 20.3607 14.536ZM29.2858 25.16C26.9178 25.16 25.3498 23.384 25.3498 20.712C25.3498 18.248 26.9818 16.408 29.2218 16.408C31.6218 16.408 33.1898 18.344 32.9978 21.048H26.4698C26.5658 23.048 27.6218 24.28 29.2698 24.28C30.6778 24.28 31.6538 23.496 31.9258 22.152H33.0298C32.6458 24.024 31.2218 25.16 29.2858 25.16ZM29.2058 17.272C27.6858 17.272 26.6138 18.44 26.4698 20.28H31.8298C31.7338 18.392 30.7578 17.272 29.2058 17.272ZM38.0046 25.16C35.6366 25.16 34.0686 23.384 34.0686 20.712C34.0686 18.248 35.7006 16.408 37.9406 16.408C40.3406 16.408 41.9086 18.344 41.7166 21.048H35.1886C35.2846 23.048 36.3406 24.28 37.9886 24.28C39.3966 24.28 40.3726 23.496 40.6446 22.152H41.7486C41.3646 24.024 39.9406 25.16 38.0046 25.16ZM37.9246 17.272C36.4046 17.272 35.3326 18.44 35.1886 20.28H40.5486C40.4526 18.392 39.4766 17.272 37.9246 17.272ZM44.6876 20.488V25H43.5676V16.568H44.6076V18.488C45.1836 17.24 46.4316 16.44 47.8236 16.44V17.608C46.0476 17.544 44.6876 18.648 44.6876 20.488ZM60.4403 25L53.7363 15.208V25H52.6163V13.512H53.9443L60.5843 23.176V13.512H61.7203V25H60.4403ZM67.5514 25.16C65.1834 25.16 63.6154 23.384 63.6154 20.712C63.6154 18.248 65.2474 16.408 67.4874 16.408C69.8874 16.408 71.4554 18.344 71.2634 21.048H64.7354C64.8314 23.048 65.8874 24.28 67.5354 24.28C68.9434 24.28 69.9194 23.496 70.1914 22.152H71.2954C70.9114 24.024 69.4874 25.16 67.5514 25.16ZM67.4714 17.272C65.9514 17.272 64.8794 18.44 64.7354 20.28H70.0954C69.9994 18.392 69.0234 17.272 67.4714 17.272ZM77.4348 23.928V24.92C77.0028 25.096 76.6348 25.16 76.2188 25.16C74.8268 25.16 73.7548 24.44 73.7548 22.616V17.512H71.7708V16.568H73.7548V14.072H74.8748V16.568H77.5148V17.512H74.8748V22.376C74.8748 23.688 75.5148 24.136 76.4428 24.136C76.7948 24.136 77.0828 24.072 77.4348 23.928ZM86.2322 25L84.0242 18.056L81.8322 25H80.6962L78.2322 16.568H79.3362L81.2882 23.416L83.4802 16.568H84.5842L86.7602 23.432L88.7122 16.568H89.8322L87.3522 25H86.2322ZM94.4904 25.16C92.1704 25.16 90.4904 23.32 90.4904 20.776C90.4904 18.248 92.1704 16.424 94.4904 16.424C96.8264 16.424 98.5064 18.248 98.5064 20.776C98.5064 23.32 96.8264 25.16 94.4904 25.16ZM94.4904 24.184C96.1384 24.184 97.3704 22.872 97.3704 20.776C97.3704 18.712 96.1384 17.4 94.4904 17.4C92.8584 17.4 91.6264 18.712 91.6264 20.776C91.6264 22.872 92.8584 24.184 94.4904 24.184ZM101.438 20.488V25H100.318V16.568H101.358V18.488C101.934 17.24 103.182 16.44 104.574 16.44V17.608C102.798 17.544 101.438 18.648 101.438 20.488ZM107.063 25H105.943V13.512H107.063V20.488L111.127 16.568H112.455L108.199 20.696L112.807 25H111.351L107.063 20.952V25ZM115.492 14.616C115.492 15.112 115.124 15.464 114.58 15.464C114.052 15.464 113.684 15.112 113.684 14.616C113.684 14.136 114.052 13.784 114.58 13.784C115.124 13.784 115.492 14.136 115.492 14.616ZM115.156 25H114.036V16.568H115.156V25ZM118.703 20.088V25H117.583V16.568H118.623V18.152C119.167 17.112 120.191 16.408 121.407 16.408C123.167 16.408 124.303 17.528 124.303 19.528V25H123.183V19.912C123.183 18.296 122.447 17.384 121.071 17.384C119.759 17.384 118.703 18.52 118.703 20.088ZM129.845 28.264C127.701 28.264 126.357 27.144 126.261 25.256H127.333C127.429 26.632 128.325 27.368 129.829 27.368C131.493 27.368 132.373 26.488 132.373 24.824V23.064C131.861 24.248 130.837 24.936 129.589 24.936C127.461 24.936 126.037 23.224 126.037 20.664C126.037 18.104 127.445 16.408 129.573 16.408C130.837 16.408 131.893 17.128 132.437 18.36V16.568H133.477V24.808C133.477 26.984 132.149 28.264 129.845 28.264ZM127.157 20.664C127.157 22.728 128.133 23.976 129.749 23.976C131.333 23.976 132.389 22.696 132.389 20.744C132.389 18.68 131.349 17.368 129.749 17.368C128.149 17.368 127.157 18.616 127.157 20.664Z" fill="#FEFAE0"/>
</svg>
