<svg width="150" height="40" viewBox="0 0 150 40" fill="none" xmlns="http://www.w3.org/2000/svg">
<rect x="0.5" y="0.5" width="149" height="39" rx="19.5" fill="#FF002B" stroke="#010100"/>
<path d="M49.1585 25L46.4705 15.144L43.7665 25H42.5185L39.4945 13.512H40.6625L43.1425 23.256L45.8305 13.512H47.1105L49.7665 23.288L52.2625 13.512H53.4465L50.4225 25H49.1585ZM57.7014 25.16C55.3814 25.16 53.7014 23.32 53.7014 20.776C53.7014 18.248 55.3814 16.424 57.7014 16.424C60.0374 16.424 61.7174 18.248 61.7174 20.776C61.7174 23.32 60.0374 25.16 57.7014 25.16ZM57.7014 24.184C59.3494 24.184 60.5814 22.872 60.5814 20.776C60.5814 18.712 59.3494 17.4 57.7014 17.4C56.0694 17.4 54.8374 18.712 54.8374 20.776C54.8374 22.872 56.0694 24.184 57.7014 24.184ZM64.6485 20.488V25H63.5285V16.568H64.5685V18.488C65.1445 17.24 66.3925 16.44 67.7845 16.44V17.608C66.0085 17.544 64.6485 18.648 64.6485 20.488ZM70.2735 25H69.1535V13.512H70.2735V20.488L74.3375 16.568H75.6655L71.4095 20.696L76.0175 25H74.5615L70.2735 20.952V25ZM83.395 22.648C83.395 24.2 82.147 25.16 80.067 25.16C77.971 25.16 76.691 24.104 76.531 22.36H77.603C77.683 23.56 78.627 24.312 80.067 24.312C81.443 24.312 82.275 23.784 82.275 22.824C82.275 21.992 81.795 21.608 80.515 21.352L79.299 21.112C77.699 20.808 76.851 20.024 76.851 18.808C76.851 17.4 78.099 16.408 79.939 16.408C81.875 16.408 83.155 17.448 83.283 19.128H82.227C82.115 17.96 81.267 17.272 79.939 17.272C78.755 17.272 77.939 17.832 77.939 18.712C77.939 19.544 78.451 19.944 79.699 20.184L80.963 20.424C82.643 20.744 83.395 21.448 83.395 22.648ZM86.461 20.088V25H85.341V13.512H86.461V18.12C86.989 17.112 87.949 16.408 89.165 16.408C90.925 16.408 92.061 17.528 92.061 19.528V25H90.941V19.912C90.941 18.296 90.205 17.384 88.829 17.384C87.517 17.384 86.461 18.52 86.461 20.088ZM97.7951 25.16C95.4751 25.16 93.7951 23.32 93.7951 20.776C93.7951 18.248 95.4751 16.424 97.7951 16.424C100.131 16.424 101.811 18.248 101.811 20.776C101.811 23.32 100.131 25.16 97.7951 25.16ZM97.7951 24.184C99.4431 24.184 100.675 22.872 100.675 20.776C100.675 18.712 99.4431 17.4 97.7951 17.4C96.1631 17.4 94.9311 18.712 94.9311 20.776C94.9311 22.872 96.1631 24.184 97.7951 24.184ZM111.35 20.776C111.35 23.384 109.894 25.16 107.654 25.16C106.39 25.16 105.318 24.472 104.742 23.272V28.088H103.622V16.568H104.662V18.392C105.238 17.144 106.358 16.408 107.654 16.408C109.894 16.408 111.35 18.2 111.35 20.776ZM110.214 20.776C110.214 18.648 109.11 17.384 107.462 17.384C105.894 17.384 104.726 18.632 104.726 20.776C104.726 22.872 105.862 24.184 107.462 24.184C109.11 24.184 110.214 22.936 110.214 20.776Z" fill="#FEFAE0"/>
</svg>
