<svg width="150" height="40" viewBox="0 0 150 40" fill="none" xmlns="http://www.w3.org/2000/svg">
<rect x="0.5" y="0.5" width="149" height="39" rx="19.5" fill="#FF002B" stroke="#010100"/>
<path d="M47.2595 20.776H44.6835V25H43.4835V13.512H47.2595C49.6275 13.512 51.2435 14.808 51.2435 17.128C51.2435 19.448 49.6275 20.776 47.2595 20.776ZM47.2435 14.536H44.6835V19.752H47.2435C48.9555 19.752 50.0435 18.808 50.0435 17.128C50.0435 15.464 48.9555 14.536 47.2435 14.536ZM54.1329 20.488V25H53.0129V16.568H54.0529V18.488C54.6289 17.24 55.8769 16.44 57.2689 16.44V17.608C55.4929 17.544 54.1329 18.648 54.1329 20.488ZM60.0939 14.616C60.0939 15.112 59.7259 15.464 59.1819 15.464C58.6539 15.464 58.2859 15.112 58.2859 14.616C58.2859 14.136 58.6539 13.784 59.1819 13.784C59.7259 13.784 60.0939 14.136 60.0939 14.616ZM59.7579 25H58.6379V16.568H59.7579V25ZM68.1848 25H61.4328V24.184L66.6168 17.528H61.5928V16.568H67.9928V17.432L62.8408 24.04H68.1848V25ZM72.9811 25.16C70.6131 25.16 69.0451 23.384 69.0451 20.712C69.0451 18.248 70.6771 16.408 72.9171 16.408C75.3171 16.408 76.8851 18.344 76.6931 21.048H70.1651C70.2611 23.048 71.3171 24.28 72.9651 24.28C74.3731 24.28 75.3491 23.496 75.6211 22.152H76.7251C76.3411 24.024 74.9171 25.16 72.9811 25.16ZM72.9011 17.272C71.3811 17.272 70.3091 18.44 70.1651 20.28H75.5251C75.4291 18.392 74.4531 17.272 72.9011 17.272ZM86.2721 20.776C86.2721 23.384 84.8161 25.16 82.5761 25.16C81.3121 25.16 80.2401 24.472 79.6641 23.272V28.088H78.5441V16.568H79.5841V18.392C80.1601 17.144 81.2801 16.408 82.5761 16.408C84.8161 16.408 86.2721 18.2 86.2721 20.776ZM85.1361 20.776C85.1361 18.648 84.0321 17.384 82.3841 17.384C80.8161 17.384 79.6481 18.632 79.6481 20.776C79.6481 22.872 80.7841 24.184 82.3841 24.184C84.0321 24.184 85.1361 22.936 85.1361 20.776ZM91.4514 25.16C89.1314 25.16 87.4514 23.32 87.4514 20.776C87.4514 18.248 89.1314 16.424 91.4514 16.424C93.7874 16.424 95.4674 18.248 95.4674 20.776C95.4674 23.32 93.7874 25.16 91.4514 25.16ZM91.4514 24.184C93.0994 24.184 94.3314 22.872 94.3314 20.776C94.3314 18.712 93.0994 17.4 91.4514 17.4C89.8194 17.4 88.5874 18.712 88.5874 20.776C88.5874 22.872 89.8194 24.184 91.4514 24.184ZM100.655 25.16C98.3345 25.16 96.6545 23.32 96.6545 20.776C96.6545 18.248 98.3345 16.424 100.655 16.424C102.991 16.424 104.671 18.248 104.671 20.776C104.671 23.32 102.991 25.16 100.655 25.16ZM100.655 24.184C102.303 24.184 103.535 22.872 103.535 20.776C103.535 18.712 102.303 17.4 100.655 17.4C99.0225 17.4 97.7905 18.712 97.7905 20.776C97.7905 22.872 99.0225 24.184 100.655 24.184ZM107.602 25H106.482V13.512H107.602V25Z" fill="#FEFAE0"/>
</svg>
