<svg width="150" height="40" viewBox="0 0 150 40" fill="none" xmlns="http://www.w3.org/2000/svg">
<rect x="0.5" y="0.5" width="149" height="39" rx="19.5" fill="#FF002B" stroke="#010100"/>
<path d="M60.344 21.816C60.344 23.64 58.856 25.16 56.184 25.16C53.512 25.16 51.944 23.672 51.832 21.496H53.048C53.16 23.128 54.184 24.184 56.168 24.184C57.8 24.184 59.08 23.352 59.08 21.976C59.08 20.792 58.408 20.248 56.776 19.912L55.32 19.624C53.8 19.32 52.2 18.616 52.2 16.616C52.2 14.776 53.816 13.352 56.104 13.352C58.344 13.352 60.072 14.76 60.2 16.952H58.968C58.888 15.432 57.768 14.328 56.12 14.328C54.36 14.328 53.416 15.4 53.416 16.552C53.416 17.912 54.568 18.328 55.848 18.584L57.304 18.888C59.24 19.288 60.344 20.088 60.344 21.816ZM69.4119 25L67.2039 18.056L65.0119 25H63.8759L61.4119 16.568H62.5159L64.4679 23.416L66.6599 16.568H67.7639L69.9399 23.432L71.8919 16.568H73.0119L70.5319 25H69.4119ZM79.4 25V23.464C78.904 24.52 77.88 25.16 76.568 25.16C74.824 25.16 73.688 24.184 73.688 22.664C73.688 21.016 75 20.152 77.56 20.152C78.072 20.152 78.456 20.184 79.288 20.248V19.544C79.288 18.136 78.536 17.304 77.256 17.304C75.88 17.304 75.016 18.152 75 19.528H73.976C74.024 17.656 75.32 16.408 77.24 16.408C79.208 16.408 80.36 17.56 80.36 19.512V25H79.4ZM74.76 22.632C74.76 23.656 75.544 24.344 76.728 24.344C78.296 24.344 79.288 23.32 79.288 21.736V20.984C78.568 20.92 78.072 20.904 77.608 20.904C75.688 20.904 74.76 21.464 74.76 22.632ZM85.9 28.264C83.756 28.264 82.412 27.144 82.316 25.256H83.388C83.484 26.632 84.38 27.368 85.884 27.368C87.548 27.368 88.428 26.488 88.428 24.824V23.064C87.916 24.248 86.892 24.936 85.644 24.936C83.516 24.936 82.092 23.224 82.092 20.664C82.092 18.104 83.5 16.408 85.628 16.408C86.892 16.408 87.948 17.128 88.492 18.36V16.568H89.532V24.808C89.532 26.984 88.204 28.264 85.9 28.264ZM83.212 20.664C83.212 22.728 84.188 23.976 85.804 23.976C87.388 23.976 88.444 22.696 88.444 20.744C88.444 18.68 87.404 17.368 85.804 17.368C84.204 17.368 83.212 18.616 83.212 20.664ZM98.27 22.648C98.27 24.2 97.022 25.16 94.942 25.16C92.846 25.16 91.566 24.104 91.406 22.36H92.478C92.558 23.56 93.502 24.312 94.942 24.312C96.318 24.312 97.15 23.784 97.15 22.824C97.15 21.992 96.67 21.608 95.39 21.352L94.174 21.112C92.574 20.808 91.726 20.024 91.726 18.808C91.726 17.4 92.974 16.408 94.814 16.408C96.75 16.408 98.03 17.448 98.158 19.128H97.102C96.99 17.96 96.142 17.272 94.814 17.272C93.63 17.272 92.814 17.832 92.814 18.712C92.814 19.544 93.326 19.944 94.574 20.184L95.838 20.424C97.518 20.744 98.27 21.448 98.27 22.648Z" fill="#FEFAE0"/>
</svg>
