<svg width="150" height="40" viewBox="0 0 150 40" fill="none" xmlns="http://www.w3.org/2000/svg">
<rect x="0.5" y="0.5" width="149" height="39" rx="19.5" fill="#FF002B" stroke="#010100"/>
<path d="M59.2154 23.96V25H52.3194V13.512H59.1034V14.552H53.5194V18.552H58.6234V19.592H53.5194V23.96H59.2154ZM67.8604 16.568L64.6124 25H63.4444L60.2284 16.568H61.4284L64.0684 23.688L66.7084 16.568H67.8604ZM72.2233 25.16C69.8553 25.16 68.2873 23.384 68.2873 20.712C68.2873 18.248 69.9193 16.408 72.1593 16.408C74.5593 16.408 76.1273 18.344 75.9353 21.048H69.4073C69.5033 23.048 70.5593 24.28 72.2073 24.28C73.6153 24.28 74.5913 23.496 74.8633 22.152H75.9673C75.5833 24.024 74.1593 25.16 72.2233 25.16ZM72.1433 17.272C70.6233 17.272 69.5513 18.44 69.4073 20.28H74.7673C74.6713 18.392 73.6953 17.272 72.1433 17.272ZM78.9063 20.088V25H77.7863V16.568H78.8263V18.152C79.3703 17.112 80.3943 16.408 81.6103 16.408C83.3703 16.408 84.5063 17.528 84.5063 19.528V25H83.3863V19.912C83.3863 18.296 82.6503 17.384 81.2743 17.384C79.9623 17.384 78.9063 18.52 78.9063 20.088ZM91.1848 23.928V24.92C90.7528 25.096 90.3848 25.16 89.9688 25.16C88.5768 25.16 87.5048 24.44 87.5048 22.616V17.512H85.5208V16.568H87.5048V14.072H88.6248V16.568H91.2648V17.512H88.6248V22.376C88.6248 23.688 89.2648 24.136 90.1928 24.136C90.5448 24.136 90.8328 24.072 91.1848 23.928ZM99.2466 22.648C99.2466 24.2 97.9986 25.16 95.9186 25.16C93.8226 25.16 92.5426 24.104 92.3826 22.36H93.4546C93.5346 23.56 94.4786 24.312 95.9186 24.312C97.2946 24.312 98.1266 23.784 98.1266 22.824C98.1266 21.992 97.6466 21.608 96.3666 21.352L95.1506 21.112C93.5506 20.808 92.7026 20.024 92.7026 18.808C92.7026 17.4 93.9506 16.408 95.7906 16.408C97.7266 16.408 99.0066 17.448 99.1346 19.128H98.0786C97.9666 17.96 97.1186 17.272 95.7906 17.272C94.6066 17.272 93.7906 17.832 93.7906 18.712C93.7906 19.544 94.3026 19.944 95.5506 20.184L96.8146 20.424C98.4946 20.744 99.2466 21.448 99.2466 22.648Z" fill="#FEFAE0"/>
</svg>
